999
dxfrw 0.6.3
  0
SECTION
  2
HEADER
  9
$ACADVER
  1
AC1021
  9
$DWGCODEPAGE
  3
ANSI_1252
  9
$INSBASE
 10
0
 20
0
 30
0
  9
$EXTMIN
 10
-2.296136913416957e-016
 20
-11.25
 30
0
  9
$EXTMAX
 10
201.25
 20
198.125
 30
0
  9
$LIMMIN
 10
0
 20
0
  9
$LIMMAX
 10
420
 20
297
  9
$ORTHOMODE
 70
    0
  9
$REGENMODE
 70
    1
  9
$FILLMODE
 70
    1
  9
$QTEXTMODE
 70
    0
  9
$MIRRTEXT
 70
    0
  9
$LTSCALE
 40
1
  9
$ATTMODE
 70
    0
  9
$TEXTSIZE
 40
2.5
  9
$TRACEWID
 40
15.68
  9
$TEXTSTYLE
  7
STANDARD
  9
$CLAYER
  8
quote
  9
$CELTYPE
  6
BYLAYER
  9
$CECOLOR
 62
  256
  9
$CELTSCALE
 40
1
  9
$DISPSILH
 70
    0
  9
$DIMSCALE
 40
1
  9
$DIMASZ
 40
2.5
  9
$DIMEXO
 40
0.625
  9
$DIMDLI
 40
3.75
  9
$DIMRND
 40
0
  9
$DIMDLE
 40
0
  9
$DIMEXE
 40
1.25
  9
$DIMTP
 40
0
  9
$DIMTM
 40
0
  9
$DIMTXT
 40
2.5
  9
$DIMCEN
 40
2.5
  9
$DIMTSZ
 40
0
  9
$DIMTOL
 70
    0
  9
$DIMLIM
 70
    0
  9
$DIMTIH
 70
    0
  9
$DIMTOH
 70
    0
  9
$DIMSE1
 70
    0
  9
$DIMSE2
 70
    0
  9
$DIMTAD
 70
    1
  9
$DIMZIN
 70
    1
  9
$DIMBLK
  1

  9
$DIMASO
 70
    1
  9
$DIMSHO
 70
    1
  9
$DIMPOST
  1

  9
$DIMAPOST
  1

  9
$DIMALT
 70
    0
  9
$DIMALTD
 70
    3
  9
$DIMALTF
 40
0.03937
  9
$DIMLFAC
 40
1
  9
$DIMTOFL
 70
    1
  9
$DIMTVP
 40
0
  9
$DIMTIX
 70
    0
  9
$DIMSOXD
 70
    0
  9
$DIMSAH
 70
    0
  9
$DIMBLK1
  1

  9
$DIMBLK2
  1

  9
$DIMSTYLE
  2
STANDARD
  9
$DIMCLRD
 70
    0
  9
$DIMCLRE
 70
    0
  9
$DIMCLRT
 70
    0
  9
$DIMTFAC
 40
1
  9
$DIMGAP
 40
0.625
  9
$DIMJUST
 70
    0
  9
$DIMSD1
 70
    0
  9
$DIMSD2
 70
    0
  9
$DIMTOLJ
 70
    0
  9
$DIMTZIN
 70
    8
  9
$DIMALTZ
 70
    0
  9
$DIMALTTZ
 70
    0
  9
$DIMUPT
 70
    0
  9
$DIMDEC
 70
    1
  9
$DIMTDEC
 70
    2
  9
$DIMALTU
 70
    2
  9
$DIMALTTD
 70
    3
  9
$DIMTXSTY
  7
standard
  9
$DIMAUNIT
 70
    0
  9
$DIMADEC
 70
    2
  9
$DIMALTRND
 40
0
  9
$DIMAZIN
 70
    0
  9
$DIMDSEP
 70
    0
  9
$DIMATFIT
 70
    3
  9
$DIMFRAC
 70
    0
  9
$DIMLDRBLK
  1
STANDARD
  9
$DIMLUNIT
 70
    2
  9
$DIMLWD
 70
   -2
  9
$DIMLWE
 70
   -2
  9
$DIMTMOVE
 70
    0
  9
$DIMFXL
 40
1
  9
$DIMFXLON
 70
    0
  9
$DIMJOGANG
 40
0.7854
  9
$DIMTFILL
 70
    0
  9
$DIMTFILLCLR
 70
    0
  9
$DIMARCSYM
 70
    0
  9
$DIMLTYPE
  6

  9
$DIMLTEX1
  6

  9
$DIMLTEX2
  6

  9
$LUNITS
 70
    2
  9
$LUPREC
 70
    1
  9
$SKETCHINC
 40
1
  9
$FILLETRAD
 40
0
  9
$AUNITS
 70
    0
  9
$AUPREC
 70
    2
  9
$MENU
  1
.
  9
$ELEVATION
 40
0
  9
$PELEVATION
 40
0
  9
$THICKNESS
 40
0
  9
$LIMCHECK
 70
    0
  9
$CHAMFERA
 40
0
  9
$CHAMFERB
 40
0
  9
$CHAMFERC
 40
0
  9
$CHAMFERD
 40
0
  9
$SKPOLY
 70
    0
  9
$USRTIMER
 70
    1
  9
$ANGBASE
 50
0
  9
$ANGDIR
 70
    0
  9
$PDMODE
 70
   34
  9
$PDSIZE
 40
0
  9
$PLINEWID
 40
0
  9
$SPLFRAME
 70
    0
  9
$SPLINETYPE
 70
    2
  9
$SPLINESEGS
 70
    8
  9
$HANDSEED
  5
20000
  9
$SURFTAB1
 70
    6
  9
$SURFTAB2
 70
    6
  9
$SURFTYPE
 70
    6
  9
$SURFU
 70
    6
  9
$SURFV
 70
    6
  9
$UCSBASE
  2

  9
$UCSNAME
  2

  9
$UCSORG
 10
0
 20
0
 30
0
  9
$UCSXDIR
 10
1
 20
0
 30
0
  9
$UCSYDIR
 10
0
 20
1
 30
0
  9
$UCSORTHOREF
  2

  9
$UCSORTHOVIEW
 70
    0
  9
$UCSORGTOP
 10
0
 20
0
 30
0
  9
$UCSORGBOTTOM
 10
0
 20
0
 30
0
  9
$UCSORGLEFT
 10
0
 20
0
 30
0
  9
$UCSORGRIGHT
 10
0
 20
0
 30
0
  9
$UCSORGFRONT
 10
0
 20
0
 30
0
  9
$UCSORGBACK
 10
0
 20
0
 30
0
  9
$PUCSBASE
  2

  9
$PUCSNAME
  2

  9
$PUCSORG
 10
0
 20
0
 30
0
  9
$PUCSXDIR
 10
1
 20
0
 30
0
  9
$PUCSYDIR
 10
0
 20
1
 30
0
  9
$PUCSORTHOREF
  2

  9
$PUCSORTHOVIEW
 70
    0
  9
$PUCSORGTOP
 10
0
 20
0
 30
0
  9
$PUCSORGBOTTOM
 10
0
 20
0
 30
0
  9
$PUCSORGLEFT
 10
0
 20
0
 30
0
  9
$PUCSORGRIGHT
 10
0
 20
0
 30
0
  9
$PUCSORGFRONT
 10
0
 20
0
 30
0
  9
$PUCSORGBACK
 10
0
 20
0
 30
0
  9
$USERI1
 70
    0
  9
$USERI2
 70
    0
  9
$USERI3
 70
    0
  9
$USERI4
 70
    0
  9
$USERI5
 70
    0
  9
$USERR1
 40
0
  9
$USERR2
 40
0
  9
$USERR3
 40
0
  9
$USERR4
 40
0
  9
$USERR5
 40
0
  9
$WORLDVIEW
 70
    1
  9
$SHADEDGE
 70
    3
  9
$SHADEDIF
 70
   70
  9
$TILEMODE
 70
    1
  9
$MAXACTVP
 70
   64
  9
$PINSBASE
 10
44.92394822006473
 20
12.5
 30
0
  9
$PLIMCHECK
 70
    0
  9
$PEXTMIN
 10
0
 20
0
 30
0
  9
$PEXTMAX
 10
0
 20
0
 30
0
  9
$GRIDMODE
 70
    1
  9
$GRIDUNIT
 10
0
 20
0
  9
$PLIMMIN
 10
0
 20
0
  9
$PLIMMAX
 10
297
 20
210
  9
$UNITMODE
 70
    0
  9
$VISRETAIN
 70
    1
  9
$PLINEGEN
 70
    0
  9
$PSLTSCALE
 70
    1
  9
$TREEDEPTH
 70
 3020
  9
$CMLSTYLE
  2
Standard
  9
$CMLJUST
 70
    0
  9
$CMLSCALE
 40
20
  9
$PROXYGRAPHICS
 70
    1
  9
$MEASUREMENT
 70
    1
  9
$CELWEIGHT
370
   -1
  9
$ENDCAPS
280
    0
  9
$JOINSTYLE
280
    0
  9
$LWDISPLAY
290
    0
  9
$INSUNITS
 70
    4
  9
$HYPERLINKBASE
  1

  9
$STYLESHEET
  1

  9
$XEDIT
290
    1
  9
$CEPSNTYPE
380
    0
  9
$PSTYLEMODE
290
    1
  9
$EXTNAMES
290
    1
  9
$PSVPSCALE
 40
0.9579278105601963
  9
$OLESTARTUP
290
    0
  9
$SORTENTS
280
  127
  9
$INDEXCTL
280
    0
  9
$HIDETEXT
280
    1
  9
$XCLIPFRAME
290
    0
  9
$HALOGAP
280
    0
  9
$OBSCOLOR
 70
  257
  9
$OBSLTYPE
280
    0
  9
$INTERSECTIONDISPLAY
280
    0
  9
$INTERSECTIONCOLOR
 70
  257
  9
$DIMASSOC
280
    1
  9
$PROJECTNAME
  1

  9
$CAMERADISPLAY
290
    0
  9
$LENSLENGTH
 40
50
  9
$CAMERAHEIGHT
 40
0
  9
$STEPSPERSEC
 40
2
  9
$STEPSIZE
 40
50
  9
$3DDWFPREC
 40
2
  9
$PSOLWIDTH
 40
5
  9
$PSOLHEIGHT
 40
80
  9
$LOFTANG1
 40
1.570796326794897
  9
$LOFTANG2
 40
1.570796326794897
  9
$LOFTMAG1
 40
0
  9
$LOFTMAG2
 40
0
  9
$LOFTPARAM
 70
    7
  9
$LOFTNORMALS
280
    1
  9
$LATITUDE
 40
1
  9
$LONGITUDE
 40
1
  9
$NORTHDIRECTION
 40
0
  9
$TIMEZONE
 70
-8000
  9
$LIGHTGLYPHDISPLAY
280
    1
  9
$TILEMODELIGHTSYNCH
280
    1
  9
$SOLIDHIST
280
    1
  9
$SHOWHIST
280
    1
  9
$DWFFRAME
280
    2
  9
$DGNFRAME
280
    0
  9
$REALWORLDSCALE
290
    1
  9
$INTERFERECOLOR
 62
    1
  9
$CSHADOW
280
    0
  9
$SHADOWPLANELOCATION
 40
0
  0
ENDSEC
  0
SECTION
  2
CLASSES
  0
ENDSEC
  0
SECTION
  2
TABLES
  0
TABLE
  2
VPORT
  5
8
330
0
100
AcDbSymbolTable
 70
    1
  0
VPORT
  5
31
330
2
100
AcDbSymbolTableRecord
100
AcDbViewportTableRecord
  2
*ACTIVE
 70
    0
 10
0
 20
0
 11
1
 21
1
 12
135.2288084760148
 22
154.888431447392
 13
0
 23
0
 14
10
 24
10
 15
10
 25
10
 16
0
 26
0
 36
1
 17
0
 27
0
 37
0
 40
334.0298557192866
 41
1.270627062706271
 42
50
 43
0
 44
0
 50
0
 51
0
 71
    0
 72
  100
 73
    1
 74
    3
 75
    0
 76
    1
 77
    0
 78
    0
281
    0
 65
    1
110
0
120
0
130
0
111
1
121
0
131
0
112
0
122
1
132
0
 79
    0
146
0
348
10020
 60
    7
 61
    5
292
1
282
    1
141
0
142
0
 63
  250
421
3358443
  0
ENDTAB
  0
TABLE
  2
LTYPE
  5
5
330
0
100
AcDbSymbolTable
 70
    4
  0
LTYPE
  5
14
330
5
100
AcDbSymbolTableRecord
100
AcDbLinetypeTableRecord
  2
ByBlock
 70
    0
  3

 72
   65
 73
    0
 40
0
  0
LTYPE
  5
15
330
5
100
AcDbSymbolTableRecord
100
AcDbLinetypeTableRecord
  2
ByLayer
 70
    0
  3

 72
   65
 73
    0
 40
0
  0
LTYPE
  5
16
330
5
100
AcDbSymbolTableRecord
100
AcDbLinetypeTableRecord
  2
Continuous
 70
    0
  3
Solid line
 72
   65
 73
    0
 40
0
  0
LTYPE
  5
32
330
5
100
AcDbSymbolTableRecord
100
AcDbLinetypeTableRecord
  2
DOT
 70
    0
  3
Dot . . . . . . . . . . . . . . . . . . . . . .
 72
   65
 73
    2
 40
6.35
 49
0
 74
    0
 49
-6.35
 74
    0
  0
LTYPE
  5
33
330
5
100
AcDbSymbolTableRecord
100
AcDbLinetypeTableRecord
  2
DOTTINY
 70
    0
  3
Dot (.15x) .....................................
 72
   65
 73
    2
 40
0.9525
 49
0
 74
    0
 49
-0.9525
 74
    0
  0
LTYPE
  5
34
330
5
100
AcDbSymbolTableRecord
100
AcDbLinetypeTableRecord
  2
DOT2
 70
    0
  3
Dot (.5x) .....................................
 72
   65
 73
    2
 40
3.175
 49
0
 74
    0
 49
-3.175
 74
    0
  0
LTYPE
  5
35
330
5
100
AcDbSymbolTableRecord
100
AcDbLinetypeTableRecord
  2
DOTX2
 70
    0
  3
Dot (2x) .  .  .  .  .  .  .  .  .  .  .  .  .
 72
   65
 73
    2
 40
12.7
 49
0
 74
    0
 49
-12.7
 74
    0
  0
LTYPE
  5
36
330
5
100
AcDbSymbolTableRecord
100
AcDbLinetypeTableRecord
  2
DASHED
 70
    0
  3
Dashed _ _ _ _ _ _ _ _ _ _ _ _ _ _ _ _ _
 72
   65
 73
    2
 40
19.05
 49
12.7
 74
    0
 49
-6.35
 74
    0
  0
LTYPE
  5
37
330
5
100
AcDbSymbolTableRecord
100
AcDbLinetypeTableRecord
  2
DASHEDTINY
 70
    0
  3
Dashed (.15x) _ _ _ _ _ _ _ _ _ _ _ _ _ _ _ _ _
 72
   65
 73
    2
 40
2.8575
 49
1.905
 74
    0
 49
-0.9525
 74
    0
  0
LTYPE
  5
38
330
5
100
AcDbSymbolTableRecord
100
AcDbLinetypeTableRecord
  2
DASHED2
 70
    0
  3
Dashed (.5x) _ _ _ _ _ _ _ _ _ _ _ _ _ _ _ _ _
 72
   65
 73
    2
 40
9.524999999999999
 49
6.35
 74
    0
 49
-3.175
 74
    0
  0
LTYPE
  5
39
330
5
100
AcDbSymbolTableRecord
100
AcDbLinetypeTableRecord
  2
DASHEDX2
 70
    0
  3
Dashed (2x) ____  ____  ____  ____  ____  ___
 72
   65
 73
    2
 40
38.09999999999999
 49
25.4
 74
    0
 49
-12.7
 74
    0
  0
LTYPE
  5
3A
330
5
100
AcDbSymbolTableRecord
100
AcDbLinetypeTableRecord
  2
DASHDOT
 70
    0
  3
Dash dot __ . __ . __ . __ . __ . __ . __ . __
 72
   65
 73
    4
 40
25.4
 49
12.7
 74
    0
 49
-6.35
 74
    0
 49
0
 74
    0
 49
-6.35
 74
    0
  0
LTYPE
  5
3B
330
5
100
AcDbSymbolTableRecord
100
AcDbLinetypeTableRecord
  2
DASHDOTTINY
 70
    0
  3
Dash dot (.15x) _._._._._._._._._._._._._._._.
 72
   65
 73
    4
 40
3.81
 49
1.905
 74
    0
 49
-0.9525
 74
    0
 49
0
 74
    0
 49
-0.9525
 74
    0
  0
LTYPE
  5
3C
330
5
100
AcDbSymbolTableRecord
100
AcDbLinetypeTableRecord
  2
DASHDOT2
 70
    0
  3
Dash dot (.5x) _._._._._._._._._._._._._._._.
 72
   65
 73
    4
 40
12.7
 49
6.35
 74
    0
 49
-3.175
 74
    0
 49
0
 74
    0
 49
-3.175
 74
    0
  0
LTYPE
  5
3D
330
5
100
AcDbSymbolTableRecord
100
AcDbLinetypeTableRecord
  2
DASHDOTX2
 70
    0
  3
Dash dot (2x) ____  .  ____  .  ____  .  ___
 72
   65
 73
    4
 40
50.8
 49
25.4
 74
    0
 49
-12.7
 74
    0
 49
0
 74
    0
 49
-12.7
 74
    0
  0
LTYPE
  5
3E
330
5
100
AcDbSymbolTableRecord
100
AcDbLinetypeTableRecord
  2
DIVIDE
 70
    0
  3
Divide ____ . . ____ . . ____ . . ____ . . ____
 72
   65
 73
    6
 40
31.75
 49
12.7
 74
    0
 49
-6.35
 74
    0
 49
0
 74
    0
 49
-6.35
 74
    0
 49
0
 74
    0
 49
-6.35
 74
    0
  0
LTYPE
  5
3F
330
5
100
AcDbSymbolTableRecord
100
AcDbLinetypeTableRecord
  2
DIVIDETINY
 70
    0
  3
Divide (.15x) __..__..__..__..__..__..__..__.._
 72
   65
 73
    6
 40
4.7625
 49
1.905
 74
    0
 49
-0.9525
 74
    0
 49
0
 74
    0
 49
-0.9525
 74
    0
 49
0
 74
    0
 49
-0.9525
 74
    0
  0
LTYPE
  5
40
330
5
100
AcDbSymbolTableRecord
100
AcDbLinetypeTableRecord
  2
DIVIDE2
 70
    0
  3
Divide (.5x) __..__..__..__..__..__..__..__.._
 72
   65
 73
    6
 40
15.875
 49
6.35
 74
    0
 49
-3.175
 74
    0
 49
0
 74
    0
 49
-3.175
 74
    0
 49
0
 74
    0
 49
-3.175
 74
    0
  0
LTYPE
  5
41
330
5
100
AcDbSymbolTableRecord
100
AcDbLinetypeTableRecord
  2
DIVIDEX2
 70
    0
  3
Divide (2x) ________  .  .  ________  .  .  _
 72
   65
 73
    6
 40
63.5
 49
25.4
 74
    0
 49
-12.7
 74
    0
 49
0
 74
    0
 49
-12.7
 74
    0
 49
0
 74
    0
 49
-12.7
 74
    0
  0
LTYPE
  5
42
330
5
100
AcDbSymbolTableRecord
100
AcDbLinetypeTableRecord
  2
BORDER
 70
    0
  3
Border __ __ . __ __ . __ __ . __ __ . __ __ .
 72
   65
 73
    6
 40
44.45
 49
12.7
 74
    0
 49
-6.35
 74
    0
 49
12.7
 74
    0
 49
-6.35
 74
    0
 49
0
 74
    0
 49
-6.35
 74
    0
  0
LTYPE
  5
43
330
5
100
AcDbSymbolTableRecord
100
AcDbLinetypeTableRecord
  2
BORDERTINY
 70
    0
  3
Border (.15x) __.__.__.__.__.__.__.__.__.__.__.
 72
   65
 73
    6
 40
6.6675
 49
1.905
 74
    0
 49
-0.9525
 74
    0
 49
1.905
 74
    0
 49
-0.9525
 74
    0
 49
0
 74
    0
 49
-0.9525
 74
    0
  0
LTYPE
  5
44
330
5
100
AcDbSymbolTableRecord
100
AcDbLinetypeTableRecord
  2
BORDER2
 70
    0
  3
Border (.5x) __.__.__.__.__.__.__.__.__.__.__.
 72
   65
 73
    6
 40
22.225
 49
6.35
 74
    0
 49
-3.175
 74
    0
 49
6.35
 74
    0
 49
-3.175
 74
    0
 49
0
 74
    0
 49
-3.175
 74
    0
  0
LTYPE
  5
45
330
5
100
AcDbSymbolTableRecord
100
AcDbLinetypeTableRecord
  2
BORDERX2
 70
    0
  3
Border (2x) ____  ____  .  ____  ____  .  ___
 72
   65
 73
    6
 40
88.89999999999999
 49
25.4
 74
    0
 49
-12.7
 74
    0
 49
25.4
 74
    0
 49
-12.7
 74
    0
 49
0
 74
    0
 49
-12.7
 74
    0
  0
LTYPE
  5
46
330
5
100
AcDbSymbolTableRecord
100
AcDbLinetypeTableRecord
  2
CENTER
 70
    0
  3
Center ____ _ ____ _ ____ _ ____ _ ____ _ ____
 72
   65
 73
    4
 40
50.8
 49
31.75
 74
    0
 49
-6.35
 74
    0
 49
6.35
 74
    0
 49
-6.35
 74
    0
  0
LTYPE
  5
47
330
5
100
AcDbSymbolTableRecord
100
AcDbLinetypeTableRecord
  2
CENTERTINY
 70
    0
  3
Center (.15x) ___ _ ___ _ ___ _ ___ _ ___ _ ___
 72
   65
 73
    4
 40
7.62
 49
4.7625
 74
    0
 49
-0.9525
 74
    0
 49
0.9525
 74
    0
 49
-0.9525
 74
    0
  0
LTYPE
  5
48
330
5
100
AcDbSymbolTableRecord
100
AcDbLinetypeTableRecord
  2
CENTER2
 70
    0
  3
Center (.5x) ___ _ ___ _ ___ _ ___ _ ___ _ ___
 72
   65
 73
    4
 40
28.575
 49
19.05
 74
    0
 49
-3.175
 74
    0
 49
3.175
 74
    0
 49
-3.175
 74
    0
  0
LTYPE
  5
49
330
5
100
AcDbSymbolTableRecord
100
AcDbLinetypeTableRecord
  2
CENTERX2
 70
    0
  3
Center (2x) ________  __  ________  __  _____
 72
   65
 73
    4
 40
101.6
 49
63.5
 74
    0
 49
-12.7
 74
    0
 49
12.7
 74
    0
 49
-12.7
 74
    0
  0
ENDTAB
  0
TABLE
  2
LAYER
  5
2
330
0
100
AcDbSymbolTable
 70
    1
  0
LAYER
  5
10
330
2
100
AcDbSymbolTableRecord
100
AcDbLayerTableRecord
  2
0
 70
    0
 62
    7
  6
CONTINUOUS
370
   35
390
F
  0
LAYER
  5
4A
330
2
100
AcDbSymbolTableRecord
100
AcDbLayerTableRecord
  2
costruzione
 70
    5
 62
    7
  6
CONTINUOUS
370
    0
390
F
1001
LibreCad
1070
    1
  0
LAYER
  5
4B
330
2
100
AcDbSymbolTableRecord
100
AcDbLayerTableRecord
  2
costruzione fori
 70
    1
 62
    7
  6
CONTINUOUS
370
    0
390
F
1001
LibreCad
1070
    1
  0
LAYER
  5
4C
330
2
100
AcDbSymbolTableRecord
100
AcDbLayerTableRecord
  2
fori
 70
    0
 62
    7
  6
CONTINUOUS
370
   35
390
F
  0
LAYER
  5
4D
330
2
100
AcDbSymbolTableRecord
100
AcDbLayerTableRecord
  2
quote
 70
    0
 62
    7
  6
CONTINUOUS
370
    0
390
F
  0
ENDTAB
  0
TABLE
  2
STYLE
  5
3
330
0
100
AcDbSymbolTable
 70
    3
  0
STYLE
  5
4E
330
2
100
AcDbSymbolTableRecord
100
AcDbTextStyleTableRecord
  2
Standard
 70
    0
 40
0
 41
1
 50
0
 71
    0
 42
1
  3
txt
  4

  0
ENDTAB
  0
TABLE
  2
VIEW
  5
6
330
0
100
AcDbSymbolTable
 70
    0
  0
ENDTAB
  0
TABLE
  2
UCS
  5
7
330
0
100
AcDbSymbolTable
 70
    0
  0
ENDTAB
  0
TABLE
  2
APPID
  5
9
330
0
100
AcDbSymbolTable
 70
    1
  0
APPID
  5
12
330
9
100
AcDbSymbolTableRecord
100
AcDbRegAppTableRecord
  2
ACAD
 70
    0
  0
APPID
  5
4F
330
9
100
AcDbSymbolTableRecord
100
AcDbRegAppTableRecord
  2
LibreCad
 70
    0
  0
ENDTAB
  0
TABLE
  2
DIMSTYLE
  5
A
330
0
100
AcDbSymbolTable
 70
    1
100
AcDbDimStyleTable
 71
    1
  0
DIMSTYLE
105
50
330
A
100
AcDbSymbolTableRecord
100
AcDbDimStyleTableRecord
  2
Standard
 70
    0
 40
1
 41
2.5
 42
0.625
 43
0.38
 44
1.25
 45
0
 46
0
 47
0
 48
0
 49
1
140
2.5
141
0.09
142
0
143
25.4
144
1
145
0
146
1
147
0.625
148
0
 71
    0
 72
    0
 73
    0
 74
    1
 75
    0
 76
    0
 77
    0
 78
    1
 79
    0
170
    0
171
    2
172
    0
173
    0
174
    0
175
    0
176
    0
177
    0
178
    0
179
    2
271
    1
272
    4
273
    2
274
    2
275
    0
276
    0
277
    2
278
    0
279
    0
280
    0
281
    0
282
    0
283
    1
284
    0
285
    0
286
    0
288
    0
289
    3
340
standard
341

371
   -2
372
   -2
  0
ENDTAB
  0
TABLE
  2
BLOCK_RECORD
  5
1
330
0
100
AcDbSymbolTable
 70
    2
  0
BLOCK_RECORD
  5
1F
330
1
100
AcDbSymbolTableRecord
100
AcDbBlockTableRecord
  2
*Model_Space
 70
    0
280
    1
281
    0
  0
BLOCK_RECORD
  5
1E
330
1
100
AcDbSymbolTableRecord
100
AcDbBlockTableRecord
  2
*Paper_Space
 70
    0
280
    1
281
    0
  0
BLOCK_RECORD
  5
51
330
1
100
AcDbSymbolTableRecord
100
AcDbBlockTableRecord
  2
*D22
 70
    0
280
    1
281
    0
  0
BLOCK_RECORD
  5
54
330
1
100
AcDbSymbolTableRecord
100
AcDbBlockTableRecord
  2
*D24
 70
    0
280
    1
281
    0
  0
BLOCK_RECORD
  5
57
330
1
100
AcDbSymbolTableRecord
100
AcDbBlockTableRecord
  2
*D3
 70
    0
280
    1
281
    0
  0
BLOCK_RECORD
  5
5A
330
1
100
AcDbSymbolTableRecord
100
AcDbBlockTableRecord
  2
*D15
 70
    0
280
    1
281
    0
  0
BLOCK_RECORD
  5
5D
330
1
100
AcDbSymbolTableRecord
100
AcDbBlockTableRecord
  2
*D29
 70
    0
280
    1
281
    0
  0
BLOCK_RECORD
  5
60
330
1
100
AcDbSymbolTableRecord
100
AcDbBlockTableRecord
  2
*D8
 70
    0
280
    1
281
    0
  0
BLOCK_RECORD
  5
63
330
1
100
AcDbSymbolTableRecord
100
AcDbBlockTableRecord
  2
*D26
 70
    0
280
    1
281
    0
  0
BLOCK_RECORD
  5
66
330
1
100
AcDbSymbolTableRecord
100
AcDbBlockTableRecord
  2
*D17
 70
    0
280
    1
281
    0
  0
BLOCK_RECORD
  5
69
330
1
100
AcDbSymbolTableRecord
100
AcDbBlockTableRecord
  2
*D11
 70
    0
280
    1
281
    0
  0
BLOCK_RECORD
  5
6C
330
1
100
AcDbSymbolTableRecord
100
AcDbBlockTableRecord
  2
*D2
 70
    0
280
    1
281
    0
  0
BLOCK_RECORD
  5
6F
330
1
100
AcDbSymbolTableRecord
100
AcDbBlockTableRecord
  2
*D14
 70
    0
280
    1
281
    0
  0
BLOCK_RECORD
  5
72
330
1
100
AcDbSymbolTableRecord
100
AcDbBlockTableRecord
  2
*D6
 70
    0
280
    1
281
    0
  0
BLOCK_RECORD
  5
75
330
1
100
AcDbSymbolTableRecord
100
AcDbBlockTableRecord
  2
*D12
 70
    0
280
    1
281
    0
  0
BLOCK_RECORD
  5
78
330
1
100
AcDbSymbolTableRecord
100
AcDbBlockTableRecord
  2
*D27
 70
    0
280
    1
281
    0
  0
BLOCK_RECORD
  5
7B
330
1
100
AcDbSymbolTableRecord
100
AcDbBlockTableRecord
  2
*D19
 70
    0
280
    1
281
    0
  0
BLOCK_RECORD
  5
7E
330
1
100
AcDbSymbolTableRecord
100
AcDbBlockTableRecord
  2
*D30
 70
    0
280
    1
281
    0
  0
BLOCK_RECORD
  5
81
330
1
100
AcDbSymbolTableRecord
100
AcDbBlockTableRecord
  2
*D4
 70
    0
280
    1
281
    0
  0
BLOCK_RECORD
  5
84
330
1
100
AcDbSymbolTableRecord
100
AcDbBlockTableRecord
  2
*D25
 70
    0
280
    1
281
    0
  0
BLOCK_RECORD
  5
87
330
1
100
AcDbSymbolTableRecord
100
AcDbBlockTableRecord
  2
*D13
 70
    0
280
    1
281
    0
  0
BLOCK_RECORD
  5
8A
330
1
100
AcDbSymbolTableRecord
100
AcDbBlockTableRecord
  2
*D16
 70
    0
280
    1
281
    0
  0
BLOCK_RECORD
  5
8D
330
1
100
AcDbSymbolTableRecord
100
AcDbBlockTableRecord
  2
*D5
 70
    0
280
    1
281
    0
  0
BLOCK_RECORD
  5
90
330
1
100
AcDbSymbolTableRecord
100
AcDbBlockTableRecord
  2
*D23
 70
    0
280
    1
281
    0
  0
BLOCK_RECORD
  5
93
330
1
100
AcDbSymbolTableRecord
100
AcDbBlockTableRecord
  2
*D9
 70
    0
280
    1
281
    0
  0
BLOCK_RECORD
  5
96
330
1
100
AcDbSymbolTableRecord
100
AcDbBlockTableRecord
  2
*D18
 70
    0
280
    1
281
    0
  0
BLOCK_RECORD
  5
99
330
1
100
AcDbSymbolTableRecord
100
AcDbBlockTableRecord
  2
*D31
 70
    0
280
    1
281
    0
  0
BLOCK_RECORD
  5
9C
330
1
100
AcDbSymbolTableRecord
100
AcDbBlockTableRecord
  2
*D20
 70
    0
280
    1
281
    0
  0
BLOCK_RECORD
  5
9F
330
1
100
AcDbSymbolTableRecord
100
AcDbBlockTableRecord
  2
*D1
 70
    0
280
    1
281
    0
  0
BLOCK_RECORD
  5
A2
330
1
100
AcDbSymbolTableRecord
100
AcDbBlockTableRecord
  2
*D21
 70
    0
280
    1
281
    0
  0
BLOCK_RECORD
  5
A5
330
1
100
AcDbSymbolTableRecord
100
AcDbBlockTableRecord
  2
*D10
 70
    0
280
    1
281
    0
  0
BLOCK_RECORD
  5
A8
330
1
100
AcDbSymbolTableRecord
100
AcDbBlockTableRecord
  2
*D7
 70
    0
280
    1
281
    0
  0
BLOCK_RECORD
  5
AB
330
1
100
AcDbSymbolTableRecord
100
AcDbBlockTableRecord
  2
*D28
 70
    0
280
    1
281
    0
  0
ENDTAB
  0
ENDSEC
  0
SECTION
  2
BLOCKS
  0
BLOCK
  5
20
330
1F
100
AcDbEntity
  8
0
100
AcDbBlockBegin
  2
*Model_Space
 70
    0
 10
0
 20
0
 30
0
  3
*Model_Space
  1

  0
ENDBLK
  5
21
330
1F
100
AcDbEntity
  8
0
100
AcDbBlockEnd
  0
BLOCK
  5
1C
330
1B
100
AcDbEntity
  8
0
100
AcDbBlockBegin
  2
*Paper_Space
 70
    0
 10
0
 20
0
 30
0
  3
*Paper_Space
  1

  0
ENDBLK
  5
1D
330
1F
100
AcDbEntity
  8
0
100
AcDbBlockEnd
  0
BLOCK
  5
52
330
51
100
AcDbEntity
  8
0
100
AcDbBlockBegin
  2
*D22
 70
    1
 10
0
 20
0
  3
*D22
  1

  0
LINE
  5
AE
100
AcDbEntity
  8
quote
  6
ByBlock
 62
    0
370
   -2
100
AcDbLine
 10
120
 20
-10
 11
190
 21
-10
  0
SOLID
  5
AF
100
AcDbEntity
  8
quote
  6
ByBlock
 62
    0
370
   -2
100
AcDbTrace
 10
120
 20
-10
 30
0
 11
122.5
 21
-9.58371534222716
 31
0
 12
122.5
 22
-10.41628465777284
 32
0
 13
122.5
 23
-10.41628465777284
 33
0
  0
SOLID
  5
B0
100
AcDbEntity
  8
quote
  6
ByBlock
 62
    0
370
   -2
100
AcDbTrace
 10
190
 20
-10
 30
0
 11
187.5
 21
-10.41628465777284
 31
0
 12
187.5
 22
-9.58371534222716
 32
0
 13
187.5
 23
-9.58371534222716
 33
0
  0
MTEXT
  5
B1
100
AcDbEntity
  8
quote
  6
CONTINUOUS
 62
    0
370
   -2
100
AcDbMText
 10
155
 20
-8.125
 30
0
 40
2.5
 41
5.833333333333334
 71
    5
 72
    1
  1
70.0
  7
standard
210
0
220
0
230
1
 50
0
 73
    2
 44
1
  0
LINE
  5
B2
100
AcDbEntity
  8
quote
  6
ByBlock
 62
    0
370
   -2
100
AcDbLine
 10
120
 20
40.375
 11
120
 21
-11.25
  0
LINE
  5
B3
100
AcDbEntity
  8
quote
  6
ByBlock
 62
    0
370
   -2
100
AcDbLine
 10
190
 20
-0.625
 11
190
 21
-11.25
  0
ENDBLK
  5
53
330
51
100
AcDbEntity
  8
0
100
AcDbBlockEnd
  0
BLOCK
  5
55
330
54
100
AcDbEntity
  8
0
100
AcDbBlockBegin
  2
*D24
 70
    1
 10
0
 20
0
  3
*D24
  1

  0
LINE
  5
B4
100
AcDbEntity
  8
quote
  6
ByBlock
 62
    0
370
   -2
100
AcDbLine
 10
82
 20
195
 11
108
 21
195
  0
SOLID
  5
B5
100
AcDbEntity
  8
quote
  6
ByBlock
 62
    0
370
   -2
100
AcDbTrace
 10
82
 20
195
 30
0
 11
84.5
 21
195.4162846577728
 31
0
 12
84.5
 22
194.5837153422272
 32
0
 13
84.5
 23
194.5837153422272
 33
0
  0
SOLID
  5
B6
100
AcDbEntity
  8
quote
  6
ByBlock
 62
    0
370
   -2
100
AcDbTrace
 10
108
 20
195
 30
0
 11
105.5
 21
194.5837153422272
 31
0
 12
105.5
 22
195.4162846577728
 32
0
 13
105.5
 23
195.4162846577728
 33
0
  0
MTEXT
  5
B7
100
AcDbEntity
  8
quote
  6
CONTINUOUS
 62
    0
370
   -2
100
AcDbMText
 10
95
 20
196.875
 30
0
 40
2.5
 41
5.833333333333489
 71
    5
 72
    1
  1
26.0
  7
standard
210
0
220
0
230
1
 50
0
 73
    2
 44
1
  0
LINE
  5
B8
100
AcDbEntity
  8
quote
  6
ByBlock
 62
    0
370
   -2
100
AcDbLine
 10
82
 20
163.625
 11
82
 21
196.25
  0
LINE
  5
B9
100
AcDbEntity
  8
quote
  6
ByBlock
 62
    0
370
   -2
100
AcDbLine
 10
108
 20
163.625
 11
108
 21
196.25
  0
ENDBLK
  5
56
330
54
100
AcDbEntity
  8
0
100
AcDbBlockEnd
  0
BLOCK
  5
58
330
57
100
AcDbEntity
  8
0
100
AcDbBlockBegin
  2
*D3
 70
    1
 10
0
 20
0
  3
*D3
  1

  0
LINE
  5
BA
100
AcDbEntity
  8
quote
  6
ByBlock
 62
    0
370
   -2
100
AcDbLine
 10
111
 20
180
 11
125
 21
180
  0
SOLID
  5
BB
100
AcDbEntity
  8
quote
  6
ByBlock
 62
    0
370
   -2
100
AcDbTrace
 10
116
 20
180
 30
0
 11
113.5
 21
179.5837153422272
 31
0
 12
113.5
 22
180.4162846577728
 32
0
 13
113.5
 23
180.4162846577728
 33
0
  0
SOLID
  5
BC
100
AcDbEntity
  8
quote
  6
ByBlock
 62
    0
370
   -2
100
AcDbTrace
 10
120
 20
180
 30
0
 11
122.5
 21
180.4162846577728
 31
0
 12
122.5
 22
179.5837153422272
 32
0
 13
122.5
 23
179.5837153422272
 33
0
  0
MTEXT
  5
BD
100
AcDbEntity
  8
quote
  6
CONTINUOUS
 62
    0
370
   -2
100
AcDbMText
 10
122.7083333333333
 20
181.875
 30
0
 40
2.5
 41
4.166666666666667
 71
    5
 72
    1
  1
4.0
  7
standard
210
0
220
0
230
1
 50
0
 73
    2
 44
1
  0
LINE
  5
BE
100
AcDbEntity
  8
quote
  6
ByBlock
 62
    0
370
   -2
100
AcDbLine
 10
116
 20
136.625
 11
116
 21
181.25
  0
LINE
  5
BF
100
AcDbEntity
  8
quote
  6
ByBlock
 62
    0
370
   -2
100
AcDbLine
 10
120
 20
136.625
 11
120
 21
181.25
  0
ENDBLK
  5
59
330
57
100
AcDbEntity
  8
0
100
AcDbBlockEnd
  0
BLOCK
  5
5B
330
5A
100
AcDbEntity
  8
0
100
AcDbBlockBegin
  2
*D15
 70
    1
 10
0
 20
0
  3
*D15
  1

  0
LINE
  5
C0
100
AcDbEntity
  8
quote
  6
ByBlock
 62
    0
370
   -2
100
AcDbLine
 10
200
 20
136
 11
200
 21
124
  0
SOLID
  5
C1
100
AcDbEntity
  8
quote
  6
ByBlock
 62
    0
370
   -2
100
AcDbTrace
 10
200
 20
136
 30
0
 11
200.4162846577728
 21
133.5
 31
0
 12
199.5837153422272
 22
133.5
 32
0
 13
199.5837153422272
 23
133.5
 33
0
  0
SOLID
  5
C2
100
AcDbEntity
  8
quote
  6
ByBlock
 62
    0
370
   -2
100
AcDbTrace
 10
200
 20
124
 30
0
 11
199.5837153422272
 21
126.5
 31
0
 12
200.4162846577728
 22
126.5
 32
0
 13
200.4162846577728
 23
126.5
 33
0
  0
MTEXT
  5
C3
100
AcDbEntity
  8
quote
  6
CONTINUOUS
 62
    0
370
   -2
100
AcDbMText
 10
198.125
 20
130
 30
0
 40
2.5
 41
5.277777777777778
 71
    5
 72
    1
  1
12.0
  7
standard
210
0
220
0
230
1
 50
90
 73
    2
 44
1
  0
LINE
  5
C4
100
AcDbEntity
  8
quote
  6
ByBlock
 62
    0
370
   -2
100
AcDbLine
 10
74.625
 20
136
 11
201.25
 21
136
  0
LINE
  5
C5
100
AcDbEntity
  8
quote
  6
ByBlock
 62
    0
370
   -2
100
AcDbLine
 10
86.625
 20
124
 11
201.25
 21
124
  0
ENDBLK
  5
5C
330
5A
100
AcDbEntity
  8
0
100
AcDbBlockEnd
  0
BLOCK
  5
5E
330
5D
100
AcDbEntity
  8
0
100
AcDbBlockBegin
  2
*D29
 70
    1
 10
0
 20
0
  3
*D29
  1

  0
LINE
  5
C6
100
AcDbEntity
  8
quote
  6
ByBlock
 62
    0
370
   -2
100
AcDbLine
 10
65.05025253169417
 20
45.94974746830584
 11
74.94974746830583
 21
36.05025253169416
  0
SOLID
  5
C7
100
AcDbEntity
  8
quote
  6
ByBlock
 62
    0
370
   -2
100
AcDbTrace
 10
68.58578643762691
 20
42.4142135623731
 30
0
 11
66.52366178024545
 21
43.88762281092438
 31
0
 12
67.11237718907564
 22
44.47633821975457
 32
0
 13
67.11237718907564
 23
44.47633821975457
 33
0
  0
SOLID
  5
C8
100
AcDbEntity
  8
quote
  6
ByBlock
 62
    0
370
   -2
100
AcDbTrace
 10
71.41421356237309
 20
39.58578643762691
 30
0
 11
73.47633821975455
 21
38.11237718907563
 31
0
 12
72.88762281092436
 22
37.52366178024544
 32
0
 13
72.88762281092436
 23
37.52366178024544
 33
0
  0
MTEXT
  5
C9
100
AcDbEntity
  8
quote
  6
CONTINUOUS
 62
    0
370
   -2
100
AcDbMText
 10
74.65511964281143
 20
38.99653078663811
 30
0
 40
2.5
 41
4.166666666666667
 71
    5
 72
    1
  1
4.0
  7
standard
210
0
220
0
230
1
 50
314.9999999999999
 73
    2
 44
1
  0
ENDBLK
  5
5F
330
5D
100
AcDbEntity
  8
0
100
AcDbBlockEnd
  0
BLOCK
  5
61
330
60
100
AcDbEntity
  8
0
100
AcDbBlockBegin
  2
*D8
 70
    1
 10
0
 20
0
  3
*D8
  1

  0
LINE
  5
CA
100
AcDbEntity
  8
quote
  6
ByBlock
 62
    0
370
   -2
100
AcDbLine
 10
0
 20
190
 11
190
 21
190
  0
SOLID
  5
CB
100
AcDbEntity
  8
quote
  6
ByBlock
 62
    0
370
   -2
100
AcDbTrace
 10
0
 20
190
 30
0
 11
2.5
 21
190.4162846577728
 31
0
 12
2.5
 22
189.5837153422272
 32
0
 13
2.5
 23
189.5837153422272
 33
0
  0
SOLID
  5
CC
100
AcDbEntity
  8
quote
  6
ByBlock
 62
    0
370
   -2
100
AcDbTrace
 10
190
 20
190
 30
0
 11
187.5
 21
189.5837153422272
 31
0
 12
187.5
 22
190.4162846577728
 32
0
 13
187.5
 23
190.4162846577728
 33
0
  0
MTEXT
  5
CD
100
AcDbEntity
  8
quote
  6
CONTINUOUS
 62
    0
370
   -2
100
AcDbMText
 10
95
 20
191.875
 30
0
 40
2.5
 41
7.222222222222222
 71
    5
 72
    1
  1
190.0
  7
standard
210
0
220
0
230
1
 50
0
 73
    2
 44
1
  0
LINE
  5
CE
100
AcDbEntity
  8
quote
  6
ByBlock
 62
    0
370
   -2
100
AcDbLine
 10
3.826894855694929e-017
 20
55.625
 11
7.653789711389858e-017
 21
191.25
  0
LINE
  5
CF
100
AcDbEntity
  8
quote
  6
ByBlock
 62
    0
370
   -2
100
AcDbLine
 10
190
 20
55.625
 11
190
 21
191.25
  0
ENDBLK
  5
62
330
60
100
AcDbEntity
  8
0
100
AcDbBlockEnd
  0
BLOCK
  5
64
330
63
100
AcDbEntity
  8
0
100
AcDbBlockBegin
  2
*D26
 70
    1
 10
0
 20
0
  3
*D26
  1

  0
LINE
  5
D0
100
AcDbEntity
  8
quote
  6
ByBlock
 62
    0
370
   -2
100
AcDbLine
 10
50
 20
163
 11
50
 21
170
  0
SOLID
  5
D1
100
AcDbEntity
  8
quote
  6
ByBlock
 62
    0
370
   -2
100
AcDbTrace
 10
50
 20
163
 30
0
 11
49.58371534222716
 21
165.5
 31
0
 12
50.41628465777284
 22
165.5
 32
0
 13
50.41628465777284
 23
165.5
 33
0
  0
SOLID
  5
D2
100
AcDbEntity
  8
quote
  6
ByBlock
 62
    0
370
   -2
100
AcDbTrace
 10
50
 20
170
 30
0
 11
50.41628465777284
 21
167.5
 31
0
 12
49.58371534222716
 22
167.5
 32
0
 13
49.58371534222716
 23
167.5
 33
0
  0
MTEXT
  5
D3
100
AcDbEntity
  8
quote
  6
CONTINUOUS
 62
    0
370
   -2
100
AcDbMText
 10
48.125
 20
166.5
 30
0
 40
2.5
 41
3.888888888888889
 71
    5
 72
    1
  1
7.0
  7
standard
210
0
220
0
230
1
 50
90
 73
    2
 44
1
  0
LINE
  5
D4
100
AcDbEntity
  8
quote
  6
ByBlock
 62
    0
370
   -2
100
AcDbLine
 10
81.375
 20
163
 11
48.75
 21
163
  0
LINE
  5
D5
100
AcDbEntity
  8
quote
  6
ByBlock
 62
    0
370
   -2
100
AcDbLine
 10
59.375
 20
170
 11
48.75
 21
170
  0
ENDBLK
  5
65
330
63
100
AcDbEntity
  8
0
100
AcDbBlockEnd
  0
BLOCK
  5
67
330
66
100
AcDbEntity
  8
0
100
AcDbBlockBegin
  2
*D17
 70
    1
 10
0
 20
0
  3
*D17
  1

  0
LINE
  5
D6
100
AcDbEntity
  8
quote
  6
ByBlock
 62
    0
370
   -2
100
AcDbLine
 10
206
 20
170
 11
206
 21
120
  0
SOLID
  5
D7
100
AcDbEntity
  8
quote
  6
ByBlock
 62
    0
370
   -2
100
AcDbTrace
 10
206
 20
170
 30
0
 11
206.4162846577728
 21
167.5
 31
0
 12
205.5837153422272
 22
167.5
 32
0
 13
205.5837153422272
 23
167.5
 33
0
  0
SOLID
  5
D8
100
AcDbEntity
  8
quote
  6
ByBlock
 62
    0
370
   -2
100
AcDbTrace
 10
206
 20
120
 30
0
 11
205.5837153422272
 21
122.5
 31
0
 12
206.4162846577728
 22
122.5
 32
0
 13
206.4162846577728
 23
122.5
 33
0
  0
MTEXT
  5
D9
100
AcDbEntity
  8
quote
  6
CONTINUOUS
 62
    0
370
   -2
100
AcDbMText
 10
204.125
 20
145
 30
0
 40
2.5
 41
5.833333333333488
 71
    5
 72
    1
  1
50.0
  7
standard
210
0
220
0
230
1
 50
90
 73
    2
 44
1
  0
LINE
  5
DA
100
AcDbEntity
  8
quote
  6
ByBlock
 62
    0
370
   -2
100
AcDbLine
 10
70.625
 20
170
 11
207.25
 21
170
  0
LINE
  5
DB
100
AcDbEntity
  8
quote
  6
ByBlock
 62
    0
370
   -2
100
AcDbLine
 10
86.625
 20
120
 11
207.25
 21
120
  0
ENDBLK
  5
68
330
66
100
AcDbEntity
  8
0
100
AcDbBlockEnd
  0
BLOCK
  5
6A
330
69
100
AcDbEntity
  8
0
100
AcDbBlockBegin
  2
*D11
 70
    1
 10
0
 20
0
  3
*D11
  1

  0
LINE
  5
DC
100
AcDbEntity
  8
quote
  6
ByBlock
 62
    0
370
   -2
100
AcDbLine
 10
65
 20
180
 11
79
 21
180
  0
SOLID
  5
DD
100
AcDbEntity
  8
quote
  6
ByBlock
 62
    0
370
   -2
100
AcDbTrace
 10
70
 20
180
 30
0
 11
67.5
 21
179.5837153422272
 31
0
 12
67.5
 22
180.4162846577728
 32
0
 13
67.5
 23
180.4162846577728
 33
0
  0
SOLID
  5
DE
100
AcDbEntity
  8
quote
  6
ByBlock
 62
    0
370
   -2
100
AcDbTrace
 10
74
 20
180
 30
0
 11
76.5
 21
180.4162846577728
 31
0
 12
76.5
 22
179.5837153422272
 32
0
 13
76.5
 23
179.5837153422272
 33
0
  0
MTEXT
  5
DF
100
AcDbEntity
  8
quote
  6
CONTINUOUS
 62
    0
370
   -2
100
AcDbMText
 10
76.70833333333333
 20
181.875
 30
0
 40
2.5
 41
4.166666666666667
 71
    5
 72
    1
  1
4.0
  7
standard
210
0
220
0
230
1
 50
0
 73
    2
 44
1
  0
LINE
  5
E0
100
AcDbEntity
  8
quote
  6
ByBlock
 62
    0
370
   -2
100
AcDbLine
 10
70
 20
136.625
 11
70
 21
181.25
  0
LINE
  5
E1
100
AcDbEntity
  8
quote
  6
ByBlock
 62
    0
370
   -2
100
AcDbLine
 10
74
 20
136.625
 11
74
 21
181.25
  0
ENDBLK
  5
6B
330
69
100
AcDbEntity
  8
0
100
AcDbBlockEnd
  0
BLOCK
  5
6D
330
6C
100
AcDbEntity
  8
0
100
AcDbBlockBegin
  2
*D2
 70
    1
 10
0
 20
0
  3
*D2
  1

  0
LINE
  5
E2
100
AcDbEntity
  8
quote
  6
ByBlock
 62
    0
370
   -2
100
AcDbLine
 10
104
 20
175
 11
116
 21
175
  0
SOLID
  5
E3
100
AcDbEntity
  8
quote
  6
ByBlock
 62
    0
370
   -2
100
AcDbTrace
 10
104
 20
175
 30
0
 11
106.5
 21
175.4162846577728
 31
0
 12
106.5
 22
174.5837153422272
 32
0
 13
106.5
 23
174.5837153422272
 33
0
  0
SOLID
  5
E4
100
AcDbEntity
  8
quote
  6
ByBlock
 62
    0
370
   -2
100
AcDbTrace
 10
116
 20
175
 30
0
 11
113.5
 21
174.5837153422272
 31
0
 12
113.5
 22
175.4162846577728
 32
0
 13
113.5
 23
175.4162846577728
 33
0
  0
MTEXT
  5
E5
100
AcDbEntity
  8
quote
  6
CONTINUOUS
 62
    0
370
   -2
100
AcDbMText
 10
110
 20
176.875
 30
0
 40
2.5
 41
5.277777777777778
 71
    5
 72
    1
  1
12.0
  7
standard
210
0
220
0
230
1
 50
0
 73
    2
 44
1
  0
LINE
  5
E6
100
AcDbEntity
  8
quote
  6
ByBlock
 62
    0
370
   -2
100
AcDbLine
 10
104
 20
124.625
 11
104
 21
176.25
  0
LINE
  5
E7
100
AcDbEntity
  8
quote
  6
ByBlock
 62
    0
370
   -2
100
AcDbLine
 10
116
 20
136.625
 11
116
 21
176.25
  0
ENDBLK
  5
6E
330
6C
100
AcDbEntity
  8
0
100
AcDbBlockEnd
  0
BLOCK
  5
70
330
6F
100
AcDbEntity
  8
0
100
AcDbBlockBegin
  2
*D14
 70
    1
 10
0
 20
0
  3
*D14
  1

  0
LINE
  5
E8
100
AcDbEntity
  8
quote
  6
ByBlock
 62
    0
370
   -2
100
AcDbLine
 10
200
 20
154
 11
200
 21
136
  0
SOLID
  5
E9
100
AcDbEntity
  8
quote
  6
ByBlock
 62
    0
370
   -2
100
AcDbTrace
 10
200
 20
154
 30
0
 11
200.4162846577728
 21
151.5
 31
0
 12
199.5837153422272
 22
151.5
 32
0
 13
199.5837153422272
 23
151.5
 33
0
  0
SOLID
  5
EA
100
AcDbEntity
  8
quote
  6
ByBlock
 62
    0
370
   -2
100
AcDbTrace
 10
200
 20
136
 30
0
 11
199.5837153422272
 21
138.5
 31
0
 12
200.4162846577728
 22
138.5
 32
0
 13
200.4162846577728
 23
138.5
 33
0
  0
MTEXT
  5
EB
100
AcDbEntity
  8
quote
  6
CONTINUOUS
 62
    0
370
   -2
100
AcDbMText
 10
198.125
 20
145
 30
0
 40
2.5
 41
5.277777777777778
 71
    5
 72
    1
  1
18.0
  7
standard
210
0
220
0
230
1
 50
90
 73
    2
 44
1
  0
LINE
  5
EC
100
AcDbEntity
  8
quote
  6
ByBlock
 62
    0
370
   -2
100
AcDbLine
 10
74.625
 20
154
 11
201.25
 21
154
  0
LINE
  5
ED
100
AcDbEntity
  8
quote
  6
ByBlock
 62
    0
370
   -2
100
AcDbLine
 10
74.625
 20
136
 11
201.25
 21
136
  0
ENDBLK
  5
71
330
6F
100
AcDbEntity
  8
0
100
AcDbBlockEnd
  0
BLOCK
  5
73
330
72
100
AcDbEntity
  8
0
100
AcDbBlockBegin
  2
*D6
 70
    1
 10
0
 20
0
  3
*D6
  1

  0
LINE
  5
EE
100
AcDbEntity
  8
quote
  6
ByBlock
 62
    0
370
   -2
100
AcDbLine
 10
60
 20
185
 11
130
 21
185
  0
SOLID
  5
EF
100
AcDbEntity
  8
quote
  6
ByBlock
 62
    0
370
   -2
100
AcDbTrace
 10
60
 20
185
 30
0
 11
62.5
 21
185.4162846577728
 31
0
 12
62.5
 22
184.5837153422272
 32
0
 13
62.5
 23
184.5837153422272
 33
0
  0
SOLID
  5
F0
100
AcDbEntity
  8
quote
  6
ByBlock
 62
    0
370
   -2
100
AcDbTrace
 10
130
 20
185
 30
0
 11
127.5
 21
184.5837153422272
 31
0
 12
127.5
 22
185.4162846577728
 32
0
 13
127.5
 23
185.4162846577728
 33
0
  0
MTEXT
  5
F1
100
AcDbEntity
  8
quote
  6
CONTINUOUS
 62
    0
370
   -2
100
AcDbMText
 10
95
 20
186.875
 30
0
 40
2.5
 41
5.833333333333334
 71
    5
 72
    1
  1
70.0
  7
standard
210
0
220
0
230
1
 50
0
 73
    2
 44
1
  0
LINE
  5
F2
100
AcDbEntity
  8
quote
  6
ByBlock
 62
    0
370
   -2
100
AcDbLine
 10
60
 20
170.625
 11
60
 21
186.25
  0
LINE
  5
F3
100
AcDbEntity
  8
quote
  6
ByBlock
 62
    0
370
   -2
100
AcDbLine
 10
130
 20
170.625
 11
130
 21
186.25
  0
ENDBLK
  5
74
330
72
100
AcDbEntity
  8
0
100
AcDbBlockEnd
  0
BLOCK
  5
76
330
75
100
AcDbEntity
  8
0
100
AcDbBlockBegin
  2
*D12
 70
    1
 10
0
 20
0
  3
*D12
  1

  0
LINE
  5
F4
100
AcDbEntity
  8
quote
  6
ByBlock
 62
    0
370
   -2
100
AcDbLine
 10
200
 20
175
 11
200
 21
161
  0
SOLID
  5
F5
100
AcDbEntity
  8
quote
  6
ByBlock
 62
    0
370
   -2
100
AcDbTrace
 10
200
 20
170
 30
0
 11
199.5837153422272
 21
172.5
 31
0
 12
200.4162846577728
 22
172.5
 32
0
 13
200.4162846577728
 23
172.5
 33
0
  0
SOLID
  5
F6
100
AcDbEntity
  8
quote
  6
ByBlock
 62
    0
370
   -2
100
AcDbTrace
 10
200
 20
166
 30
0
 11
200.4162846577728
 21
163.5
 31
0
 12
199.5837153422272
 22
163.5
 32
0
 13
199.5837153422272
 23
163.5
 33
0
  0
MTEXT
  5
F7
100
AcDbEntity
  8
quote
  6
CONTINUOUS
 62
    0
370
   -2
100
AcDbMText
 10
198.125
 20
172.7083333333333
 30
0
 40
2.5
 41
4.166666666666667
 71
    5
 72
    1
  1
4.0
  7
standard
210
0
220
0
230
1
 50
90
 73
    2
 44
1
  0
LINE
  5
F8
100
AcDbEntity
  8
quote
  6
ByBlock
 62
    0
370
   -2
100
AcDbLine
 10
70.625
 20
170
 11
201.25
 21
170
  0
LINE
  5
F9
100
AcDbEntity
  8
quote
  6
ByBlock
 62
    0
370
   -2
100
AcDbLine
 10
116.625
 20
166
 11
201.25
 21
166
  0
ENDBLK
  5
77
330
75
100
AcDbEntity
  8
0
100
AcDbBlockEnd
  0
BLOCK
  5
79
330
78
100
AcDbEntity
  8
0
100
AcDbBlockBegin
  2
*D27
 70
    1
 10
0
 20
0
  3
*D27
  1

  0
LINE
  5
FA
100
AcDbEntity
  8
quote
  6
ByBlock
 62
    0
370
   -2
100
AcDbLine
 10
200
 20
41
 11
200
 21
0
  0
SOLID
  5
FB
100
AcDbEntity
  8
quote
  6
ByBlock
 62
    0
370
   -2
100
AcDbTrace
 10
200
 20
41
 30
0
 11
200.4162846577728
 21
38.5
 31
0
 12
199.5837153422272
 22
38.5
 32
0
 13
199.5837153422272
 23
38.5
 33
0
  0
SOLID
  5
FC
100
AcDbEntity
  8
quote
  6
ByBlock
 62
    0
370
   -2
100
AcDbTrace
 10
200
 20
0
 30
0
 11
199.5837153422272
 21
2.5
 31
0
 12
200.4162846577728
 22
2.5
 32
0
 13
200.4162846577728
 23
2.5
 33
0
  0
MTEXT
  5
FD
100
AcDbEntity
  8
quote
  6
CONTINUOUS
 62
    0
370
   -2
100
AcDbMText
 10
198.125
 20
20.5
 30
0
 40
2.5
 41
5.555555555555555
 71
    5
 72
    1
  1
41.0
  7
standard
210
0
220
0
230
1
 50
90
 73
    2
 44
1
  0
LINE
  5
FE
100
AcDbEntity
  8
quote
  6
ByBlock
 62
    0
370
   -2
100
AcDbLine
 10
70.625
 20
41
 11
201.25
 21
41
  0
LINE
  5
FF
100
AcDbEntity
  8
quote
  6
ByBlock
 62
    0
370
   -2
100
AcDbLine
 10
190.625
 20
0
 11
201.25
 21
0
  0
ENDBLK
  5
7A
330
78
100
AcDbEntity
  8
0
100
AcDbBlockEnd
  0
BLOCK
  5
7C
330
7B
100
AcDbEntity
  8
0
100
AcDbBlockBegin
  2
*D19
 70
    1
 10
0
 20
0
  3
*D19
  1

  0
LINE
  5
100
100
AcDbEntity
  8
quote
  6
ByBlock
 62
    0
370
   -2
100
AcDbLine
 10
210
 20
55
 11
210
 21
0
  0
SOLID
  5
101
100
AcDbEntity
  8
quote
  6
ByBlock
 62
    0
370
   -2
100
AcDbTrace
 10
210
 20
55
 30
0
 11
210.4162846577728
 21
52.5
 31
0
 12
209.5837153422272
 22
52.5
 32
0
 13
209.5837153422272
 23
52.5
 33
0
  0
SOLID
  5
102
100
AcDbEntity
  8
quote
  6
ByBlock
 62
    0
370
   -2
100
AcDbTrace
 10
210
 20
0
 30
0
 11
209.5837153422272
 21
2.5
 31
0
 12
210.4162846577728
 22
2.5
 32
0
 13
210.4162846577728
 23
2.5
 33
0
  0
MTEXT
  5
103
100
AcDbEntity
  8
quote
  6
CONTINUOUS
 62
    0
370
   -2
100
AcDbMText
 10
208.125
 20
27.5
 30
0
 40
2.5
 41
5.833333333333643
 71
    5
 72
    1
  1
55.0
  7
standard
210
0
220
0
230
1
 50
90
 73
    2
 44
1
  0
LINE
  5
104
100
AcDbEntity
  8
quote
  6
ByBlock
 62
    0
370
   -2
100
AcDbLine
 10
0.625
 20
55
 11
211.25
 21
55
  0
LINE
  5
105
100
AcDbEntity
  8
quote
  6
ByBlock
 62
    0
370
   -2
100
AcDbLine
 10
190.625
 20
0
 11
211.25
 21
0
  0
ENDBLK
  5
7D
330
7B
100
AcDbEntity
  8
0
100
AcDbBlockEnd
  0
BLOCK
  5
7F
330
7E
100
AcDbEntity
  8
0
100
AcDbBlockBegin
  2
*D30
 70
    1
 10
0
 20
0
  3
*D30
  1

  0
LINE
  5
106
100
AcDbEntity
  8
quote
  6
ByBlock
 62
    0
370
   -2
100
AcDbLine
 10
77.79999999999998
 20
168.6
 11
86.20000000000002
 21
157.4
  0
SOLID
  5
107
100
AcDbEntity
  8
quote
  6
ByBlock
 62
    0
370
   -2
100
AcDbTrace
 10
80.8
 20
164.6
 30
0
 11
78.96697227378172
 21
166.3502292053363
 31
0
 12
79.63302772621826
 22
166.8497707946637
 32
0
 13
79.63302772621826
 23
166.8497707946637
 33
0
  0
SOLID
  5
108
100
AcDbEntity
  8
quote
  6
ByBlock
 62
    0
370
   -2
100
AcDbTrace
 10
83.2
 20
161.4
 30
0
 11
85.03302772621828
 21
159.6497707946637
 31
0
 12
84.36697227378174
 22
159.1502292053363
 32
0
 13
84.36697227378174
 23
159.1502292053363
 33
0
  0
MTEXT
  5
109
100
AcDbEntity
  8
quote
  6
CONTINUOUS
 62
    0
370
   -2
100
AcDbMText
 10
86.325
 20
160.3583333333333
 30
0
 40
2.5
 41
4.166666666666667
 71
    5
 72
    1
  1
4.0
  7
standard
210
0
220
0
230
1
 50
306.8698976458442
 73
    2
 44
1
  0
ENDBLK
  5
80
330
7E
100
AcDbEntity
  8
0
100
AcDbBlockEnd
  0
BLOCK
  5
82
330
81
100
AcDbEntity
  8
0
100
AcDbBlockBegin
  2
*D4
 70
    1
 10
0
 20
0
  3
*D4
  1

  0
LINE
  5
10A
100
AcDbEntity
  8
quote
  6
ByBlock
 62
    0
370
   -2
100
AcDbLine
 10
120
 20
175
 11
130
 21
175
  0
SOLID
  5
10B
100
AcDbEntity
  8
quote
  6
ByBlock
 62
    0
370
   -2
100
AcDbTrace
 10
120
 20
175
 30
0
 11
122.5
 21
175.4162846577728
 31
0
 12
122.5
 22
174.5837153422272
 32
0
 13
122.5
 23
174.5837153422272
 33
0
  0
SOLID
  5
10C
100
AcDbEntity
  8
quote
  6
ByBlock
 62
    0
370
   -2
100
AcDbTrace
 10
130
 20
175
 30
0
 11
127.5
 21
174.5837153422272
 31
0
 12
127.5
 22
175.4162846577728
 32
0
 13
127.5
 23
175.4162846577728
 33
0
  0
MTEXT
  5
10D
100
AcDbEntity
  8
quote
  6
CONTINUOUS
 62
    0
370
   -2
100
AcDbMText
 10
125
 20
176.875
 30
0
 40
2.5
 41
5.277777777777778
 71
    5
 72
    1
  1
10.0
  7
standard
210
0
220
0
230
1
 50
0
 73
    2
 44
1
  0
LINE
  5
10E
100
AcDbEntity
  8
quote
  6
ByBlock
 62
    0
370
   -2
100
AcDbLine
 10
120
 20
136.625
 11
120
 21
176.25
  0
LINE
  5
10F
100
AcDbEntity
  8
quote
  6
ByBlock
 62
    0
370
   -2
100
AcDbLine
 10
130
 20
170.625
 11
130
 21
176.25
  0
ENDBLK
  5
83
330
81
100
AcDbEntity
  8
0
100
AcDbBlockEnd
  0
BLOCK
  5
85
330
84
100
AcDbEntity
  8
0
100
AcDbBlockBegin
  2
*D25
 70
    1
 10
0
 20
0
  3
*D25
  1

  0
LINE
  5
110
100
AcDbEntity
  8
quote
  6
ByBlock
 62
    0
370
   -2
100
AcDbLine
 10
108
 20
195
 11
130
 21
195
  0
SOLID
  5
111
100
AcDbEntity
  8
quote
  6
ByBlock
 62
    0
370
   -2
100
AcDbTrace
 10
108
 20
195
 30
0
 11
110.5
 21
195.4162846577728
 31
0
 12
110.5
 22
194.5837153422272
 32
0
 13
110.5
 23
194.5837153422272
 33
0
  0
SOLID
  5
112
100
AcDbEntity
  8
quote
  6
ByBlock
 62
    0
370
   -2
100
AcDbTrace
 10
130
 20
195
 30
0
 11
127.5
 21
194.5837153422272
 31
0
 12
127.5
 22
195.4162846577728
 32
0
 13
127.5
 23
195.4162846577728
 33
0
  0
MTEXT
  5
113
100
AcDbEntity
  8
quote
  6
CONTINUOUS
 62
    0
370
   -2
100
AcDbMText
 10
119
 20
196.875
 30
0
 40
2.5
 41
5.833333333333334
 71
    5
 72
    1
  1
22.0
  7
standard
210
0
220
0
230
1
 50
0
 73
    2
 44
1
  0
LINE
  5
114
100
AcDbEntity
  8
quote
  6
ByBlock
 62
    0
370
   -2
100
AcDbLine
 10
108
 20
163.625
 11
108
 21
196.25
  0
LINE
  5
115
100
AcDbEntity
  8
quote
  6
ByBlock
 62
    0
370
   -2
100
AcDbLine
 10
130
 20
170.625
 11
130
 21
196.25
  0
ENDBLK
  5
86
330
84
100
AcDbEntity
  8
0
100
AcDbBlockEnd
  0
BLOCK
  5
88
330
87
100
AcDbEntity
  8
0
100
AcDbBlockBegin
  2
*D13
 70
    1
 10
0
 20
0
  3
*D13
  1

  0
LINE
  5
116
100
AcDbEntity
  8
quote
  6
ByBlock
 62
    0
370
   -2
100
AcDbLine
 10
200
 20
166
 11
200
 21
154
  0
SOLID
  5
117
100
AcDbEntity
  8
quote
  6
ByBlock
 62
    0
370
   -2
100
AcDbTrace
 10
200
 20
166
 30
0
 11
200.4162846577728
 21
163.5
 31
0
 12
199.5837153422272
 22
163.5
 32
0
 13
199.5837153422272
 23
163.5
 33
0
  0
SOLID
  5
118
100
AcDbEntity
  8
quote
  6
ByBlock
 62
    0
370
   -2
100
AcDbTrace
 10
200
 20
154
 30
0
 11
199.5837153422272
 21
156.5
 31
0
 12
200.4162846577728
 22
156.5
 32
0
 13
200.4162846577728
 23
156.5
 33
0
  0
MTEXT
  5
119
100
AcDbEntity
  8
quote
  6
CONTINUOUS
 62
    0
370
   -2
100
AcDbMText
 10
198.125
 20
160
 30
0
 40
2.5
 41
5.277777777777778
 71
    5
 72
    1
  1
12.0
  7
standard
210
0
220
0
230
1
 50
90
 73
    2
 44
1
  0
LINE
  5
11A
100
AcDbEntity
  8
quote
  6
ByBlock
 62
    0
370
   -2
100
AcDbLine
 10
86.625
 20
166
 11
201.25
 21
166
  0
LINE
  5
11B
100
AcDbEntity
  8
quote
  6
ByBlock
 62
    0
370
   -2
100
AcDbLine
 10
74.625
 20
154
 11
201.25
 21
154
  0
ENDBLK
  5
89
330
87
100
AcDbEntity
  8
0
100
AcDbBlockEnd
  0
BLOCK
  5
8B
330
8A
100
AcDbEntity
  8
0
100
AcDbBlockBegin
  2
*D16
 70
    1
 10
0
 20
0
  3
*D16
  1

  0
LINE
  5
11C
100
AcDbEntity
  8
quote
  6
ByBlock
 62
    0
370
   -2
100
AcDbLine
 10
200
 20
129
 11
200
 21
115
  0
SOLID
  5
11D
100
AcDbEntity
  8
quote
  6
ByBlock
 62
    0
370
   -2
100
AcDbTrace
 10
200
 20
124
 30
0
 11
199.5837153422272
 21
126.5
 31
0
 12
200.4162846577728
 22
126.5
 32
0
 13
200.4162846577728
 23
126.5
 33
0
  0
SOLID
  5
11E
100
AcDbEntity
  8
quote
  6
ByBlock
 62
    0
370
   -2
100
AcDbTrace
 10
200
 20
120
 30
0
 11
200.4162846577728
 21
117.5
 31
0
 12
199.5837153422272
 22
117.5
 32
0
 13
199.5837153422272
 23
117.5
 33
0
  0
MTEXT
  5
11F
100
AcDbEntity
  8
quote
  6
CONTINUOUS
 62
    0
370
   -2
100
AcDbMText
 10
198.125
 20
126.7083333333333
 30
0
 40
2.5
 41
4.166666666666667
 71
    5
 72
    1
  1
4.0
  7
standard
210
0
220
0
230
1
 50
90
 73
    2
 44
1
  0
LINE
  5
120
100
AcDbEntity
  8
quote
  6
ByBlock
 62
    0
370
   -2
100
AcDbLine
 10
86.625
 20
124
 11
201.25
 21
124
  0
LINE
  5
121
100
AcDbEntity
  8
quote
  6
ByBlock
 62
    0
370
   -2
100
AcDbLine
 10
86.625
 20
120
 11
201.25
 21
120
  0
ENDBLK
  5
8C
330
8A
100
AcDbEntity
  8
0
100
AcDbBlockEnd
  0
BLOCK
  5
8E
330
8D
100
AcDbEntity
  8
0
100
AcDbBlockBegin
  2
*D5
 70
    1
 10
0
 20
0
  3
*D5
  1

  0
LINE
  5
122
100
AcDbEntity
  8
quote
  6
ByBlock
 62
    0
370
   -2
100
AcDbLine
 10
0
 20
185
 11
60
 21
185
  0
SOLID
  5
123
100
AcDbEntity
  8
quote
  6
ByBlock
 62
    0
370
   -2
100
AcDbTrace
 10
0
 20
185
 30
0
 11
2.5
 21
185.4162846577728
 31
0
 12
2.5
 22
184.5837153422272
 32
0
 13
2.5
 23
184.5837153422272
 33
0
  0
SOLID
  5
124
100
AcDbEntity
  8
quote
  6
ByBlock
 62
    0
370
   -2
100
AcDbTrace
 10
60
 20
185
 30
0
 11
57.5
 21
184.5837153422272
 31
0
 12
57.5
 22
185.4162846577728
 32
0
 13
57.5
 23
185.4162846577728
 33
0
  0
MTEXT
  5
125
100
AcDbEntity
  8
quote
  6
CONTINUOUS
 62
    0
370
   -2
100
AcDbMText
 10
30
 20
186.875
 30
0
 40
2.5
 41
5.833333333333488
 71
    5
 72
    1
  1
60.0
  7
standard
210
0
220
0
230
1
 50
0
 73
    2
 44
1
  0
LINE
  5
126
100
AcDbEntity
  8
quote
  6
ByBlock
 62
    0
370
   -2
100
AcDbLine
 10
3.826894855694929e-017
 20
0.625
 11
7.653789711389858e-017
 21
186.25
  0
LINE
  5
127
100
AcDbEntity
  8
quote
  6
ByBlock
 62
    0
370
   -2
100
AcDbLine
 10
60
 20
170.625
 11
60
 21
186.25
  0
ENDBLK
  5
8F
330
8D
100
AcDbEntity
  8
0
100
AcDbBlockEnd
  0
BLOCK
  5
91
330
90
100
AcDbEntity
  8
0
100
AcDbBlockBegin
  2
*D23
 70
    1
 10
0
 20
0
  3
*D23
  1

  0
LINE
  5
128
100
AcDbEntity
  8
quote
  6
ByBlock
 62
    0
370
   -2
100
AcDbLine
 10
60
 20
195
 11
82
 21
195
  0
SOLID
  5
129
100
AcDbEntity
  8
quote
  6
ByBlock
 62
    0
370
   -2
100
AcDbTrace
 10
60
 20
195
 30
0
 11
62.5
 21
195.4162846577728
 31
0
 12
62.5
 22
194.5837153422272
 32
0
 13
62.5
 23
194.5837153422272
 33
0
  0
SOLID
  5
12A
100
AcDbEntity
  8
quote
  6
ByBlock
 62
    0
370
   -2
100
AcDbTrace
 10
82
 20
195
 30
0
 11
79.5
 21
194.5837153422272
 31
0
 12
79.5
 22
195.4162846577728
 32
0
 13
79.5
 23
195.4162846577728
 33
0
  0
MTEXT
  5
12B
100
AcDbEntity
  8
quote
  6
CONTINUOUS
 62
    0
370
   -2
100
AcDbMText
 10
71
 20
196.875
 30
0
 40
2.5
 41
5.833333333333334
 71
    5
 72
    1
  1
22.0
  7
standard
210
0
220
0
230
1
 50
0
 73
    2
 44
1
  0
LINE
  5
12C
100
AcDbEntity
  8
quote
  6
ByBlock
 62
    0
370
   -2
100
AcDbLine
 10
60
 20
170.625
 11
60
 21
196.25
  0
LINE
  5
12D
100
AcDbEntity
  8
quote
  6
ByBlock
 62
    0
370
   -2
100
AcDbLine
 10
82
 20
162.625
 11
82
 21
196.25
  0
ENDBLK
  5
92
330
90
100
AcDbEntity
  8
0
100
AcDbBlockEnd
  0
BLOCK
  5
94
330
93
100
AcDbEntity
  8
0
100
AcDbBlockBegin
  2
*D9
 70
    1
 10
0
 20
0
  3
*D9
  1

  0
LINE
  5
12E
100
AcDbEntity
  8
quote
  6
ByBlock
 62
    0
370
   -2
100
AcDbLine
 10
60
 20
175
 11
70
 21
175
  0
SOLID
  5
12F
100
AcDbEntity
  8
quote
  6
ByBlock
 62
    0
370
   -2
100
AcDbTrace
 10
60
 20
175
 30
0
 11
62.5
 21
175.4162846577728
 31
0
 12
62.5
 22
174.5837153422272
 32
0
 13
62.5
 23
174.5837153422272
 33
0
  0
SOLID
  5
130
100
AcDbEntity
  8
quote
  6
ByBlock
 62
    0
370
   -2
100
AcDbTrace
 10
70
 20
175
 30
0
 11
67.5
 21
174.5837153422272
 31
0
 12
67.5
 22
175.4162846577728
 32
0
 13
67.5
 23
175.4162846577728
 33
0
  0
MTEXT
  5
131
100
AcDbEntity
  8
quote
  6
CONTINUOUS
 62
    0
370
   -2
100
AcDbMText
 10
65
 20
176.875
 30
0
 40
2.5
 41
5.277777777777778
 71
    5
 72
    1
  1
10.0
  7
standard
210
0
220
0
230
1
 50
0
 73
    2
 44
1
  0
LINE
  5
132
100
AcDbEntity
  8
quote
  6
ByBlock
 62
    0
370
   -2
100
AcDbLine
 10
60
 20
170.625
 11
60
 21
176.25
  0
LINE
  5
133
100
AcDbEntity
  8
quote
  6
ByBlock
 62
    0
370
   -2
100
AcDbLine
 10
70
 20
136.625
 11
70
 21
176.25
  0
ENDBLK
  5
95
330
93
100
AcDbEntity
  8
0
100
AcDbBlockEnd
  0
BLOCK
  5
97
330
96
100
AcDbEntity
  8
0
100
AcDbBlockBegin
  2
*D18
 70
    1
 10
0
 20
0
  3
*D18
  1

  0
LINE
  5
134
100
AcDbEntity
  8
quote
  6
ByBlock
 62
    0
370
   -2
100
AcDbLine
 10
210
 20
170
 11
210
 21
55
  0
SOLID
  5
135
100
AcDbEntity
  8
quote
  6
ByBlock
 62
    0
370
   -2
100
AcDbTrace
 10
210
 20
170
 30
0
 11
210.4162846577728
 21
167.5
 31
0
 12
209.5837153422272
 22
167.5
 32
0
 13
209.5837153422272
 23
167.5
 33
0
  0
SOLID
  5
136
100
AcDbEntity
  8
quote
  6
ByBlock
 62
    0
370
   -2
100
AcDbTrace
 10
210
 20
55
 30
0
 11
209.5837153422272
 21
57.5
 31
0
 12
210.4162846577728
 22
57.5
 32
0
 13
210.4162846577728
 23
57.5
 33
0
  0
MTEXT
  5
137
100
AcDbEntity
  8
quote
  6
CONTINUOUS
 62
    0
370
   -2
100
AcDbMText
 10
208.125
 20
112.5
 30
0
 40
2.5
 41
6.666666666666823
 71
    5
 72
    1
  1
115.0
  7
standard
210
0
220
0
230
1
 50
90
 73
    2
 44
1
  0
LINE
  5
138
100
AcDbEntity
  8
quote
  6
ByBlock
 62
    0
370
   -2
100
AcDbLine
 10
60.625
 20
170
 11
211.25
 21
170
  0
LINE
  5
139
100
AcDbEntity
  8
quote
  6
ByBlock
 62
    0
370
   -2
100
AcDbLine
 10
0.625
 20
55
 11
211.25
 21
55
  0
ENDBLK
  5
98
330
96
100
AcDbEntity
  8
0
100
AcDbBlockEnd
  0
BLOCK
  5
9A
330
99
100
AcDbEntity
  8
0
100
AcDbBlockBegin
  2
*D31
 70
    1
 10
0
 20
0
  3
*D31
  1

  0
LINE
  5
13A
100
AcDbEntity
  8
quote
  6
ByBlock
 62
    0
370
   -2
100
AcDbLine
 10
111.8829013735766
 20
157.1756479396351
 11
104.1170986264234
 21
168.8243520603649
  0
SOLID
  5
13B
100
AcDbEntity
  8
quote
  6
ByBlock
 62
    0
370
   -2
100
AcDbTrace
 10
109.1094003924505
 20
161.3358994113243
 30
0
 11
110.8425206550417
 21
159.4866868568318
 31
0
 12
110.1497811109853
 22
159.0248604941276
 32
0
 13
110.1497811109853
 23
159.0248604941276
 33
0
  0
SOLID
  5
13C
100
AcDbEntity
  8
quote
  6
ByBlock
 62
    0
370
   -2
100
AcDbTrace
 10
106.8905996075495
 20
164.6641005886757
 30
0
 11
105.1574793449583
 21
166.5133131431682
 31
0
 12
105.8502188890147
 22
166.9751395058724
 32
0
 13
105.8502188890147
 23
166.9751395058724
 33
0
  0
MTEXT
  5
13D
100
AcDbEntity
  8
quote
  6
CONTINUOUS
 62
    0
370
   -2
100
AcDbMText
 10
112.1718077257772
 20
160.1224927320816
 30
0
 40
2.5
 41
4.166666666666667
 71
    5
 72
    1
  1
4.0
  7
standard
210
0
220
0
230
1
 50
303.6900675259795
 73
    2
 44
1
  0
ENDBLK
  5
9B
330
99
100
AcDbEntity
  8
0
100
AcDbBlockEnd
  0
BLOCK
  5
9D
330
9C
100
AcDbEntity
  8
0
100
AcDbBlockBegin
  2
*D20
 70
    1
 10
0
 20
0
  3
*D20
  1

  0
LINE
  5
13E
100
AcDbEntity
  8
quote
  6
ByBlock
 62
    0
370
   -2
100
AcDbLine
 10
0
 20
-10
 11
70
 21
-10
  0
SOLID
  5
13F
100
AcDbEntity
  8
quote
  6
ByBlock
 62
    0
370
   -2
100
AcDbTrace
 10
0
 20
-10
 30
0
 11
2.5
 21
-9.58371534222716
 31
0
 12
2.5
 22
-10.41628465777284
 32
0
 13
2.5
 23
-10.41628465777284
 33
0
  0
SOLID
  5
140
100
AcDbEntity
  8
quote
  6
ByBlock
 62
    0
370
   -2
100
AcDbTrace
 10
70
 20
-10
 30
0
 11
67.5
 21
-10.41628465777284
 31
0
 12
67.5
 22
-9.58371534222716
 32
0
 13
67.5
 23
-9.58371534222716
 33
0
  0
MTEXT
  5
141
100
AcDbEntity
  8
quote
  6
CONTINUOUS
 62
    0
370
   -2
100
AcDbMText
 10
35
 20
-8.125
 30
0
 40
2.5
 41
5.833333333333334
 71
    5
 72
    1
  1
70.0
  7
standard
210
0
220
0
230
1
 50
0
 73
    2
 44
1
  0
LINE
  5
142
100
AcDbEntity
  8
quote
  6
ByBlock
 62
    0
370
   -2
100
AcDbLine
 10
-1.148068456708479e-016
 20
-0.625
 11
-2.296136913416957e-016
 21
-11.25
  0
LINE
  5
143
100
AcDbEntity
  8
quote
  6
ByBlock
 62
    0
370
   -2
100
AcDbLine
 10
70
 20
39.375
 11
70
 21
-11.25
  0
ENDBLK
  5
9E
330
9C
100
AcDbEntity
  8
0
100
AcDbBlockEnd
  0
BLOCK
  5
A0
330
9F
100
AcDbEntity
  8
0
100
AcDbBlockBegin
  2
*D1
 70
    1
 10
0
 20
0
  3
*D1
  1

  0
LINE
  5
144
100
AcDbEntity
  8
quote
  6
ByBlock
 62
    0
370
   -2
100
AcDbLine
 10
86
 20
175
 11
104
 21
175
  0
SOLID
  5
145
100
AcDbEntity
  8
quote
  6
ByBlock
 62
    0
370
   -2
100
AcDbTrace
 10
86
 20
175
 30
0
 11
88.5
 21
175.4162846577728
 31
0
 12
88.5
 22
174.5837153422272
 32
0
 13
88.5
 23
174.5837153422272
 33
0
  0
SOLID
  5
146
100
AcDbEntity
  8
quote
  6
ByBlock
 62
    0
370
   -2
100
AcDbTrace
 10
104
 20
175
 30
0
 11
101.5
 21
174.5837153422272
 31
0
 12
101.5
 22
175.4162846577728
 32
0
 13
101.5
 23
175.4162846577728
 33
0
  0
MTEXT
  5
147
100
AcDbEntity
  8
quote
  6
CONTINUOUS
 62
    0
370
   -2
100
AcDbMText
 10
95
 20
176.875
 30
0
 40
2.5
 41
5.277777777777778
 71
    5
 72
    1
  1
18.0
  7
standard
210
0
220
0
230
1
 50
0
 73
    2
 44
1
  0
LINE
  5
148
100
AcDbEntity
  8
quote
  6
ByBlock
 62
    0
370
   -2
100
AcDbLine
 10
86
 20
170.625
 11
86
 21
176.25
  0
LINE
  5
149
100
AcDbEntity
  8
quote
  6
ByBlock
 62
    0
370
   -2
100
AcDbLine
 10
104
 20
170.625
 11
104
 21
176.25
  0
ENDBLK
  5
A1
330
9F
100
AcDbEntity
  8
0
100
AcDbBlockEnd
  0
BLOCK
  5
A3
330
A2
100
AcDbEntity
  8
0
100
AcDbBlockBegin
  2
*D21
 70
    1
 10
0
 20
0
  3
*D21
  1

  0
LINE
  5
14A
100
AcDbEntity
  8
quote
  6
ByBlock
 62
    0
370
   -2
100
AcDbLine
 10
70
 20
-10
 11
120
 21
-10
  0
SOLID
  5
14B
100
AcDbEntity
  8
quote
  6
ByBlock
 62
    0
370
   -2
100
AcDbTrace
 10
70
 20
-10
 30
0
 11
72.5
 21
-9.58371534222716
 31
0
 12
72.5
 22
-10.41628465777284
 32
0
 13
72.5
 23
-10.41628465777284
 33
0
  0
SOLID
  5
14C
100
AcDbEntity
  8
quote
  6
ByBlock
 62
    0
370
   -2
100
AcDbTrace
 10
120
 20
-10
 30
0
 11
117.5
 21
-10.41628465777284
 31
0
 12
117.5
 22
-9.58371534222716
 32
0
 13
117.5
 23
-9.58371534222716
 33
0
  0
MTEXT
  5
14D
100
AcDbEntity
  8
quote
  6
CONTINUOUS
 62
    0
370
   -2
100
AcDbMText
 10
95
 20
-8.125
 30
0
 40
2.5
 41
5.833333333333488
 71
    5
 72
    1
  1
50.0
  7
standard
210
0
220
0
230
1
 50
0
 73
    2
 44
1
  0
LINE
  5
14E
100
AcDbEntity
  8
quote
  6
ByBlock
 62
    0
370
   -2
100
AcDbLine
 10
70
 20
40.375
 11
70
 21
-11.25
  0
LINE
  5
14F
100
AcDbEntity
  8
quote
  6
ByBlock
 62
    0
370
   -2
100
AcDbLine
 10
120
 20
40.375
 11
120
 21
-11.25
  0
ENDBLK
  5
A4
330
A2
100
AcDbEntity
  8
0
100
AcDbBlockEnd
  0
BLOCK
  5
A6
330
A5
100
AcDbEntity
  8
0
100
AcDbBlockBegin
  2
*D10
 70
    1
 10
0
 20
0
  3
*D10
  1

  0
LINE
  5
150
100
AcDbEntity
  8
quote
  6
ByBlock
 62
    0
370
   -2
100
AcDbLine
 10
74
 20
175
 11
86
 21
175
  0
SOLID
  5
151
100
AcDbEntity
  8
quote
  6
ByBlock
 62
    0
370
   -2
100
AcDbTrace
 10
74
 20
175
 30
0
 11
76.5
 21
175.4162846577728
 31
0
 12
76.5
 22
174.5837153422272
 32
0
 13
76.5
 23
174.5837153422272
 33
0
  0
SOLID
  5
152
100
AcDbEntity
  8
quote
  6
ByBlock
 62
    0
370
   -2
100
AcDbTrace
 10
86
 20
175
 30
0
 11
83.5
 21
174.5837153422272
 31
0
 12
83.5
 22
175.4162846577728
 32
0
 13
83.5
 23
175.4162846577728
 33
0
  0
MTEXT
  5
153
100
AcDbEntity
  8
quote
  6
CONTINUOUS
 62
    0
370
   -2
100
AcDbMText
 10
80
 20
176.875
 30
0
 40
2.5
 41
5.277777777777778
 71
    5
 72
    1
  1
12.0
  7
standard
210
0
220
0
230
1
 50
0
 73
    2
 44
1
  0
LINE
  5
154
100
AcDbEntity
  8
quote
  6
ByBlock
 62
    0
370
   -2
100
AcDbLine
 10
74
 20
166.625
 11
74
 21
176.25
  0
LINE
  5
155
100
AcDbEntity
  8
quote
  6
ByBlock
 62
    0
370
   -2
100
AcDbLine
 10
86
 20
124.625
 11
86
 21
176.25
  0
ENDBLK
  5
A7
330
A5
100
AcDbEntity
  8
0
100
AcDbBlockEnd
  0
BLOCK
  5
A9
330
A8
100
AcDbEntity
  8
0
100
AcDbBlockBegin
  2
*D7
 70
    1
 10
0
 20
0
  3
*D7
  1

  0
LINE
  5
156
100
AcDbEntity
  8
quote
  6
ByBlock
 62
    0
370
   -2
100
AcDbLine
 10
190
 20
185
 11
130
 21
185
  0
SOLID
  5
157
100
AcDbEntity
  8
quote
  6
ByBlock
 62
    0
370
   -2
100
AcDbTrace
 10
190
 20
185
 30
0
 11
187.5
 21
184.5837153422272
 31
0
 12
187.5
 22
185.4162846577728
 32
0
 13
187.5
 23
185.4162846577728
 33
0
  0
SOLID
  5
158
100
AcDbEntity
  8
quote
  6
ByBlock
 62
    0
370
   -2
100
AcDbTrace
 10
130
 20
185
 30
0
 11
132.5
 21
185.4162846577728
 31
0
 12
132.5
 22
184.5837153422272
 32
0
 13
132.5
 23
184.5837153422272
 33
0
  0
MTEXT
  5
159
100
AcDbEntity
  8
quote
  6
CONTINUOUS
 62
    0
370
   -2
100
AcDbMText
 10
160
 20
186.875
 30
0
 40
2.5
 41
5.833333333333488
 71
    5
 72
    1
  1
60.0
  7
standard
210
0
220
0
230
1
 50
360
 73
    2
 44
1
  0
LINE
  5
15A
100
AcDbEntity
  8
quote
  6
ByBlock
 62
    0
370
   -2
100
AcDbLine
 10
190
 20
55.625
 11
190
 21
186.25
  0
LINE
  5
15B
100
AcDbEntity
  8
quote
  6
ByBlock
 62
    0
370
   -2
100
AcDbLine
 10
130
 20
170.625
 11
130
 21
186.25
  0
ENDBLK
  5
AA
330
A8
100
AcDbEntity
  8
0
100
AcDbBlockEnd
  0
BLOCK
  5
AC
330
AB
100
AcDbEntity
  8
0
100
AcDbBlockBegin
  2
*D28
 70
    1
 10
0
 20
0
  3
*D28
  1

  0
LINE
  5
15C
100
AcDbEntity
  8
quote
  6
ByBlock
 62
    0
370
   -2
100
AcDbLine
 10
116.2900074199777
 20
46.93598812803561
 11
123.7099925800223
 21
35.06401187196439
  0
SOLID
  5
15D
100
AcDbEntity
  8
quote
  6
ByBlock
 62
    0
370
   -2
100
AcDbTrace
 10
118.9400021199936
 20
42.69599660801018
 30
0
 11
117.261996086211
 21
44.5953619406637
 31
0
 12
117.9680134537604
 22
45.03662279538209
 32
0
 13
117.9680134537604
 23
45.03662279538209
 33
0
  0
SOLID
  5
15E
100
AcDbEntity
  8
quote
  6
ByBlock
 62
    0
370
   -2
100
AcDbTrace
 10
121.0599978800064
 20
39.30400339198982
 30
0
 11
122.738003913789
 21
37.4046380593363
 31
0
 12
122.0319865462396
 22
36.96337720461791
 32
0
 13
122.0319865462396
 23
36.96337720461791
 33
0
  0
MTEXT
  5
15F
100
AcDbEntity
  8
quote
  6
CONTINUOUS
 62
    0
370
   -2
100
AcDbMText
 10
124.0854084958578
 20
38.00108933114868
 30
0
 40
2.5
 41
4.166666666666667
 71
    5
 72
    1
  1
4.0
  7
standard
210
0
220
0
230
1
 50
302.0053832080836
 73
    2
 44
1
  0
ENDBLK
  5
AD
330
AB
100
AcDbEntity
  8
0
100
AcDbBlockEnd
  0
ENDSEC
  0
SECTION
  2
ENTITIES
  0
LINE
  5
160
100
AcDbEntity
  8
costruzione
  6
ByLayer
 62
  256
370
   -1
100
AcDbLine
 10
0
 20
0
 11
6.123031769111886e-016
 21
10
  0
LINE
  5
161
100
AcDbEntity
  8
costruzione
  6
ByLayer
 62
  256
370
   -1
100
AcDbLine
 10
0
 20
0
 11
10
 21
0
  0
LINE
  5
162
100
AcDbEntity
  8
costruzione
  6
ByLayer
 62
  256
370
   -1
100
AcDbLine
 10
0
 20
170
 11
10
 21
170
  0
LINE
  5
163
100
AcDbEntity
  8
costruzione
  6
ByLayer
 62
  256
370
   -1
100
AcDbLine
 10
0
 20
55
 11
10
 21
55
  0
LINE
  5
164
100
AcDbEntity
  8
costruzione
  6
ByLayer
 62
  256
370
   -1
100
AcDbLine
 10
95
 20
0
 11
95
 21
10
  0
LINE
  5
165
100
AcDbEntity
  8
costruzione
  6
ByLayer
 62
  256
370
   -1
100
AcDbLine
 10
130
 20
170
 11
130
 21
180
  0
LINE
  5
166
100
AcDbEntity
  8
costruzione
  6
ByLayer
 62
  256
370
   -1
100
AcDbLine
 10
60
 20
170
 11
60
 21
180
  0
LINE
  5
167
100
AcDbEntity
  8
costruzione
  6
ByLayer
 62
  256
370
   -1
100
AcDbLine
 10
70
 20
170
 11
70
 21
180
  0
LINE
  5
168
100
AcDbEntity
  8
costruzione
  6
ByLayer
 62
  256
370
   -1
100
AcDbLine
 10
120
 20
170
 11
120
 21
180
  0
LINE
  5
169
100
AcDbEntity
  8
costruzione
  6
ByLayer
 62
  256
370
   -1
100
AcDbLine
 10
0
 20
120
 11
10
 21
120
  0
LINE
  5
16A
100
AcDbEntity
  8
costruzione
  6
ByLayer
 62
  256
370
   -1
100
AcDbLine
 10
86
 20
0
 11
86
 21
10
  0
LINE
  5
16B
100
AcDbEntity
  8
costruzione
  6
ByLayer
 62
  256
370
   -1
100
AcDbLine
 10
104
 20
0
 11
104
 21
10
  0
LINE
  5
16C
100
AcDbEntity
  8
costruzione
  6
ByLayer
 62
  256
370
   -1
100
AcDbLine
 10
0
 20
166
 11
10
 21
166
  0
LINE
  5
16D
100
AcDbEntity
  8
costruzione
  6
ByLayer
 62
  256
370
   -1
100
AcDbLine
 10
74
 20
170
 11
74
 21
180
  0
LINE
  5
16E
100
AcDbEntity
  8
costruzione
  6
ByLayer
 62
  256
370
   -1
100
AcDbLine
 10
116
 20
170
 11
116
 21
180
  0
LINE
  5
16F
100
AcDbEntity
  8
costruzione
  6
ByLayer
 62
  256
370
   -1
100
AcDbLine
 10
0
 20
154
 11
10
 21
154
  0
LINE
  5
170
100
AcDbEntity
  8
0
  6
ByLayer
 62
  256
370
   -1
100
AcDbLine
 10
0
 20
0
 11
190
 21
0
  0
LINE
  5
171
100
AcDbEntity
  8
0
  6
ByLayer
 62
  256
370
   -1
100
AcDbLine
 10
130
 20
170
 11
120
 21
170
  0
LINE
  5
172
100
AcDbEntity
  8
0
  6
ByLayer
 62
  256
370
   -1
100
AcDbLine
 10
120
 20
170
 11
120
 21
154
  0
LINE
  5
173
100
AcDbEntity
  8
0
  6
ByLayer
 62
  256
370
   -1
100
AcDbLine
 10
120
 20
154
 11
116
 21
154
  0
LINE
  5
174
100
AcDbEntity
  8
0
  6
ByLayer
 62
  256
370
   -1
100
AcDbLine
 10
116
 20
154
 11
116
 21
166
  0
LINE
  5
175
100
AcDbEntity
  8
0
  6
ByLayer
 62
  256
370
   -1
100
AcDbLine
 10
116
 20
166
 11
104
 21
166
  0
LINE
  5
176
100
AcDbEntity
  8
0
  6
ByLayer
 62
  256
370
   -1
100
AcDbLine
 10
104
 20
166
 11
104
 21
170
  0
LINE
  5
177
100
AcDbEntity
  8
0
  6
ByLayer
 62
  256
370
   -1
100
AcDbLine
 10
104
 20
170
 11
86
 21
170
  0
LINE
  5
178
100
AcDbEntity
  8
0
  6
ByLayer
 62
  256
370
   -1
100
AcDbLine
 10
86
 20
166
 11
74
 21
166
  0
LINE
  5
179
100
AcDbEntity
  8
0
  6
ByLayer
 62
  256
370
   -1
100
AcDbLine
 10
74
 20
166
 11
74
 21
154
  0
LINE
  5
17A
100
AcDbEntity
  8
0
  6
ByLayer
 62
  256
370
   -1
100
AcDbLine
 10
74
 20
154
 11
70
 21
154
  0
LINE
  5
17B
100
AcDbEntity
  8
0
  6
ByLayer
 62
  256
370
   -1
100
AcDbLine
 10
70
 20
154
 11
70
 21
170
  0
LINE
  5
17C
100
AcDbEntity
  8
0
  6
ByLayer
 62
  256
370
   -1
100
AcDbLine
 10
70
 20
170
 11
60
 21
170
  0
LINE
  5
17D
100
AcDbEntity
  8
0
  6
ByLayer
 62
  256
370
   -1
100
AcDbLine
 10
60
 20
170
 11
0
 21
55
  0
LINE
  5
17E
100
AcDbEntity
  8
0
  6
ByLayer
 62
  256
370
   -1
100
AcDbLine
 10
0
 20
55
 11
0
 21
0
  0
LINE
  5
17F
100
AcDbEntity
  8
costruzione
  6
ByLayer
 62
  256
370
   -1
100
AcDbLine
 10
190
 20
0
 11
190
 21
10
  0
LINE
  5
180
100
AcDbEntity
  8
0
  6
ByLayer
 62
  256
370
   -1
100
AcDbLine
 10
190
 20
0
 11
190
 21
55
  0
LINE
  5
181
100
AcDbEntity
  8
0
  6
ByLayer
 62
  256
370
   -1
100
AcDbLine
 10
190
 20
55
 11
130
 21
170
  0
LINE
  5
182
100
AcDbEntity
  8
costruzione
  6
ByLayer
 62
  256
370
   -1
100
AcDbLine
 10
60
 20
124
 11
70
 21
124
  0
LINE
  5
183
100
AcDbEntity
  8
costruzione
  6
ByLayer
 62
  256
370
   -1
100
AcDbLine
 10
70
 20
136
 11
80
 21
136
  0
LINE
  5
184
100
AcDbEntity
  8
0
  6
ByLayer
 62
  256
370
   -1
100
AcDbLine
 10
70
 20
136
 11
70
 21
120
  0
LINE
  5
185
100
AcDbEntity
  8
0
  6
ByLayer
 62
  256
370
   -1
100
AcDbLine
 10
70
 20
120
 11
86
 21
120
  0
LINE
  5
186
100
AcDbEntity
  8
0
  6
ByLayer
 62
  256
370
   -1
100
AcDbLine
 10
86
 20
120
 11
86
 21
124
  0
LINE
  5
187
100
AcDbEntity
  8
0
  6
ByLayer
 62
  256
370
   -1
100
AcDbLine
 10
86
 20
124
 11
74
 21
124
  0
LINE
  5
188
100
AcDbEntity
  8
0
  6
ByLayer
 62
  256
370
   -1
100
AcDbLine
 10
74
 20
124
 11
74
 21
136
  0
LINE
  5
189
100
AcDbEntity
  8
0
  6
ByLayer
 62
  256
370
   -1
100
AcDbLine
 10
74
 20
136
 11
70
 21
136
  0
LINE
  5
18A
100
AcDbEntity
  8
0
  6
ByLayer
 62
  256
370
   -1
100
AcDbLine
 10
120
 20
120
 11
120
 21
136
  0
LINE
  5
18B
100
AcDbEntity
  8
0
  6
ByLayer
 62
  256
370
   -1
100
AcDbLine
 10
120
 20
136
 11
116
 21
136
  0
LINE
  5
18C
100
AcDbEntity
  8
0
  6
ByLayer
 62
  256
370
   -1
100
AcDbLine
 10
116
 20
136
 11
116
 21
124
  0
LINE
  5
18D
100
AcDbEntity
  8
0
  6
ByLayer
 62
  256
370
   -1
100
AcDbLine
 10
116
 20
124
 11
104
 21
124
  0
LINE
  5
18E
100
AcDbEntity
  8
0
  6
ByLayer
 62
  256
370
   -1
100
AcDbLine
 10
104
 20
124
 11
104
 21
120
  0
LINE
  5
18F
100
AcDbEntity
  8
0
  6
ByLayer
 62
  256
370
   -1
100
AcDbLine
 10
104
 20
120
 11
120
 21
120
  0
DIMENSION
  5
190
100
AcDbEntity
  8
quote
  6
ByLayer
 62
  256
370
   -1
100
AcDbDimension
  2
*D1
 10
104
 20
175
 30
0
 11
95
 21
176.875
 31
0
 70
   32
 71
    5
  3
Standard
 53
0
210
0
220
0
230
1
100
AcDbAlignedDimension
 13
86
 23
170
 33
0
 14
104
 24
170
 34
0
100
AcDbRotatedDimension
  0
DIMENSION
  5
191
100
AcDbEntity
  8
quote
  6
ByLayer
 62
  256
370
   -1
100
AcDbDimension
  2
*D2
 10
116
 20
175
 30
0
 11
110
 21
176.875
 31
0
 70
   32
 71
    5
  3
Standard
 53
0
210
0
220
0
230
1
100
AcDbAlignedDimension
 13
104
 23
124
 33
0
 14
116
 24
136
 34
0
100
AcDbRotatedDimension
  0
DIMENSION
  5
192
100
AcDbEntity
  8
quote
  6
ByLayer
 62
  256
370
   -1
100
AcDbDimension
  2
*D3
 10
120
 20
180
 30
0
 11
118
 21
181.875
 31
0
 70
   32
 71
    5
  3
Standard
 53
0
210
0
220
0
230
1
100
AcDbAlignedDimension
 13
116
 23
136
 33
0
 14
120
 24
136
 34
0
100
AcDbRotatedDimension
  0
DIMENSION
  5
193
100
AcDbEntity
  8
quote
  6
ByLayer
 62
  256
370
   -1
100
AcDbDimension
  2
*D4
 10
130
 20
175
 30
0
 11
125
 21
176.875
 31
0
 70
   32
 71
    5
  3
Standard
 53
0
210
0
220
0
230
1
100
AcDbAlignedDimension
 13
120
 23
136
 33
0
 14
130
 24
170
 34
0
100
AcDbRotatedDimension
  0
DIMENSION
  5
194
100
AcDbEntity
  8
quote
  6
ByLayer
 62
  256
370
   -1
100
AcDbDimension
  2
*D5
 10
60
 20
185
 30
0
 11
30
 21
186.875
 31
0
 70
   32
 71
    5
  3
Standard
 53
0
210
0
220
0
230
1
100
AcDbAlignedDimension
 13
0
 23
0
 33
0
 14
60
 24
170
 34
0
100
AcDbRotatedDimension
  0
DIMENSION
  5
195
100
AcDbEntity
  8
quote
  6
ByLayer
 62
  256
370
   -1
100
AcDbDimension
  2
*D6
 10
130
 20
185
 30
0
 11
95
 21
186.875
 31
0
 70
   32
 71
    5
  3
Standard
 53
0
210
0
220
0
230
1
100
AcDbAlignedDimension
 13
60
 23
170
 33
0
 14
130
 24
170
 34
0
100
AcDbRotatedDimension
  0
DIMENSION
  5
196
100
AcDbEntity
  8
quote
  6
ByLayer
 62
  256
370
   -1
100
AcDbDimension
  2
*D7
 10
130
 20
185
 30
0
 11
160
 21
186.875
 31
0
 70
   32
 71
    5
  3
Standard
 53
0
210
0
220
0
230
1
100
AcDbAlignedDimension
 13
190
 23
55
 33
0
 14
130
 24
170
 34
0
100
AcDbRotatedDimension
  0
DIMENSION
  5
197
100
AcDbEntity
  8
quote
  6
ByLayer
 62
  256
370
   -1
100
AcDbDimension
  2
*D8
 10
190
 20
190
 30
0
 11
95
 21
191.875
 31
0
 70
   32
 71
    5
  3
Standard
 53
0
210
0
220
0
230
1
100
AcDbAlignedDimension
 13
0
 23
55
 33
0
 14
190
 24
55
 34
0
100
AcDbRotatedDimension
  0
DIMENSION
  5
198
100
AcDbEntity
  8
quote
  6
ByLayer
 62
  256
370
   -1
100
AcDbDimension
  2
*D9
 10
70
 20
175
 30
0
 11
65
 21
176.875
 31
0
 70
   32
 71
    5
  3
Standard
 53
0
210
0
220
0
230
1
100
AcDbAlignedDimension
 13
60
 23
170
 33
0
 14
70
 24
136
 34
0
100
AcDbRotatedDimension
  0
DIMENSION
  5
199
100
AcDbEntity
  8
quote
  6
ByLayer
 62
  256
370
   -1
100
AcDbDimension
  2
*D10
 10
86
 20
175
 30
0
 11
80
 21
176.875
 31
0
 70
   32
 71
    5
  3
Standard
 53
0
210
0
220
0
230
1
100
AcDbAlignedDimension
 13
74
 23
166
 33
0
 14
86
 24
124
 34
0
100
AcDbRotatedDimension
  0
DIMENSION
  5
19A
100
AcDbEntity
  8
quote
  6
ByLayer
 62
  256
370
   -1
100
AcDbDimension
  2
*D11
 10
74
 20
180
 30
0
 11
72
 21
181.875
 31
0
 70
   32
 71
    5
  3
Standard
 53
0
210
0
220
0
230
1
100
AcDbAlignedDimension
 13
70
 23
136
 33
0
 14
74
 24
136
 34
0
100
AcDbRotatedDimension
  0
LINE
  5
19B
100
AcDbEntity
  8
0
  6
ByLayer
 62
  256
370
   -1
100
AcDbLine
 10
86
 20
170
 11
86
 21
166
  0
DIMENSION
  5
19C
100
AcDbEntity
  8
quote
  6
ByLayer
 62
  256
370
   -1
100
AcDbDimension
  2
*D12
 10
200
 20
166
 30
0
 11
198.125
 21
168
 31
0
 70
   32
 71
    5
  3
Standard
 53
0
210
0
220
0
230
1
100
AcDbAlignedDimension
 13
70
 23
170
 33
0
 14
116
 24
166
 34
0
 50
90
100
AcDbRotatedDimension
  0
DIMENSION
  5
19D
100
AcDbEntity
  8
quote
  6
ByLayer
 62
  256
370
   -1
100
AcDbDimension
  2
*D13
 10
200
 20
154
 30
0
 11
198.125
 21
160
 31
0
 70
   32
 71
    5
  3
Standard
 53
0
210
0
220
0
230
1
100
AcDbAlignedDimension
 13
86
 23
166
 33
0
 14
74
 24
154
 34
0
 50
90
100
AcDbRotatedDimension
  0
DIMENSION
  5
19E
100
AcDbEntity
  8
quote
  6
ByLayer
 62
  256
370
   -1
100
AcDbDimension
  2
*D14
 10
200
 20
136
 30
0
 11
198.125
 21
145
 31
0
 70
   32
 71
    5
  3
Standard
 53
0
210
0
220
0
230
1
100
AcDbAlignedDimension
 13
74
 23
154
 33
0
 14
74
 24
136
 34
0
 50
90
100
AcDbRotatedDimension
  0
DIMENSION
  5
19F
100
AcDbEntity
  8
quote
  6
ByLayer
 62
  256
370
   -1
100
AcDbDimension
  2
*D15
 10
200
 20
124
 30
0
 11
198.125
 21
130
 31
0
 70
   32
 71
    5
  3
Standard
 53
0
210
0
220
0
230
1
100
AcDbAlignedDimension
 13
74
 23
136
 33
0
 14
86
 24
124
 34
0
 50
90
100
AcDbRotatedDimension
  0
DIMENSION
  5
1A0
100
AcDbEntity
  8
quote
  6
ByLayer
 62
  256
370
   -1
100
AcDbDimension
  2
*D16
 10
200
 20
120
 30
0
 11
198.125
 21
122
 31
0
 70
   32
 71
    5
  3
Standard
 53
0
210
0
220
0
230
1
100
AcDbAlignedDimension
 13
86
 23
124
 33
0
 14
86
 24
120
 34
0
 50
90
100
AcDbRotatedDimension
  0
DIMENSION
  5
1A1
100
AcDbEntity
  8
quote
  6
ByLayer
 62
  256
370
   -1
100
AcDbDimension
  2
*D17
 10
206
 20
120
 30
0
 11
204.125
 21
145
 31
0
 70
   32
 71
    5
  3
Standard
 53
0
210
0
220
0
230
1
100
AcDbAlignedDimension
 13
70
 23
170
 33
0
 14
86
 24
120
 34
0
 50
90
100
AcDbRotatedDimension
  0
DIMENSION
  5
1A2
100
AcDbEntity
  8
quote
  6
ByLayer
 62
  256
370
   -1
100
AcDbDimension
  2
*D18
 10
210
 20
54.99999999999997
 30
0
 11
208.125
 21
112.5
 31
0
 70
   32
 71
    5
  3
Standard
 53
0
210
0
220
0
230
1
100
AcDbAlignedDimension
 13
60
 23
170
 33
0
 14
0
 24
55
 34
0
 50
90
100
AcDbRotatedDimension
  0
DIMENSION
  5
1A3
100
AcDbEntity
  8
quote
  6
ByLayer
 62
  256
370
   -1
100
AcDbDimension
  2
*D19
 10
210
 20
-2.449212707644755e-015
 30
0
 11
208.125
 21
27.5
 31
0
 70
   32
 71
    5
  3
Standard
 53
0
210
0
220
0
230
1
100
AcDbAlignedDimension
 13
0
 23
55
 33
0
 14
190
 24
0
 34
0
 50
90
100
AcDbRotatedDimension
  0
LINE
  5
1A4
100
AcDbEntity
  8
costruzione fori
  6
ByBlock
 62
  256
370
   -1
100
AcDbLine
 10
82
 20
170
 11
82
 21
180
  0
LINE
  5
1A5
100
AcDbEntity
  8
costruzione fori
  6
ByBlock
 62
  256
370
   -1
100
AcDbLine
 10
108
 20
170
 11
108
 21
180
  0
LINE
  5
1A6
100
AcDbEntity
  8
costruzione fori
  6
ByBlock
 62
  256
370
   -1
100
AcDbLine
 10
82
 20
163
 11
92
 21
163
  0
CIRCLE
  5
1A7
100
AcDbEntity
  8
fori
  6
ByBlock
 62
  256
370
   -1
100
AcDbCircle
 10
82
 20
163
 40
2
  0
CIRCLE
  5
1A8
100
AcDbEntity
  8
fori
  6
ByBlock
 62
  256
370
   -1
100
AcDbCircle
 10
108
 20
163
 40
2
  0
LINE
  5
1A9
100
AcDbEntity
  8
costruzione fori
  6
ByBlock
 62
  256
370
   -1
100
AcDbLine
 10
95
 20
0
 11
95
 21
10
  0
LINE
  5
1AA
100
AcDbEntity
  8
costruzione fori
  6
ByBlock
 62
  256
370
   -1
100
AcDbLine
 10
70
 20
0
 11
70
 21
10
  0
LINE
  5
1AB
100
AcDbEntity
  8
costruzione fori
  6
ByBlock
 62
  256
370
   -1
100
AcDbLine
 10
120
 20
0
 11
120
 21
10
  0
LINE
  5
1AC
100
AcDbEntity
  8
costruzione fori
  6
ByBlock
 62
  256
370
   -1
100
AcDbLine
 10
95
 20
41
 11
105
 21
41
  0
CIRCLE
  5
1AD
100
AcDbEntity
  8
fori
  6
ByBlock
 62
  256
370
   -1
100
AcDbCircle
 10
70
 20
41
 40
2
  0
CIRCLE
  5
1AE
100
AcDbEntity
  8
fori
  6
ByBlock
 62
  256
370
   -1
100
AcDbCircle
 10
120
 20
41
 40
2
  0
DIMENSION
  5
1AF
100
AcDbEntity
  8
quote
  6
ByBlock
 62
  256
370
   -1
100
AcDbDimension
  2
*D20
 10
70
 20
-10
 30
0
 11
35
 21
-8.125
 31
0
 70
   32
 71
    5
  3
Standard
 53
0
210
0
220
0
230
1
100
AcDbAlignedDimension
 13
0
 23
0
 33
0
 14
70
 24
40
 34
0
100
AcDbRotatedDimension
  0
DIMENSION
  5
1B0
100
AcDbEntity
  8
quote
  6
ByBlock
 62
  256
370
   -1
100
AcDbDimension
  2
*D21
 10
120
 20
-10
 30
0
 11
95
 21
-8.125
 31
0
 70
   32
 71
    5
  3
Standard
 53
0
210
0
220
0
230
1
100
AcDbAlignedDimension
 13
70
 23
41
 33
0
 14
120
 24
41
 34
0
100
AcDbRotatedDimension
  0
DIMENSION
  5
1B1
100
AcDbEntity
  8
quote
  6
ByBlock
 62
  256
370
   -1
100
AcDbDimension
  2
*D22
 10
190
 20
-10
 30
0
 11
155
 21
-8.125
 31
0
 70
   32
 71
    5
  3
Standard
 53
0
210
0
220
0
230
1
100
AcDbAlignedDimension
 13
120
 23
41
 33
0
 14
190
 24
0
 34
0
100
AcDbRotatedDimension
  0
DIMENSION
  5
1B2
100
AcDbEntity
  8
quote
  6
ByBlock
 62
  256
370
   -1
100
AcDbDimension
  2
*D23
 10
82
 20
195
 30
0
 11
71
 21
196.875
 31
0
 70
   32
 71
    5
  3
Standard
 53
0
210
0
220
0
230
1
100
AcDbAlignedDimension
 13
60
 23
170
 33
0
 14
82
 24
162
 34
0
100
AcDbRotatedDimension
  0
DIMENSION
  5
1B3
100
AcDbEntity
  8
quote
  6
ByBlock
 62
  256
370
   -1
100
AcDbDimension
  2
*D24
 10
108
 20
195
 30
0
 11
95
 21
196.875
 31
0
 70
   32
 71
    5
  3
Standard
 53
0
210
0
220
0
230
1
100
AcDbAlignedDimension
 13
82
 23
163
 33
0
 14
108
 24
163
 34
0
100
AcDbRotatedDimension
  0
DIMENSION
  5
1B4
100
AcDbEntity
  8
quote
  6
ByBlock
 62
  256
370
   -1
100
AcDbDimension
  2
*D25
 10
130
 20
195
 30
0
 11
119
 21
196.875
 31
0
 70
   32
 71
    5
  3
Standard
 53
0
210
0
220
0
230
1
100
AcDbAlignedDimension
 13
108
 23
163
 33
0
 14
130
 24
170
 34
0
100
AcDbRotatedDimension
  0
DIMENSION
  5
1B5
100
AcDbEntity
  8
quote
  6
ByBlock
 62
  256
370
   -1
100
AcDbDimension
  2
*D26
 10
50
 20
170
 30
0
 11
48.125
 21
166.5
 31
0
 70
   32
 71
    5
  3
Standard
 53
0
210
0
220
0
230
1
100
AcDbAlignedDimension
 13
82
 23
163
 33
0
 14
60
 24
170
 34
0
 50
90
100
AcDbRotatedDimension
  0
DIMENSION
  5
1B6
100
AcDbEntity
  8
quote
  6
ByBlock
 62
  256
370
   -1
100
AcDbDimension
  2
*D27
 10
200
 20
-1.224606353822377e-015
 30
0
 11
198.125
 21
20.5
 31
0
 70
   32
 71
    5
  3
Standard
 53
0
210
0
220
0
230
1
100
AcDbAlignedDimension
 13
70
 23
41
 33
0
 14
190
 24
0
 34
0
 50
90
100
AcDbRotatedDimension
  0
DIMENSION
  5
1B7
100
AcDbEntity
  8
quote
  6
ByBlock
 62
  256
370
   -1
100
AcDbDimension
  2
*D28
 10
118.9400021199936
 20
42.69599660801018
 30
0
 11
121.5899968200095
 21
41.99374801250597
 31
0
 70
   35
 71
    5
  3
Standard
 53
0
210
0
220
0
230
1
100
AcDbDiametricDimension
 15
121.0599978800064
 25
39.30400339198982
 35
0
 40
0
  0
DIMENSION
  5
1B8
100
AcDbEntity
  8
quote
  6
ByBlock
 62
  256
370
   -1
100
AcDbDimension
  2
*D29
 10
68.58578643762691
 20
42.4142135623731
 30
0
 11
71.32582521472477
 21
42.32582521472477
 31
0
 70
   35
 71
    5
  3
Standard
 53
0
210
0
220
0
230
1
100
AcDbDiametricDimension
 15
71.41421356237309
 25
39.58578643762691
 35
0
 40
0
  0
DIMENSION
  5
1B9
100
AcDbEntity
  8
quote
  6
ByBlock
 62
  256
370
   -1
100
AcDbDimension
  2
*D30
 10
80.8
 20
164.6
 30
0
 11
83.5
 21
164.125
 31
0
 70
   35
 71
    5
  3
Standard
 53
0
210
0
220
0
230
1
100
AcDbDiametricDimension
 15
83.2
 25
161.4
 35
0
 40
0
  0
DIMENSION
  5
1BA
100
AcDbEntity
  8
quote
  6
ByBlock
 62
  256
370
   -1
100
AcDbDimension
  2
*D31
 10
109.1094003924505
 20
161.3358994113243
 30
0
 11
109.5600943018835
 21
164.0400628679223
 31
0
 70
   35
 71
    5
  3
Standard
 53
0
210
0
220
0
230
1
100
AcDbDiametricDimension
 15
106.8905996075495
 25
164.6641005886757
 35
0
 40
0
  0
ENDSEC
  0
SECTION
  2
OBJECTS
  0
DICTIONARY
  5
C
330
0
100
AcDbDictionary
281
    1
  3
ACAD_GROUP
350
D
  0
DICTIONARY
  5
D
330
C
100
AcDbDictionary
281
    1
  0
ENDSEC
  0
EOF
