999
dxfrw 0.6.3
  0
SECTION
  2
HEADER
  9
$ACADVER
  1
AC1021
  9
$DWGCODEPAGE
  3
ANSI_1252
  9
$INSBASE
 10
0
 20
0
 30
0
  9
$EXTMIN
 10
-19.125
 20
-12.25
 30
0
  9
$EXTMAX
 10
144.25
 20
100.125
 30
0
  9
$LIMMIN
 10
0
 20
0
  9
$LIMMAX
 10
420
 20
297
  9
$ORTHOMODE
 70
    0
  9
$REGENMODE
 70
    1
  9
$FILLMODE
 70
    1
  9
$QTEXTMODE
 70
    0
  9
$MIRRTEXT
 70
    0
  9
$LTSCALE
 40
1
  9
$ATTMODE
 70
    0
  9
$TEXTSIZE
 40
2.5
  9
$TRACEWID
 40
15.68
  9
$TEXTSTYLE
  7
STANDARD
  9
$CLAYER
  8
quote
  9
$CELTYPE
  6
BYLAYER
  9
$CECOLOR
 62
  256
  9
$CELTSCALE
 40
1
  9
$DISPSILH
 70
    0
  9
$DIMSCALE
 40
1
  9
$DIMASZ
 40
2.5
  9
$DIMEXO
 40
0.625
  9
$DIMDLI
 40
3.75
  9
$DIMRND
 40
0
  9
$DIMDLE
 40
0
  9
$DIMEXE
 40
1.25
  9
$DIMTP
 40
0
  9
$DIMTM
 40
0
  9
$DIMTXT
 40
2.5
  9
$DIMCEN
 40
2.5
  9
$DIMTSZ
 40
0
  9
$DIMTOL
 70
    0
  9
$DIMLIM
 70
    0
  9
$DIMTIH
 70
    0
  9
$DIMTOH
 70
    0
  9
$DIMSE1
 70
    0
  9
$DIMSE2
 70
    0
  9
$DIMTAD
 70
    1
  9
$DIMZIN
 70
    8
  9
$DIMBLK
  1

  9
$DIMASO
 70
    1
  9
$DIMSHO
 70
    1
  9
$DIMPOST
  1

  9
$DIMAPOST
  1

  9
$DIMALT
 70
    0
  9
$DIMALTD
 70
    3
  9
$DIMALTF
 40
0.03937
  9
$DIMLFAC
 40
1
  9
$DIMTOFL
 70
    1
  9
$DIMTVP
 40
0
  9
$DIMTIX
 70
    0
  9
$DIMSOXD
 70
    0
  9
$DIMSAH
 70
    0
  9
$DIMBLK1
  1

  9
$DIMBLK2
  1

  9
$DIMSTYLE
  2
STANDARD
  9
$DIMCLRD
 70
    0
  9
$DIMCLRE
 70
    0
  9
$DIMCLRT
 70
    0
  9
$DIMTFAC
 40
1
  9
$DIMGAP
 40
0.625
  9
$DIMJUST
 70
    0
  9
$DIMSD1
 70
    0
  9
$DIMSD2
 70
    0
  9
$DIMTOLJ
 70
    0
  9
$DIMTZIN
 70
    8
  9
$DIMALTZ
 70
    0
  9
$DIMALTTZ
 70
    0
  9
$DIMUPT
 70
    0
  9
$DIMDEC
 70
    1
  9
$DIMTDEC
 70
    2
  9
$DIMALTU
 70
    2
  9
$DIMALTTD
 70
    3
  9
$DIMTXSTY
  7
standard
  9
$DIMAUNIT
 70
    0
  9
$DIMADEC
 70
    2
  9
$DIMALTRND
 40
0
  9
$DIMAZIN
 70
    0
  9
$DIMDSEP
 70
    0
  9
$DIMATFIT
 70
    3
  9
$DIMFRAC
 70
    0
  9
$DIMLDRBLK
  1
STANDARD
  9
$DIMLUNIT
 70
    2
  9
$DIMLWD
 70
   -2
  9
$DIMLWE
 70
   -2
  9
$DIMTMOVE
 70
    0
  9
$DIMFXL
 40
1
  9
$DIMFXLON
 70
    0
  9
$DIMJOGANG
 40
0.7854
  9
$DIMTFILL
 70
    0
  9
$DIMTFILLCLR
 70
    0
  9
$DIMARCSYM
 70
    0
  9
$DIMLTYPE
  6

  9
$DIMLTEX1
  6

  9
$DIMLTEX2
  6

  9
$LUNITS
 70
    2
  9
$LUPREC
 70
    4
  9
$SKETCHINC
 40
1
  9
$FILLETRAD
 40
0
  9
$AUNITS
 70
    0
  9
$AUPREC
 70
    2
  9
$MENU
  1
.
  9
$ELEVATION
 40
0
  9
$PELEVATION
 40
0
  9
$THICKNESS
 40
0
  9
$LIMCHECK
 70
    0
  9
$CHAMFERA
 40
0
  9
$CHAMFERB
 40
0
  9
$CHAMFERC
 40
0
  9
$CHAMFERD
 40
0
  9
$SKPOLY
 70
    0
  9
$USRTIMER
 70
    1
  9
$ANGBASE
 50
0
  9
$ANGDIR
 70
    0
  9
$PDMODE
 70
   34
  9
$PDSIZE
 40
0
  9
$PLINEWID
 40
0
  9
$SPLFRAME
 70
    0
  9
$SPLINETYPE
 70
    2
  9
$SPLINESEGS
 70
    8
  9
$HANDSEED
  5
20000
  9
$SURFTAB1
 70
    6
  9
$SURFTAB2
 70
    6
  9
$SURFTYPE
 70
    6
  9
$SURFU
 70
    6
  9
$SURFV
 70
    6
  9
$UCSBASE
  2

  9
$UCSNAME
  2

  9
$UCSORG
 10
0
 20
0
 30
0
  9
$UCSXDIR
 10
1
 20
0
 30
0
  9
$UCSYDIR
 10
0
 20
1
 30
0
  9
$UCSORTHOREF
  2

  9
$UCSORTHOVIEW
 70
    0
  9
$UCSORGTOP
 10
0
 20
0
 30
0
  9
$UCSORGBOTTOM
 10
0
 20
0
 30
0
  9
$UCSORGLEFT
 10
0
 20
0
 30
0
  9
$UCSORGRIGHT
 10
0
 20
0
 30
0
  9
$UCSORGFRONT
 10
0
 20
0
 30
0
  9
$UCSORGBACK
 10
0
 20
0
 30
0
  9
$PUCSBASE
  2

  9
$PUCSNAME
  2

  9
$PUCSORG
 10
0
 20
0
 30
0
  9
$PUCSXDIR
 10
1
 20
0
 30
0
  9
$PUCSYDIR
 10
0
 20
1
 30
0
  9
$PUCSORTHOREF
  2

  9
$PUCSORTHOVIEW
 70
    0
  9
$PUCSORGTOP
 10
0
 20
0
 30
0
  9
$PUCSORGBOTTOM
 10
0
 20
0
 30
0
  9
$PUCSORGLEFT
 10
0
 20
0
 30
0
  9
$PUCSORGRIGHT
 10
0
 20
0
 30
0
  9
$PUCSORGFRONT
 10
0
 20
0
 30
0
  9
$PUCSORGBACK
 10
0
 20
0
 30
0
  9
$USERI1
 70
    0
  9
$USERI2
 70
    0
  9
$USERI3
 70
    0
  9
$USERI4
 70
    0
  9
$USERI5
 70
    0
  9
$USERR1
 40
0
  9
$USERR2
 40
0
  9
$USERR3
 40
0
  9
$USERR4
 40
0
  9
$USERR5
 40
0
  9
$WORLDVIEW
 70
    1
  9
$SHADEDGE
 70
    3
  9
$SHADEDIF
 70
   70
  9
$TILEMODE
 70
    1
  9
$MAXACTVP
 70
   64
  9
$PINSBASE
 10
45.50500556173526
 20
32.66685205784205
 30
0
  9
$PLIMCHECK
 70
    0
  9
$PEXTMIN
 10
0
 20
0
 30
0
  9
$PEXTMAX
 10
0
 20
0
 30
0
  9
$GRIDMODE
 70
    1
  9
$SNAPSTYLE
 70
    0
  9
$GRIDUNIT
 10
0
 20
0
  9
$PLIMMIN
 10
0
 20
0
  9
$PLIMMAX
 10
297
 20
210
  9
$UNITMODE
 70
    0
  9
$VISRETAIN
 70
    1
  9
$PLINEGEN
 70
    0
  9
$PSLTSCALE
 70
    1
  9
$TREEDEPTH
 70
 3020
  9
$CMLSTYLE
  2
Standard
  9
$CMLJUST
 70
    0
  9
$CMLSCALE
 40
20
  9
$PROXYGRAPHICS
 70
    1
  9
$MEASUREMENT
 70
    1
  9
$CELWEIGHT
370
   -1
  9
$ENDCAPS
280
    0
  9
$JOINSTYLE
280
    0
  9
$LWDISPLAY
290
    0
  9
$INSUNITS
 70
    0
  9
$HYPERLINKBASE
  1

  9
$STYLESHEET
  1

  9
$XEDIT
290
    1
  9
$CEPSNTYPE
380
    0
  9
$PSTYLEMODE
290
    1
  9
$EXTNAMES
290
    1
  9
$PSVPSCALE
 40
1.64627
  9
$OLESTARTUP
290
    0
  9
$SORTENTS
280
  127
  9
$INDEXCTL
280
    0
  9
$HIDETEXT
280
    1
  9
$XCLIPFRAME
290
    0
  9
$HALOGAP
280
    0
  9
$OBSCOLOR
 70
  257
  9
$OBSLTYPE
280
    0
  9
$INTERSECTIONDISPLAY
280
    0
  9
$INTERSECTIONCOLOR
 70
  257
  9
$DIMASSOC
280
    1
  9
$PROJECTNAME
  1

  9
$CAMERADISPLAY
290
    0
  9
$LENSLENGTH
 40
50
  9
$CAMERAHEIGHT
 40
0
  9
$STEPSPERSEC
 40
2
  9
$STEPSIZE
 40
50
  9
$3DDWFPREC
 40
2
  9
$PSOLWIDTH
 40
5
  9
$PSOLHEIGHT
 40
80
  9
$LOFTANG1
 40
1.570796326794897
  9
$LOFTANG2
 40
1.570796326794897
  9
$LOFTMAG1
 40
0
  9
$LOFTMAG2
 40
0
  9
$LOFTPARAM
 70
    7
  9
$LOFTNORMALS
280
    1
  9
$LATITUDE
 40
1
  9
$LONGITUDE
 40
1
  9
$NORTHDIRECTION
 40
0
  9
$TIMEZONE
 70
-8000
  9
$LIGHTGLYPHDISPLAY
280
    1
  9
$TILEMODELIGHTSYNCH
280
    1
  9
$SOLIDHIST
280
    1
  9
$SHOWHIST
280
    1
  9
$DWFFRAME
280
    2
  9
$DGNFRAME
280
    0
  9
$REALWORLDSCALE
290
    1
  9
$INTERFERECOLOR
 62
    1
  9
$CSHADOW
280
    0
  9
$SHADOWPLANELOCATION
 40
0
  0
ENDSEC
  0
SECTION
  2
CLASSES
  0
ENDSEC
  0
SECTION
  2
TABLES
  0
TABLE
  2
VPORT
  5
8
330
0
100
AcDbSymbolTable
 70
    1
  0
VPORT
  5
31
330
2
100
AcDbSymbolTableRecord
100
AcDbViewportTableRecord
  2
*ACTIVE
 70
    0
 10
0
 20
0
 11
1
 21
1
 12
107.661388628662
 22
85.25860264766816
 13
0
 23
0
 14
10
 24
10
 15
10
 25
10
 16
0
 26
0
 36
1
 17
0
 27
0
 37
0
 40
193.81610271557
 41
1.922060766182299
 42
50
 43
0
 44
0
 50
0
 51
0
 71
    0
 72
  100
 73
    1
 74
    3
 75
    0
 76
    1
 77
    0
 78
    0
281
    0
 65
    1
110
0
120
0
130
0
111
1
121
0
131
0
112
0
122
1
132
0
 79
    0
146
0
348
10020
 60
    7
 61
    5
292
1
282
    1
141
0
142
0
 63
  250
421
3358443
  0
ENDTAB
  0
TABLE
  2
LTYPE
  5
5
330
0
100
AcDbSymbolTable
 70
    4
  0
LTYPE
  5
14
330
5
100
AcDbSymbolTableRecord
100
AcDbLinetypeTableRecord
  2
ByBlock
 70
    0
  3

 72
   65
 73
    0
 40
0
  0
LTYPE
  5
15
330
5
100
AcDbSymbolTableRecord
100
AcDbLinetypeTableRecord
  2
ByLayer
 70
    0
  3

 72
   65
 73
    0
 40
0
  0
LTYPE
  5
16
330
5
100
AcDbSymbolTableRecord
100
AcDbLinetypeTableRecord
  2
Continuous
 70
    0
  3
Solid line
 72
   65
 73
    0
 40
0
  0
LTYPE
  5
32
330
5
100
AcDbSymbolTableRecord
100
AcDbLinetypeTableRecord
  2
DOT
 70
    0
  3
Dot . . . . . . . . . . . . . . . . . . . . . .
 72
   65
 73
    2
 40
6.35
 49
0
 74
    0
 49
-6.35
 74
    0
  0
LTYPE
  5
33
330
5
100
AcDbSymbolTableRecord
100
AcDbLinetypeTableRecord
  2
DOTTINY
 70
    0
  3
Dot (.15x) .....................................
 72
   65
 73
    2
 40
0.9525
 49
0
 74
    0
 49
-0.9525
 74
    0
  0
LTYPE
  5
34
330
5
100
AcDbSymbolTableRecord
100
AcDbLinetypeTableRecord
  2
DOT2
 70
    0
  3
Dot (.5x) .....................................
 72
   65
 73
    2
 40
3.175
 49
0
 74
    0
 49
-3.175
 74
    0
  0
LTYPE
  5
35
330
5
100
AcDbSymbolTableRecord
100
AcDbLinetypeTableRecord
  2
DOTX2
 70
    0
  3
Dot (2x) .  .  .  .  .  .  .  .  .  .  .  .  .
 72
   65
 73
    2
 40
12.7
 49
0
 74
    0
 49
-12.7
 74
    0
  0
LTYPE
  5
36
330
5
100
AcDbSymbolTableRecord
100
AcDbLinetypeTableRecord
  2
DASHED
 70
    0
  3
Dashed _ _ _ _ _ _ _ _ _ _ _ _ _ _ _ _ _
 72
   65
 73
    2
 40
19.05
 49
12.7
 74
    0
 49
-6.35
 74
    0
  0
LTYPE
  5
37
330
5
100
AcDbSymbolTableRecord
100
AcDbLinetypeTableRecord
  2
DASHEDTINY
 70
    0
  3
Dashed (.15x) _ _ _ _ _ _ _ _ _ _ _ _ _ _ _ _ _
 72
   65
 73
    2
 40
2.8575
 49
1.905
 74
    0
 49
-0.9525
 74
    0
  0
LTYPE
  5
38
330
5
100
AcDbSymbolTableRecord
100
AcDbLinetypeTableRecord
  2
DASHED2
 70
    0
  3
Dashed (.5x) _ _ _ _ _ _ _ _ _ _ _ _ _ _ _ _ _
 72
   65
 73
    2
 40
9.524999999999999
 49
6.35
 74
    0
 49
-3.175
 74
    0
  0
LTYPE
  5
39
330
5
100
AcDbSymbolTableRecord
100
AcDbLinetypeTableRecord
  2
DASHEDX2
 70
    0
  3
Dashed (2x) ____  ____  ____  ____  ____  ___
 72
   65
 73
    2
 40
38.09999999999999
 49
25.4
 74
    0
 49
-12.7
 74
    0
  0
LTYPE
  5
3A
330
5
100
AcDbSymbolTableRecord
100
AcDbLinetypeTableRecord
  2
DASHDOT
 70
    0
  3
Dash dot __ . __ . __ . __ . __ . __ . __ . __
 72
   65
 73
    4
 40
25.4
 49
12.7
 74
    0
 49
-6.35
 74
    0
 49
0
 74
    0
 49
-6.35
 74
    0
  0
LTYPE
  5
3B
330
5
100
AcDbSymbolTableRecord
100
AcDbLinetypeTableRecord
  2
DASHDOTTINY
 70
    0
  3
Dash dot (.15x) _._._._._._._._._._._._._._._.
 72
   65
 73
    4
 40
3.81
 49
1.905
 74
    0
 49
-0.9525
 74
    0
 49
0
 74
    0
 49
-0.9525
 74
    0
  0
LTYPE
  5
3C
330
5
100
AcDbSymbolTableRecord
100
AcDbLinetypeTableRecord
  2
DASHDOT2
 70
    0
  3
Dash dot (.5x) _._._._._._._._._._._._._._._.
 72
   65
 73
    4
 40
12.7
 49
6.35
 74
    0
 49
-3.175
 74
    0
 49
0
 74
    0
 49
-3.175
 74
    0
  0
LTYPE
  5
3D
330
5
100
AcDbSymbolTableRecord
100
AcDbLinetypeTableRecord
  2
DASHDOTX2
 70
    0
  3
Dash dot (2x) ____  .  ____  .  ____  .  ___
 72
   65
 73
    4
 40
50.8
 49
25.4
 74
    0
 49
-12.7
 74
    0
 49
0
 74
    0
 49
-12.7
 74
    0
  0
LTYPE
  5
3E
330
5
100
AcDbSymbolTableRecord
100
AcDbLinetypeTableRecord
  2
DIVIDE
 70
    0
  3
Divide ____ . . ____ . . ____ . . ____ . . ____
 72
   65
 73
    6
 40
31.75
 49
12.7
 74
    0
 49
-6.35
 74
    0
 49
0
 74
    0
 49
-6.35
 74
    0
 49
0
 74
    0
 49
-6.35
 74
    0
  0
LTYPE
  5
3F
330
5
100
AcDbSymbolTableRecord
100
AcDbLinetypeTableRecord
  2
DIVIDETINY
 70
    0
  3
Divide (.15x) __..__..__..__..__..__..__..__.._
 72
   65
 73
    6
 40
4.7625
 49
1.905
 74
    0
 49
-0.9525
 74
    0
 49
0
 74
    0
 49
-0.9525
 74
    0
 49
0
 74
    0
 49
-0.9525
 74
    0
  0
LTYPE
  5
40
330
5
100
AcDbSymbolTableRecord
100
AcDbLinetypeTableRecord
  2
DIVIDE2
 70
    0
  3
Divide (.5x) __..__..__..__..__..__..__..__.._
 72
   65
 73
    6
 40
15.875
 49
6.35
 74
    0
 49
-3.175
 74
    0
 49
0
 74
    0
 49
-3.175
 74
    0
 49
0
 74
    0
 49
-3.175
 74
    0
  0
LTYPE
  5
41
330
5
100
AcDbSymbolTableRecord
100
AcDbLinetypeTableRecord
  2
DIVIDEX2
 70
    0
  3
Divide (2x) ________  .  .  ________  .  .  _
 72
   65
 73
    6
 40
63.5
 49
25.4
 74
    0
 49
-12.7
 74
    0
 49
0
 74
    0
 49
-12.7
 74
    0
 49
0
 74
    0
 49
-12.7
 74
    0
  0
LTYPE
  5
42
330
5
100
AcDbSymbolTableRecord
100
AcDbLinetypeTableRecord
  2
BORDER
 70
    0
  3
Border __ __ . __ __ . __ __ . __ __ . __ __ .
 72
   65
 73
    6
 40
44.45
 49
12.7
 74
    0
 49
-6.35
 74
    0
 49
12.7
 74
    0
 49
-6.35
 74
    0
 49
0
 74
    0
 49
-6.35
 74
    0
  0
LTYPE
  5
43
330
5
100
AcDbSymbolTableRecord
100
AcDbLinetypeTableRecord
  2
BORDERTINY
 70
    0
  3
Border (.15x) __.__.__.__.__.__.__.__.__.__.__.
 72
   65
 73
    6
 40
6.6675
 49
1.905
 74
    0
 49
-0.9525
 74
    0
 49
1.905
 74
    0
 49
-0.9525
 74
    0
 49
0
 74
    0
 49
-0.9525
 74
    0
  0
LTYPE
  5
44
330
5
100
AcDbSymbolTableRecord
100
AcDbLinetypeTableRecord
  2
BORDER2
 70
    0
  3
Border (.5x) __.__.__.__.__.__.__.__.__.__.__.
 72
   65
 73
    6
 40
22.225
 49
6.35
 74
    0
 49
-3.175
 74
    0
 49
6.35
 74
    0
 49
-3.175
 74
    0
 49
0
 74
    0
 49
-3.175
 74
    0
  0
LTYPE
  5
45
330
5
100
AcDbSymbolTableRecord
100
AcDbLinetypeTableRecord
  2
BORDERX2
 70
    0
  3
Border (2x) ____  ____  .  ____  ____  .  ___
 72
   65
 73
    6
 40
88.89999999999999
 49
25.4
 74
    0
 49
-12.7
 74
    0
 49
25.4
 74
    0
 49
-12.7
 74
    0
 49
0
 74
    0
 49
-12.7
 74
    0
  0
LTYPE
  5
46
330
5
100
AcDbSymbolTableRecord
100
AcDbLinetypeTableRecord
  2
CENTER
 70
    0
  3
Center ____ _ ____ _ ____ _ ____ _ ____ _ ____
 72
   65
 73
    4
 40
50.8
 49
31.75
 74
    0
 49
-6.35
 74
    0
 49
6.35
 74
    0
 49
-6.35
 74
    0
  0
LTYPE
  5
47
330
5
100
AcDbSymbolTableRecord
100
AcDbLinetypeTableRecord
  2
CENTERTINY
 70
    0
  3
Center (.15x) ___ _ ___ _ ___ _ ___ _ ___ _ ___
 72
   65
 73
    4
 40
7.62
 49
4.7625
 74
    0
 49
-0.9525
 74
    0
 49
0.9525
 74
    0
 49
-0.9525
 74
    0
  0
LTYPE
  5
48
330
5
100
AcDbSymbolTableRecord
100
AcDbLinetypeTableRecord
  2
CENTER2
 70
    0
  3
Center (.5x) ___ _ ___ _ ___ _ ___ _ ___ _ ___
 72
   65
 73
    4
 40
28.575
 49
19.05
 74
    0
 49
-3.175
 74
    0
 49
3.175
 74
    0
 49
-3.175
 74
    0
  0
LTYPE
  5
49
330
5
100
AcDbSymbolTableRecord
100
AcDbLinetypeTableRecord
  2
CENTERX2
 70
    0
  3
Center (2x) ________  __  ________  __  _____
 72
   65
 73
    4
 40
101.6
 49
63.5
 74
    0
 49
-12.7
 74
    0
 49
12.7
 74
    0
 49
-12.7
 74
    0
  0
ENDTAB
  0
TABLE
  2
LAYER
  5
2
330
0
100
AcDbSymbolTable
 70
    1
  0
LAYER
  5
10
330
2
100
AcDbSymbolTableRecord
100
AcDbLayerTableRecord
  2
0
 70
    0
 62
    7
  6
CONTINUOUS
370
   50
390
F
  0
LAYER
  5
4A
330
2
100
AcDbSymbolTableRecord
100
AcDbLayerTableRecord
  2
Costruzione
 70
    1
 62
    7
  6
CONTINUOUS
370
    0
390
F
1001
LibreCad
1070
    1
  0
LAYER
  5
4B
330
2
100
AcDbSymbolTableRecord
100
AcDbLayerTableRecord
  2
Costruzione base
 70
    1
 62
    7
  6
CONTINUOUS
370
    0
390
F
1001
LibreCad
1070
    1
  0
LAYER
  5
4C
330
2
100
AcDbSymbolTableRecord
100
AcDbLayerTableRecord
  2
Costruzione laterali
 70
    1
 62
    7
  6
CONTINUOUS
370
    0
390
F
1001
LibreCad
1070
    1
  0
LAYER
  5
4D
330
2
100
AcDbSymbolTableRecord
100
AcDbLayerTableRecord
  2
quote
 70
    0
 62
    7
  6
CONTINUOUS
370
    0
390
F
  0
ENDTAB
  0
TABLE
  2
STYLE
  5
3
330
0
100
AcDbSymbolTable
 70
    3
  0
STYLE
  5
4E
330
2
100
AcDbSymbolTableRecord
100
AcDbTextStyleTableRecord
  2
Standard
 70
    0
 40
0
 41
1
 50
0
 71
    0
 42
1
  3
txt
  4

  0
ENDTAB
  0
TABLE
  2
VIEW
  5
6
330
0
100
AcDbSymbolTable
 70
    0
  0
ENDTAB
  0
TABLE
  2
UCS
  5
7
330
0
100
AcDbSymbolTable
 70
    0
  0
ENDTAB
  0
TABLE
  2
APPID
  5
9
330
0
100
AcDbSymbolTable
 70
    1
  0
APPID
  5
12
330
9
100
AcDbSymbolTableRecord
100
AcDbRegAppTableRecord
  2
ACAD
 70
    0
  0
APPID
  5
4F
330
9
100
AcDbSymbolTableRecord
100
AcDbRegAppTableRecord
  2
LibreCad
 70
    0
  0
ENDTAB
  0
TABLE
  2
DIMSTYLE
  5
A
330
0
100
AcDbSymbolTable
 70
    1
100
AcDbDimStyleTable
 71
    1
  0
DIMSTYLE
105
50
330
A
100
AcDbSymbolTableRecord
100
AcDbDimStyleTableRecord
  2
Standard
 70
    0
 40
1
 41
2.5
 42
0.625
 43
0.38
 44
1.25
 45
0
 46
0
 47
0
 48
0
 49
1
140
2.5
141
0.09
142
0
143
25.4
144
1
145
0
146
1
147
0.625
148
0
 71
    0
 72
    0
 73
    0
 74
    1
 75
    0
 76
    0
 77
    0
 78
    8
 79
    0
170
    0
171
    2
172
    0
173
    0
174
    0
175
    0
176
    0
177
    0
178
    0
179
    2
271
    1
272
    4
273
    2
274
    2
275
    0
276
    0
277
    2
278
    0
279
    0
280
    0
281
    0
282
    0
283
    1
284
    0
285
    0
286
    0
288
    0
289
    3
340
standard
341

371
   -2
372
   -2
  0
ENDTAB
  0
TABLE
  2
BLOCK_RECORD
  5
1
330
0
100
AcDbSymbolTable
 70
    2
  0
BLOCK_RECORD
  5
1F
330
1
100
AcDbSymbolTableRecord
100
AcDbBlockTableRecord
  2
*Model_Space
 70
    0
280
    1
281
    0
  0
BLOCK_RECORD
  5
1E
330
1
100
AcDbSymbolTableRecord
100
AcDbBlockTableRecord
  2
*Paper_Space
 70
    0
280
    1
281
    0
  0
BLOCK_RECORD
  5
51
330
1
100
AcDbSymbolTableRecord
100
AcDbBlockTableRecord
  2
*D1
 70
    0
280
    1
281
    0
  0
BLOCK_RECORD
  5
54
330
1
100
AcDbSymbolTableRecord
100
AcDbBlockTableRecord
  2
*D28
 70
    0
280
    1
281
    0
  0
BLOCK_RECORD
  5
57
330
1
100
AcDbSymbolTableRecord
100
AcDbBlockTableRecord
  2
*D42
 70
    0
280
    1
281
    0
  0
BLOCK_RECORD
  5
5A
330
1
100
AcDbSymbolTableRecord
100
AcDbBlockTableRecord
  2
*D21
 70
    0
280
    1
281
    0
  0
BLOCK_RECORD
  5
5D
330
1
100
AcDbSymbolTableRecord
100
AcDbBlockTableRecord
  2
*D4
 70
    0
280
    1
281
    0
  0
BLOCK_RECORD
  5
60
330
1
100
AcDbSymbolTableRecord
100
AcDbBlockTableRecord
  2
*D51
 70
    0
280
    1
281
    0
  0
BLOCK_RECORD
  5
63
330
1
100
AcDbSymbolTableRecord
100
AcDbBlockTableRecord
  2
*D10
 70
    0
280
    1
281
    0
  0
BLOCK_RECORD
  5
66
330
1
100
AcDbSymbolTableRecord
100
AcDbBlockTableRecord
  2
*D19
 70
    0
280
    1
281
    0
  0
BLOCK_RECORD
  5
69
330
1
100
AcDbSymbolTableRecord
100
AcDbBlockTableRecord
  2
*D37
 70
    0
280
    1
281
    0
  0
BLOCK_RECORD
  5
6C
330
1
100
AcDbSymbolTableRecord
100
AcDbBlockTableRecord
  2
*D40
 70
    0
280
    1
281
    0
  0
BLOCK_RECORD
  5
6F
330
1
100
AcDbSymbolTableRecord
100
AcDbBlockTableRecord
  2
*D30
 70
    0
280
    1
281
    0
  0
BLOCK_RECORD
  5
72
330
1
100
AcDbSymbolTableRecord
100
AcDbBlockTableRecord
  2
*D27
 70
    0
280
    1
281
    0
  0
BLOCK_RECORD
  5
75
330
1
100
AcDbSymbolTableRecord
100
AcDbBlockTableRecord
  2
*D6
 70
    0
280
    1
281
    0
  0
BLOCK_RECORD
  5
78
330
1
100
AcDbSymbolTableRecord
100
AcDbBlockTableRecord
  2
*D47
 70
    0
280
    1
281
    0
  0
BLOCK_RECORD
  5
7B
330
1
100
AcDbSymbolTableRecord
100
AcDbBlockTableRecord
  2
*D38
 70
    0
280
    1
281
    0
  0
BLOCK_RECORD
  5
7E
330
1
100
AcDbSymbolTableRecord
100
AcDbBlockTableRecord
  2
*D17
 70
    0
280
    1
281
    0
  0
BLOCK_RECORD
  5
81
330
1
100
AcDbSymbolTableRecord
100
AcDbBlockTableRecord
  2
*D12
 70
    0
280
    1
281
    0
  0
BLOCK_RECORD
  5
84
330
1
100
AcDbSymbolTableRecord
100
AcDbBlockTableRecord
  2
*D48
 70
    0
280
    1
281
    0
  0
BLOCK_RECORD
  5
87
330
1
100
AcDbSymbolTableRecord
100
AcDbBlockTableRecord
  2
*D31
 70
    0
280
    1
281
    0
  0
BLOCK_RECORD
  5
8A
330
1
100
AcDbSymbolTableRecord
100
AcDbBlockTableRecord
  2
*D29
 70
    0
280
    1
281
    0
  0
BLOCK_RECORD
  5
8D
330
1
100
AcDbSymbolTableRecord
100
AcDbBlockTableRecord
  2
*D36
 70
    0
280
    1
281
    0
  0
BLOCK_RECORD
  5
90
330
1
100
AcDbSymbolTableRecord
100
AcDbBlockTableRecord
  2
*D53
 70
    0
280
    1
281
    0
  0
BLOCK_RECORD
  5
93
330
1
100
AcDbSymbolTableRecord
100
AcDbBlockTableRecord
  2
*D2
 70
    0
280
    1
281
    0
  0
BLOCK_RECORD
  5
96
330
1
100
AcDbSymbolTableRecord
100
AcDbBlockTableRecord
  2
*D13
 70
    0
280
    1
281
    0
  0
BLOCK_RECORD
  5
99
330
1
100
AcDbSymbolTableRecord
100
AcDbBlockTableRecord
  2
*D52
 70
    0
280
    1
281
    0
  0
BLOCK_RECORD
  5
9C
330
1
100
AcDbSymbolTableRecord
100
AcDbBlockTableRecord
  2
*D41
 70
    0
280
    1
281
    0
  0
BLOCK_RECORD
  5
9F
330
1
100
AcDbSymbolTableRecord
100
AcDbBlockTableRecord
  2
*D25
 70
    0
280
    1
281
    0
  0
BLOCK_RECORD
  5
A2
330
1
100
AcDbSymbolTableRecord
100
AcDbBlockTableRecord
  2
*D22
 70
    0
280
    1
281
    0
  0
BLOCK_RECORD
  5
A5
330
1
100
AcDbSymbolTableRecord
100
AcDbBlockTableRecord
  2
*D23
 70
    0
280
    1
281
    0
  0
BLOCK_RECORD
  5
A8
330
1
100
AcDbSymbolTableRecord
100
AcDbBlockTableRecord
  2
*D44
 70
    0
280
    1
281
    0
  0
BLOCK_RECORD
  5
AB
330
1
100
AcDbSymbolTableRecord
100
AcDbBlockTableRecord
  2
*D35
 70
    0
280
    1
281
    0
  0
BLOCK_RECORD
  5
AE
330
1
100
AcDbSymbolTableRecord
100
AcDbBlockTableRecord
  2
*D43
 70
    0
280
    1
281
    0
  0
BLOCK_RECORD
  5
B1
330
1
100
AcDbSymbolTableRecord
100
AcDbBlockTableRecord
  2
*D5
 70
    0
280
    1
281
    0
  0
BLOCK_RECORD
  5
B4
330
1
100
AcDbSymbolTableRecord
100
AcDbBlockTableRecord
  2
*D24
 70
    0
280
    1
281
    0
  0
BLOCK_RECORD
  5
B7
330
1
100
AcDbSymbolTableRecord
100
AcDbBlockTableRecord
  2
*D14
 70
    0
280
    1
281
    0
  0
BLOCK_RECORD
  5
BA
330
1
100
AcDbSymbolTableRecord
100
AcDbBlockTableRecord
  2
*D46
 70
    0
280
    1
281
    0
  0
BLOCK_RECORD
  5
BD
330
1
100
AcDbSymbolTableRecord
100
AcDbBlockTableRecord
  2
*D16
 70
    0
280
    1
281
    0
  0
BLOCK_RECORD
  5
C0
330
1
100
AcDbSymbolTableRecord
100
AcDbBlockTableRecord
  2
*D9
 70
    0
280
    1
281
    0
  0
BLOCK_RECORD
  5
C3
330
1
100
AcDbSymbolTableRecord
100
AcDbBlockTableRecord
  2
*D3
 70
    0
280
    1
281
    0
  0
BLOCK_RECORD
  5
C6
330
1
100
AcDbSymbolTableRecord
100
AcDbBlockTableRecord
  2
*D11
 70
    0
280
    1
281
    0
  0
BLOCK_RECORD
  5
C9
330
1
100
AcDbSymbolTableRecord
100
AcDbBlockTableRecord
  2
*D18
 70
    0
280
    1
281
    0
  0
BLOCK_RECORD
  5
CC
330
1
100
AcDbSymbolTableRecord
100
AcDbBlockTableRecord
  2
*D39
 70
    0
280
    1
281
    0
  0
BLOCK_RECORD
  5
CF
330
1
100
AcDbSymbolTableRecord
100
AcDbBlockTableRecord
  2
*D45
 70
    0
280
    1
281
    0
  0
BLOCK_RECORD
  5
D2
330
1
100
AcDbSymbolTableRecord
100
AcDbBlockTableRecord
  2
*D8
 70
    0
280
    1
281
    0
  0
BLOCK_RECORD
  5
D5
330
1
100
AcDbSymbolTableRecord
100
AcDbBlockTableRecord
  2
*D7
 70
    0
280
    1
281
    0
  0
BLOCK_RECORD
  5
D8
330
1
100
AcDbSymbolTableRecord
100
AcDbBlockTableRecord
  2
*D15
 70
    0
280
    1
281
    0
  0
BLOCK_RECORD
  5
DB
330
1
100
AcDbSymbolTableRecord
100
AcDbBlockTableRecord
  2
*D26
 70
    0
280
    1
281
    0
  0
BLOCK_RECORD
  5
DE
330
1
100
AcDbSymbolTableRecord
100
AcDbBlockTableRecord
  2
*D34
 70
    0
280
    1
281
    0
  0
BLOCK_RECORD
  5
E1
330
1
100
AcDbSymbolTableRecord
100
AcDbBlockTableRecord
  2
*D50
 70
    0
280
    1
281
    0
  0
BLOCK_RECORD
  5
E4
330
1
100
AcDbSymbolTableRecord
100
AcDbBlockTableRecord
  2
*D20
 70
    0
280
    1
281
    0
  0
BLOCK_RECORD
  5
E7
330
1
100
AcDbSymbolTableRecord
100
AcDbBlockTableRecord
  2
*D32
 70
    0
280
    1
281
    0
  0
BLOCK_RECORD
  5
EA
330
1
100
AcDbSymbolTableRecord
100
AcDbBlockTableRecord
  2
*D33
 70
    0
280
    1
281
    0
  0
BLOCK_RECORD
  5
ED
330
1
100
AcDbSymbolTableRecord
100
AcDbBlockTableRecord
  2
*D49
 70
    0
280
    1
281
    0
  0
ENDTAB
  0
ENDSEC
  0
SECTION
  2
BLOCKS
  0
BLOCK
  5
20
330
1F
100
AcDbEntity
  8
0
100
AcDbBlockBegin
  2
*Model_Space
 70
    0
 10
0
 20
0
 30
0
  3
*Model_Space
  1

  0
ENDBLK
  5
21
330
1F
100
AcDbEntity
  8
0
100
AcDbBlockEnd
  0
BLOCK
  5
1C
330
1B
100
AcDbEntity
  8
0
100
AcDbBlockBegin
  2
*Paper_Space
 70
    0
 10
0
 20
0
 30
0
  3
*Paper_Space
  1

  0
ENDBLK
  5
1D
330
1F
100
AcDbEntity
  8
0
100
AcDbBlockEnd
  0
BLOCK
  5
52
330
51
100
AcDbEntity
  8
0
100
AcDbBlockBegin
  2
*D1
 70
    1
 10
0
 20
0
  3
*D1
  1

  0
LINE
  5
F0
100
AcDbEntity
  8
quote
  6
ByBlock
 62
    0
370
   -2
100
AcDbLine
 10
4
 20
-6
 11
16
 21
-6
  0
SOLID
  5
F1
100
AcDbEntity
  8
quote
  6
ByBlock
 62
    0
370
   -2
100
AcDbTrace
 10
4
 20
-6
 30
0
 11
6.5
 21
-5.58371534222716
 31
0
 12
6.5
 22
-6.416284657772841
 32
0
 13
6.5
 23
-6.416284657772841
 33
0
  0
SOLID
  5
F2
100
AcDbEntity
  8
quote
  6
ByBlock
 62
    0
370
   -2
100
AcDbTrace
 10
16
 20
-6
 30
0
 11
13.5
 21
-6.416284657772841
 31
0
 12
13.5
 22
-5.583715342227159
 32
0
 13
13.5
 23
-5.583715342227159
 33
0
  0
MTEXT
  5
F3
100
AcDbEntity
  8
quote
  6
CONTINUOUS
 62
    0
370
   -2
100
AcDbMText
 10
10
 20
-4.125
 30
0
 40
2.5
 41
2.5
 71
    5
 72
    1
  1
12
  7
standard
210
0
220
0
230
1
 50
0
 73
    2
 44
1
  0
LINE
  5
F4
100
AcDbEntity
  8
quote
  6
ByBlock
 62
    0
370
   -2
100
AcDbLine
 10
4
 20
-0.625
 11
4
 21
-7.25
  0
LINE
  5
F5
100
AcDbEntity
  8
quote
  6
ByBlock
 62
    0
370
   -2
100
AcDbLine
 10
16
 20
-0.625
 11
16
 21
-7.25
  0
ENDBLK
  5
53
330
51
100
AcDbEntity
  8
0
100
AcDbBlockEnd
  0
BLOCK
  5
55
330
54
100
AcDbEntity
  8
0
100
AcDbBlockBegin
  2
*D28
 70
    1
 10
0
 20
0
  3
*D28
  1

  0
LINE
  5
F6
100
AcDbEntity
  8
quote
  6
ByBlock
 62
    0
370
   -2
100
AcDbLine
 10
110
 20
-11
 11
138
 21
-11
  0
SOLID
  5
F7
100
AcDbEntity
  8
quote
  6
ByBlock
 62
    0
370
   -2
100
AcDbTrace
 10
110
 20
-11
 30
0
 11
112.5
 21
-10.58371534222716
 31
0
 12
112.5
 22
-11.41628465777284
 32
0
 13
112.5
 23
-11.41628465777284
 33
0
  0
SOLID
  5
F8
100
AcDbEntity
  8
quote
  6
ByBlock
 62
    0
370
   -2
100
AcDbTrace
 10
138
 20
-11
 30
0
 11
135.5
 21
-11.41628465777284
 31
0
 12
135.5
 22
-10.58371534222716
 32
0
 13
135.5
 23
-10.58371534222716
 33
0
  0
MTEXT
  5
F9
100
AcDbEntity
  8
quote
  6
CONTINUOUS
 62
    0
370
   -2
100
AcDbMText
 10
124
 20
-9.125
 30
0
 40
2.5
 41
3.055555555555556
 71
    5
 72
    1
  1
28
  7
standard
210
0
220
0
230
1
 50
0
 73
    2
 44
1
  0
LINE
  5
FA
100
AcDbEntity
  8
quote
  6
ByBlock
 62
    0
370
   -2
100
AcDbLine
 10
110
 20
-0.625
 11
110
 21
-12.25
  0
LINE
  5
FB
100
AcDbEntity
  8
quote
  6
ByBlock
 62
    0
370
   -2
100
AcDbLine
 10
138
 20
-0.625
 11
138
 21
-12.25
  0
ENDBLK
  5
56
330
54
100
AcDbEntity
  8
0
100
AcDbBlockEnd
  0
BLOCK
  5
58
330
57
100
AcDbEntity
  8
0
100
AcDbBlockBegin
  2
*D42
 70
    1
 10
0
 20
0
  3
*D42
  1

  0
LINE
  5
FC
100
AcDbEntity
  8
quote
  6
ByBlock
 62
    0
370
   -2
100
AcDbLine
 10
4
 20
92
 11
54
 21
92
  0
SOLID
  5
FD
100
AcDbEntity
  8
quote
  6
ByBlock
 62
    0
370
   -2
100
AcDbTrace
 10
4
 20
92
 30
0
 11
6.5
 21
92.41628465777283
 31
0
 12
6.5
 22
91.58371534222717
 32
0
 13
6.5
 23
91.58371534222717
 33
0
  0
SOLID
  5
FE
100
AcDbEntity
  8
quote
  6
ByBlock
 62
    0
370
   -2
100
AcDbTrace
 10
54
 20
92
 30
0
 11
51.5
 21
91.58371534222717
 31
0
 12
51.5
 22
92.41628465777283
 32
0
 13
51.5
 23
92.41628465777283
 33
0
  0
MTEXT
  5
FF
100
AcDbEntity
  8
quote
  6
CONTINUOUS
 62
    0
370
   -2
100
AcDbMText
 10
29
 20
93.875
 30
0
 40
2.5
 41
3.055555555555711
 71
    5
 72
    1
  1
50
  7
standard
210
0
220
0
230
1
 50
0
 73
    2
 44
1
  0
LINE
  5
100
100
AcDbEntity
  8
quote
  6
ByBlock
 62
    0
370
   -2
100
AcDbLine
 10
4
 20
88.625
 11
4
 21
93.25
  0
LINE
  5
101
100
AcDbEntity
  8
quote
  6
ByBlock
 62
    0
370
   -2
100
AcDbLine
 10
54
 20
88.625
 11
54
 21
93.25
  0
ENDBLK
  5
59
330
57
100
AcDbEntity
  8
0
100
AcDbBlockEnd
  0
BLOCK
  5
5B
330
5A
100
AcDbEntity
  8
0
100
AcDbBlockBegin
  2
*D21
 70
    1
 10
0
 20
0
  3
*D21
  1

  0
LINE
  5
102
100
AcDbEntity
  8
quote
  6
ByBlock
 62
    0
370
   -2
100
AcDbLine
 10
102
 20
8.000000000000002
 11
102
 21
0
  0
SOLID
  5
103
100
AcDbEntity
  8
quote
  6
ByBlock
 62
    0
370
   -2
100
AcDbTrace
 10
102
 20
8.000000000000002
 30
0
 11
102.4162846577728
 21
5.500000000000002
 31
0
 12
101.5837153422272
 22
5.500000000000002
 32
0
 13
101.5837153422272
 23
5.500000000000002
 33
0
  0
SOLID
  5
104
100
AcDbEntity
  8
quote
  6
ByBlock
 62
    0
370
   -2
100
AcDbTrace
 10
102
 20
0
 30
0
 11
101.5837153422272
 21
2.5
 31
0
 12
102.4162846577728
 22
2.5
 32
0
 13
102.4162846577728
 23
2.5
 33
0
  0
MTEXT
  5
105
100
AcDbEntity
  8
quote
  6
CONTINUOUS
 62
    0
370
   -2
100
AcDbMText
 10
100.125
 20
4.000000000000001
 30
0
 40
2.5
 41
1.111111111111111
 71
    5
 72
    1
  1
8
  7
standard
210
0
220
0
230
1
 50
90
 73
    2
 44
1
  0
LINE
  5
106
100
AcDbEntity
  8
quote
  6
ByBlock
 62
    0
370
   -2
100
AcDbLine
 10
133.375
 20
8
 11
100.75
 21
8.000000000000002
  0
LINE
  5
107
100
AcDbEntity
  8
quote
  6
ByBlock
 62
    0
370
   -2
100
AcDbLine
 10
131.375
 20
7.653789711389858e-017
 11
100.75
 21
1.530757942277972e-016
  0
ENDBLK
  5
5C
330
5A
100
AcDbEntity
  8
0
100
AcDbBlockEnd
  0
BLOCK
  5
5E
330
5D
100
AcDbEntity
  8
0
100
AcDbBlockBegin
  2
*D4
 70
    1
 10
0
 20
0
  3
*D4
  1

  0
LINE
  5
108
100
AcDbEntity
  8
quote
  6
ByBlock
 62
    0
370
   -2
100
AcDbLine
 10
49
 20
-5.999999999999999
 11
63
 21
-6.000000000000001
  0
SOLID
  5
109
100
AcDbEntity
  8
quote
  6
ByBlock
 62
    0
370
   -2
100
AcDbTrace
 10
54
 20
-6
 30
0
 11
51.5
 21
-6.416284657772841
 31
0
 12
51.5
 22
-5.583715342227159
 32
0
 13
51.5
 23
-5.583715342227159
 33
0
  0
SOLID
  5
10A
100
AcDbEntity
  8
quote
  6
ByBlock
 62
    0
370
   -2
100
AcDbTrace
 10
58
 20
-6
 30
0
 11
60.5
 21
-5.58371534222716
 31
0
 12
60.5
 22
-6.416284657772841
 32
0
 13
60.5
 23
-6.416284657772841
 33
0
  0
MTEXT
  5
10B
100
AcDbEntity
  8
quote
  6
CONTINUOUS
 62
    0
370
   -2
100
AcDbMText
 10
56
 20
-4.125
 30
0
 40
2.5
 41
1.388888888888889
 71
    5
 72
    1
  1
4
  7
standard
210
0
220
0
230
1
 50
360
 73
    2
 44
1
  0
LINE
  5
10C
100
AcDbEntity
  8
quote
  6
ByBlock
 62
    0
370
   -2
100
AcDbLine
 10
54
 20
8.375
 11
54
 21
-7.25
  0
LINE
  5
10D
100
AcDbEntity
  8
quote
  6
ByBlock
 62
    0
370
   -2
100
AcDbLine
 10
58
 20
9.375
 11
58
 21
-7.25
  0
ENDBLK
  5
5F
330
5D
100
AcDbEntity
  8
0
100
AcDbBlockEnd
  0
BLOCK
  5
61
330
60
100
AcDbEntity
  8
0
100
AcDbBlockBegin
  2
*D51
 70
    1
 10
0
 20
0
  3
*D51
  1

  0
LINE
  5
10E
100
AcDbEntity
  8
quote
  6
ByBlock
 62
    0
370
   -2
100
AcDbLine
 10
63
 20
74
 11
63
 21
60
  0
SOLID
  5
10F
100
AcDbEntity
  8
quote
  6
ByBlock
 62
    0
370
   -2
100
AcDbTrace
 10
63
 20
74
 30
0
 11
63.41628465777284
 21
71.5
 31
0
 12
62.58371534222716
 22
71.5
 32
0
 13
62.58371534222716
 23
71.5
 33
0
  0
SOLID
  5
110
100
AcDbEntity
  8
quote
  6
ByBlock
 62
    0
370
   -2
100
AcDbTrace
 10
63
 20
60
 30
0
 11
62.58371534222716
 21
62.5
 31
0
 12
63.41628465777284
 22
62.5
 32
0
 13
63.41628465777284
 23
62.5
 33
0
  0
MTEXT
  5
111
100
AcDbEntity
  8
quote
  6
CONTINUOUS
 62
    0
370
   -2
100
AcDbMText
 10
61.125
 20
67
 30
0
 40
2.5
 41
2.777777777777778
 71
    5
 72
    1
  1
14
  7
standard
210
0
220
0
230
1
 50
90
 73
    2
 44
1
  0
LINE
  5
112
100
AcDbEntity
  8
quote
  6
ByBlock
 62
    0
370
   -2
100
AcDbLine
 10
29.625
 20
74
 11
64.25
 21
74
  0
LINE
  5
113
100
AcDbEntity
  8
quote
  6
ByBlock
 62
    0
370
   -2
100
AcDbLine
 10
29.625
 20
60
 11
64.25
 21
60
  0
ENDBLK
  5
62
330
60
100
AcDbEntity
  8
0
100
AcDbBlockEnd
  0
BLOCK
  5
64
330
63
100
AcDbEntity
  8
0
100
AcDbBlockBegin
  2
*D10
 70
    1
 10
0
 20
0
  3
*D10
  1

  0
LINE
  5
114
100
AcDbEntity
  8
quote
  6
ByBlock
 62
    0
370
   -2
100
AcDbLine
 10
-11
 20
22
 11
-11
 21
32
  0
SOLID
  5
115
100
AcDbEntity
  8
quote
  6
ByBlock
 62
    0
370
   -2
100
AcDbTrace
 10
-11
 20
22
 30
0
 11
-11.41628465777284
 21
24.5
 31
0
 12
-10.58371534222716
 22
24.5
 32
0
 13
-10.58371534222716
 23
24.5
 33
0
  0
SOLID
  5
116
100
AcDbEntity
  8
quote
  6
ByBlock
 62
    0
370
   -2
100
AcDbTrace
 10
-11
 20
32
 30
0
 11
-10.58371534222716
 21
29.5
 31
0
 12
-11.41628465777284
 22
29.5
 32
0
 13
-11.41628465777284
 23
29.5
 33
0
  0
MTEXT
  5
117
100
AcDbEntity
  8
quote
  6
CONTINUOUS
 62
    0
370
   -2
100
AcDbMText
 10
-12.875
 20
27
 30
0
 40
2.5
 41
2.5
 71
    5
 72
    1
  1
10
  7
standard
210
0
220
0
230
1
 50
90
 73
    2
 44
1
  0
LINE
  5
118
100
AcDbEntity
  8
quote
  6
ByBlock
 62
    0
370
   -2
100
AcDbLine
 10
-0.625
 20
22
 11
-12.25
 21
22
  0
LINE
  5
119
100
AcDbEntity
  8
quote
  6
ByBlock
 62
    0
370
   -2
100
AcDbLine
 10
3.375
 20
32
 11
-12.25
 21
32
  0
ENDBLK
  5
65
330
63
100
AcDbEntity
  8
0
100
AcDbBlockEnd
  0
BLOCK
  5
67
330
66
100
AcDbEntity
  8
0
100
AcDbBlockBegin
  2
*D19
 70
    1
 10
0
 20
0
  3
*D19
  1

  0
LINE
  5
11A
100
AcDbEntity
  8
quote
  6
ByBlock
 62
    0
370
   -2
100
AcDbLine
 10
143
 20
22
 11
143
 21
32
  0
SOLID
  5
11B
100
AcDbEntity
  8
quote
  6
ByBlock
 62
    0
370
   -2
100
AcDbTrace
 10
143
 20
22
 30
0
 11
142.5837153422272
 21
24.5
 31
0
 12
143.4162846577728
 22
24.5
 32
0
 13
143.4162846577728
 23
24.5
 33
0
  0
SOLID
  5
11C
100
AcDbEntity
  8
quote
  6
ByBlock
 62
    0
370
   -2
100
AcDbTrace
 10
143
 20
32
 30
0
 11
143.4162846577728
 21
29.5
 31
0
 12
142.5837153422272
 22
29.5
 32
0
 13
142.5837153422272
 23
29.5
 33
0
  0
MTEXT
  5
11D
100
AcDbEntity
  8
quote
  6
CONTINUOUS
 62
    0
370
   -2
100
AcDbMText
 10
141.125
 20
27
 30
0
 40
2.5
 41
2.5
 71
    5
 72
    1
  1
10
  7
standard
210
0
220
0
230
1
 50
90
 73
    2
 44
1
  0
LINE
  5
11E
100
AcDbEntity
  8
quote
  6
ByBlock
 62
    0
370
   -2
100
AcDbLine
 10
138.625
 20
22
 11
144.25
 21
22
  0
LINE
  5
11F
100
AcDbEntity
  8
quote
  6
ByBlock
 62
    0
370
   -2
100
AcDbLine
 10
138.625
 20
32
 11
144.25
 21
32
  0
ENDBLK
  5
68
330
66
100
AcDbEntity
  8
0
100
AcDbBlockEnd
  0
BLOCK
  5
6A
330
69
100
AcDbEntity
  8
0
100
AcDbBlockBegin
  2
*D37
 70
    1
 10
0
 20
0
  3
*D37
  1

  0
LINE
  5
120
100
AcDbEntity
  8
quote
  6
ByBlock
 62
    0
370
   -2
100
AcDbLine
 10
16
 20
55
 11
42
 21
55
  0
SOLID
  5
121
100
AcDbEntity
  8
quote
  6
ByBlock
 62
    0
370
   -2
100
AcDbTrace
 10
16
 20
55
 30
0
 11
18.5
 21
55.41628465777284
 31
0
 12
18.5
 22
54.58371534222716
 32
0
 13
18.5
 23
54.58371534222716
 33
0
  0
SOLID
  5
122
100
AcDbEntity
  8
quote
  6
ByBlock
 62
    0
370
   -2
100
AcDbTrace
 10
42
 20
55
 30
0
 11
39.5
 21
54.58371534222716
 31
0
 12
39.5
 22
55.41628465777284
 32
0
 13
39.5
 23
55.41628465777284
 33
0
  0
MTEXT
  5
123
100
AcDbEntity
  8
quote
  6
CONTINUOUS
 62
    0
370
   -2
100
AcDbMText
 10
29
 20
56.875
 30
0
 40
2.5
 41
3.055555555555711
 71
    5
 72
    1
  1
26
  7
standard
210
0
220
0
230
1
 50
0
 73
    2
 44
1
  0
LINE
  5
124
100
AcDbEntity
  8
quote
  6
ByBlock
 62
    0
370
   -2
100
AcDbLine
 10
16
 20
63.375
 11
16
 21
53.75
  0
LINE
  5
125
100
AcDbEntity
  8
quote
  6
ByBlock
 62
    0
370
   -2
100
AcDbLine
 10
42
 20
63.375
 11
42
 21
53.75
  0
ENDBLK
  5
6B
330
69
100
AcDbEntity
  8
0
100
AcDbBlockEnd
  0
BLOCK
  5
6D
330
6C
100
AcDbEntity
  8
0
100
AcDbBlockBegin
  2
*D40
 70
    1
 10
0
 20
0
  3
*D40
  1

  0
LINE
  5
126
100
AcDbEntity
  8
quote
  6
ByBlock
 62
    0
370
   -2
100
AcDbLine
 10
0
 20
50
 11
58
 21
50
  0
SOLID
  5
127
100
AcDbEntity
  8
quote
  6
ByBlock
 62
    0
370
   -2
100
AcDbTrace
 10
0
 20
50
 30
0
 11
2.5
 21
50.41628465777284
 31
0
 12
2.5
 22
49.58371534222716
 32
0
 13
2.5
 23
49.58371534222716
 33
0
  0
SOLID
  5
128
100
AcDbEntity
  8
quote
  6
ByBlock
 62
    0
370
   -2
100
AcDbTrace
 10
58
 20
50
 30
0
 11
55.5
 21
49.58371534222716
 31
0
 12
55.5
 22
50.41628465777284
 32
0
 13
55.5
 23
50.41628465777284
 33
0
  0
MTEXT
  5
129
100
AcDbEntity
  8
quote
  6
CONTINUOUS
 62
    0
370
   -2
100
AcDbMText
 10
29
 20
51.875
 30
0
 40
2.5
 41
3.055555555555711
 71
    5
 72
    1
  1
58
  7
standard
210
0
220
0
230
1
 50
0
 73
    2
 44
1
  0
LINE
  5
12A
100
AcDbEntity
  8
quote
  6
ByBlock
 62
    0
370
   -2
100
AcDbLine
 10
-1.148068456708479e-016
 20
68.375
 11
-2.296136913416957e-016
 21
48.75
  0
LINE
  5
12B
100
AcDbEntity
  8
quote
  6
ByBlock
 62
    0
370
   -2
100
AcDbLine
 10
58
 20
68.375
 11
58
 21
48.75
  0
ENDBLK
  5
6E
330
6C
100
AcDbEntity
  8
0
100
AcDbBlockEnd
  0
BLOCK
  5
70
330
6F
100
AcDbEntity
  8
0
100
AcDbBlockBegin
  2
*D30
 70
    1
 10
0
 20
0
  3
*D30
  1

  0
LINE
  5
12C
100
AcDbEntity
  8
quote
  6
ByBlock
 62
    0
370
   -2
100
AcDbLine
 10
16
 20
43
 11
42
 21
43
  0
SOLID
  5
12D
100
AcDbEntity
  8
quote
  6
ByBlock
 62
    0
370
   -2
100
AcDbTrace
 10
16
 20
43
 30
0
 11
18.5
 21
43.41628465777284
 31
0
 12
18.5
 22
42.58371534222716
 32
0
 13
18.5
 23
42.58371534222716
 33
0
  0
SOLID
  5
12E
100
AcDbEntity
  8
quote
  6
ByBlock
 62
    0
370
   -2
100
AcDbTrace
 10
42
 20
43
 30
0
 11
39.5
 21
42.58371534222716
 31
0
 12
39.5
 22
43.41628465777284
 32
0
 13
39.5
 23
43.41628465777284
 33
0
  0
MTEXT
  5
12F
100
AcDbEntity
  8
quote
  6
CONTINUOUS
 62
    0
370
   -2
100
AcDbMText
 10
29
 20
44.875
 30
0
 40
2.5
 41
3.055555555555711
 71
    5
 72
    1
  1
26
  7
standard
210
0
220
0
230
1
 50
0
 73
    2
 44
1
  0
LINE
  5
130
100
AcDbEntity
  8
quote
  6
ByBlock
 62
    0
370
   -2
100
AcDbLine
 10
16
 20
20.625
 11
16
 21
44.25
  0
LINE
  5
131
100
AcDbEntity
  8
quote
  6
ByBlock
 62
    0
370
   -2
100
AcDbLine
 10
42
 20
20.625
 11
42
 21
44.25
  0
ENDBLK
  5
71
330
6F
100
AcDbEntity
  8
0
100
AcDbBlockEnd
  0
BLOCK
  5
73
330
72
100
AcDbEntity
  8
0
100
AcDbBlockBegin
  2
*D27
 70
    1
 10
0
 20
0
  3
*D27
  1

  0
LINE
  5
132
100
AcDbEntity
  8
quote
  6
ByBlock
 62
    0
370
   -2
100
AcDbLine
 10
134
 20
36
 11
110
 21
36
  0
SOLID
  5
133
100
AcDbEntity
  8
quote
  6
ByBlock
 62
    0
370
   -2
100
AcDbTrace
 10
134
 20
36
 30
0
 11
131.5
 21
35.58371534222716
 31
0
 12
131.5
 22
36.41628465777284
 32
0
 13
131.5
 23
36.41628465777284
 33
0
  0
SOLID
  5
134
100
AcDbEntity
  8
quote
  6
ByBlock
 62
    0
370
   -2
100
AcDbTrace
 10
110
 20
36
 30
0
 11
112.5
 21
36.41628465777284
 31
0
 12
112.5
 22
35.58371534222716
 32
0
 13
112.5
 23
35.58371534222716
 33
0
  0
MTEXT
  5
135
100
AcDbEntity
  8
quote
  6
CONTINUOUS
 62
    0
370
   -2
100
AcDbMText
 10
122
 20
37.875
 30
0
 40
2.5
 41
3.333333333333333
 71
    5
 72
    1
  1
24
  7
standard
210
0
220
0
230
1
 50
360
 73
    2
 44
1
  0
LINE
  5
136
100
AcDbEntity
  8
quote
  6
ByBlock
 62
    0
370
   -2
100
AcDbLine
 10
134
 20
8.625
 11
134
 21
37.25
  0
LINE
  5
137
100
AcDbEntity
  8
quote
  6
ByBlock
 62
    0
370
   -2
100
AcDbLine
 10
110
 20
8.625
 11
110
 21
37.25
  0
ENDBLK
  5
74
330
72
100
AcDbEntity
  8
0
100
AcDbBlockEnd
  0
BLOCK
  5
76
330
75
100
AcDbEntity
  8
0
100
AcDbBlockBegin
  2
*D6
 70
    1
 10
0
 20
0
  3
*D6
  1

  0
LINE
  5
138
100
AcDbEntity
  8
quote
  6
ByBlock
 62
    0
370
   -2
100
AcDbLine
 10
0
 20
-11
 11
58
 21
-11
  0
SOLID
  5
139
100
AcDbEntity
  8
quote
  6
ByBlock
 62
    0
370
   -2
100
AcDbTrace
 10
0
 20
-11
 30
0
 11
2.5
 21
-10.58371534222716
 31
0
 12
2.5
 22
-11.41628465777284
 32
0
 13
2.5
 23
-11.41628465777284
 33
0
  0
SOLID
  5
13A
100
AcDbEntity
  8
quote
  6
ByBlock
 62
    0
370
   -2
100
AcDbTrace
 10
58
 20
-11
 30
0
 11
55.5
 21
-11.41628465777284
 31
0
 12
55.5
 22
-10.58371534222716
 32
0
 13
55.5
 23
-10.58371534222716
 33
0
  0
MTEXT
  5
13B
100
AcDbEntity
  8
quote
  6
CONTINUOUS
 62
    0
370
   -2
100
AcDbMText
 10
29
 20
-9.125
 30
0
 40
2.5
 41
3.055555555555711
 71
    5
 72
    1
  1
58
  7
standard
210
0
220
0
230
1
 50
0
 73
    2
 44
1
  0
LINE
  5
13C
100
AcDbEntity
  8
quote
  6
ByBlock
 62
    0
370
   -2
100
AcDbLine
 10
-1.148068456708479e-016
 20
9.375
 11
-2.296136913416957e-016
 21
-12.25
  0
LINE
  5
13D
100
AcDbEntity
  8
quote
  6
ByBlock
 62
    0
370
   -2
100
AcDbLine
 10
58
 20
9.375
 11
58
 21
-12.25
  0
ENDBLK
  5
77
330
75
100
AcDbEntity
  8
0
100
AcDbBlockEnd
  0
BLOCK
  5
79
330
78
100
AcDbEntity
  8
0
100
AcDbBlockBegin
  2
*D47
 70
    1
 10
0
 20
0
  3
*D47
  1

  0
LINE
  5
13E
100
AcDbEntity
  8
quote
  6
ByBlock
 62
    0
370
   -2
100
AcDbLine
 10
-4.000000000000001
 20
59
 11
-3.999999999999999
 21
74
  0
SOLID
  5
13F
100
AcDbEntity
  8
quote
  6
ByBlock
 62
    0
370
   -2
100
AcDbTrace
 10
-4
 20
64
 30
0
 11
-3.58371534222716
 21
61.5
 31
0
 12
-4.416284657772841
 22
61.5
 32
0
 13
-4.416284657772841
 23
61.5
 33
0
  0
SOLID
  5
140
100
AcDbEntity
  8
quote
  6
ByBlock
 62
    0
370
   -2
100
AcDbTrace
 10
-4
 20
69
 30
0
 11
-4.41628465777284
 21
71.5
 31
0
 12
-3.583715342227159
 22
71.5
 32
0
 13
-3.583715342227159
 23
71.5
 33
0
  0
MTEXT
  5
141
100
AcDbEntity
  8
quote
  6
CONTINUOUS
 62
    0
370
   -2
100
AcDbMText
 10
-5.875
 20
66.5
 30
0
 40
2.5
 41
1.111111111111266
 71
    5
 72
    1
  1
5
  7
standard
210
0
220
0
230
1
 50
90
 73
    2
 44
1
  0
LINE
  5
142
100
AcDbEntity
  8
quote
  6
ByBlock
 62
    0
370
   -2
100
AcDbLine
 10
3.375
 20
64
 11
-5.25
 21
64
  0
LINE
  5
143
100
AcDbEntity
  8
quote
  6
ByBlock
 62
    0
370
   -2
100
AcDbLine
 10
3.375
 20
69
 11
-5.25
 21
69
  0
ENDBLK
  5
7A
330
78
100
AcDbEntity
  8
0
100
AcDbBlockEnd
  0
BLOCK
  5
7C
330
7B
100
AcDbEntity
  8
0
100
AcDbBlockBegin
  2
*D38
 70
    1
 10
0
 20
0
  3
*D38
  1

  0
LINE
  5
144
100
AcDbEntity
  8
quote
  6
ByBlock
 62
    0
370
   -2
100
AcDbLine
 10
42
 20
55
 11
54
 21
55
  0
SOLID
  5
145
100
AcDbEntity
  8
quote
  6
ByBlock
 62
    0
370
   -2
100
AcDbTrace
 10
42
 20
55
 30
0
 11
44.5
 21
55.41628465777284
 31
0
 12
44.5
 22
54.58371534222716
 32
0
 13
44.5
 23
54.58371534222716
 33
0
  0
SOLID
  5
146
100
AcDbEntity
  8
quote
  6
ByBlock
 62
    0
370
   -2
100
AcDbTrace
 10
54
 20
55
 30
0
 11
51.5
 21
54.58371534222716
 31
0
 12
51.5
 22
55.41628465777284
 32
0
 13
51.5
 23
55.41628465777284
 33
0
  0
MTEXT
  5
147
100
AcDbEntity
  8
quote
  6
CONTINUOUS
 62
    0
370
   -2
100
AcDbMText
 10
48
 20
56.875
 30
0
 40
2.5
 41
2.5
 71
    5
 72
    1
  1
12
  7
standard
210
0
220
0
230
1
 50
0
 73
    2
 44
1
  0
LINE
  5
148
100
AcDbEntity
  8
quote
  6
ByBlock
 62
    0
370
   -2
100
AcDbLine
 10
42
 20
63.375
 11
42
 21
53.75
  0
LINE
  5
149
100
AcDbEntity
  8
quote
  6
ByBlock
 62
    0
370
   -2
100
AcDbLine
 10
54
 20
63.375
 11
54
 21
53.75
  0
ENDBLK
  5
7D
330
7B
100
AcDbEntity
  8
0
100
AcDbBlockEnd
  0
BLOCK
  5
7F
330
7E
100
AcDbEntity
  8
0
100
AcDbBlockBegin
  2
*D17
 70
    1
 10
0
 20
0
  3
*D17
  1

  0
LINE
  5
14A
100
AcDbEntity
  8
quote
  6
ByBlock
 62
    0
370
   -2
100
AcDbLine
 10
143
 20
0
 11
143
 21
10
  0
SOLID
  5
14B
100
AcDbEntity
  8
quote
  6
ByBlock
 62
    0
370
   -2
100
AcDbTrace
 10
143
 20
0
 30
0
 11
142.5837153422272
 21
2.5
 31
0
 12
143.4162846577728
 22
2.5
 32
0
 13
143.4162846577728
 23
2.5
 33
0
  0
SOLID
  5
14C
100
AcDbEntity
  8
quote
  6
ByBlock
 62
    0
370
   -2
100
AcDbTrace
 10
143
 20
10
 30
0
 11
143.4162846577728
 21
7.5
 31
0
 12
142.5837153422272
 22
7.5
 32
0
 13
142.5837153422272
 23
7.5
 33
0
  0
MTEXT
  5
14D
100
AcDbEntity
  8
quote
  6
CONTINUOUS
 62
    0
370
   -2
100
AcDbMText
 10
141.125
 20
5
 30
0
 40
2.5
 41
2.5
 71
    5
 72
    1
  1
10
  7
standard
210
0
220
0
230
1
 50
90
 73
    2
 44
1
  0
LINE
  5
14E
100
AcDbEntity
  8
quote
  6
ByBlock
 62
    0
370
   -2
100
AcDbLine
 10
138.625
 20
0
 11
144.25
 21
0
  0
LINE
  5
14F
100
AcDbEntity
  8
quote
  6
ByBlock
 62
    0
370
   -2
100
AcDbLine
 10
138.625
 20
10
 11
144.25
 21
10
  0
ENDBLK
  5
80
330
7E
100
AcDbEntity
  8
0
100
AcDbBlockEnd
  0
BLOCK
  5
82
330
81
100
AcDbEntity
  8
0
100
AcDbBlockBegin
  2
*D12
 70
    1
 10
0
 20
0
  3
*D12
  1

  0
LINE
  5
150
100
AcDbEntity
  8
quote
  6
ByBlock
 62
    0
370
   -2
100
AcDbLine
 10
64
 20
3.552713678800501e-015
 11
64
 21
20
  0
SOLID
  5
151
100
AcDbEntity
  8
quote
  6
ByBlock
 62
    0
370
   -2
100
AcDbTrace
 10
64
 20
3.552713678800501e-015
 30
0
 11
63.58371534222716
 21
2.500000000000004
 31
0
 12
64.41628465777283
 22
2.500000000000004
 32
0
 13
64.41628465777283
 23
2.500000000000004
 33
0
  0
SOLID
  5
152
100
AcDbEntity
  8
quote
  6
ByBlock
 62
    0
370
   -2
100
AcDbTrace
 10
64
 20
20
 30
0
 11
64.41628465777283
 21
17.5
 31
0
 12
63.58371534222716
 22
17.5
 32
0
 13
63.58371534222716
 23
17.5
 33
0
  0
MTEXT
  5
153
100
AcDbEntity
  8
quote
  6
CONTINUOUS
 62
    0
370
   -2
100
AcDbMText
 10
62.125
 20
10
 30
0
 40
2.5
 41
3.055555555555556
 71
    5
 72
    1
  1
20
  7
standard
210
0
220
0
230
1
 50
90
 73
    2
 44
1
  0
LINE
  5
154
100
AcDbEntity
  8
quote
  6
ByBlock
 62
    0
370
   -2
100
AcDbLine
 10
42.625
 20
1.009663273127126e-016
 11
65.25
 21
3.754646333425926e-015
  0
LINE
  5
155
100
AcDbEntity
  8
quote
  6
ByBlock
 62
    0
370
   -2
100
AcDbLine
 10
42.625
 20
20
 11
65.25
 21
20
  0
ENDBLK
  5
83
330
81
100
AcDbEntity
  8
0
100
AcDbBlockEnd
  0
BLOCK
  5
85
330
84
100
AcDbEntity
  8
0
100
AcDbBlockBegin
  2
*D48
 70
    1
 10
0
 20
0
  3
*D48
  1

  0
LINE
  5
156
100
AcDbEntity
  8
quote
  6
ByBlock
 62
    0
370
   -2
100
AcDbLine
 10
-4.000000000000001
 20
69
 11
-4
 21
79
  0
SOLID
  5
157
100
AcDbEntity
  8
quote
  6
ByBlock
 62
    0
370
   -2
100
AcDbTrace
 10
-4.000000000000001
 20
69
 30
0
 11
-4.416284657772841
 21
71.5
 31
0
 12
-3.58371534222716
 22
71.5
 32
0
 13
-3.58371534222716
 23
71.5
 33
0
  0
SOLID
  5
158
100
AcDbEntity
  8
quote
  6
ByBlock
 62
    0
370
   -2
100
AcDbTrace
 10
-4
 20
79
 30
0
 11
-3.58371534222716
 21
76.5
 31
0
 12
-4.416284657772841
 22
76.5
 32
0
 13
-4.416284657772841
 23
76.5
 33
0
  0
MTEXT
  5
159
100
AcDbEntity
  8
quote
  6
CONTINUOUS
 62
    0
370
   -2
100
AcDbMText
 10
-5.875
 20
74
 30
0
 40
2.5
 41
2.5
 71
    5
 72
    1
  1
10
  7
standard
210
0
220
0
230
1
 50
90
 73
    2
 44
1
  0
LINE
  5
15A
100
AcDbEntity
  8
quote
  6
ByBlock
 62
    0
370
   -2
100
AcDbLine
 10
3.375
 20
69
 11
-5.250000000000001
 21
69
  0
LINE
  5
15B
100
AcDbEntity
  8
quote
  6
ByBlock
 62
    0
370
   -2
100
AcDbLine
 10
3.375
 20
79
 11
-5.25
 21
79
  0
ENDBLK
  5
86
330
84
100
AcDbEntity
  8
0
100
AcDbBlockEnd
  0
BLOCK
  5
88
330
87
100
AcDbEntity
  8
0
100
AcDbBlockBegin
  2
*D31
 70
    1
 10
0
 20
0
  3
*D31
  1

  0
LINE
  5
15C
100
AcDbEntity
  8
quote
  6
ByBlock
 62
    0
370
   -2
100
AcDbLine
 10
42
 20
43
 11
58
 21
43
  0
SOLID
  5
15D
100
AcDbEntity
  8
quote
  6
ByBlock
 62
    0
370
   -2
100
AcDbTrace
 10
42
 20
43
 30
0
 11
44.5
 21
43.41628465777284
 31
0
 12
44.5
 22
42.58371534222716
 32
0
 13
44.5
 23
42.58371534222716
 33
0
  0
SOLID
  5
15E
100
AcDbEntity
  8
quote
  6
ByBlock
 62
    0
370
   -2
100
AcDbTrace
 10
58
 20
43
 30
0
 11
55.5
 21
42.58371534222716
 31
0
 12
55.5
 22
43.41628465777284
 32
0
 13
55.5
 23
43.41628465777284
 33
0
  0
MTEXT
  5
15F
100
AcDbEntity
  8
quote
  6
CONTINUOUS
 62
    0
370
   -2
100
AcDbMText
 10
50
 20
44.875
 30
0
 40
2.5
 41
2.500000000000155
 71
    5
 72
    1
  1
16
  7
standard
210
0
220
0
230
1
 50
0
 73
    2
 44
1
  0
LINE
  5
160
100
AcDbEntity
  8
quote
  6
ByBlock
 62
    0
370
   -2
100
AcDbLine
 10
42
 20
20.625
 11
42
 21
44.25
  0
LINE
  5
161
100
AcDbEntity
  8
quote
  6
ByBlock
 62
    0
370
   -2
100
AcDbLine
 10
58
 20
20.625
 11
58
 21
44.25
  0
ENDBLK
  5
89
330
87
100
AcDbEntity
  8
0
100
AcDbBlockEnd
  0
BLOCK
  5
8B
330
8A
100
AcDbEntity
  8
0
100
AcDbBlockBegin
  2
*D29
 70
    1
 10
0
 20
0
  3
*D29
  1

  0
LINE
  5
162
100
AcDbEntity
  8
quote
  6
ByBlock
 62
    0
370
   -2
100
AcDbLine
 10
0
 20
43
 11
16
 21
43
  0
SOLID
  5
163
100
AcDbEntity
  8
quote
  6
ByBlock
 62
    0
370
   -2
100
AcDbTrace
 10
0
 20
43
 30
0
 11
2.5
 21
43.41628465777284
 31
0
 12
2.5
 22
42.58371534222716
 32
0
 13
2.5
 23
42.58371534222716
 33
0
  0
SOLID
  5
164
100
AcDbEntity
  8
quote
  6
ByBlock
 62
    0
370
   -2
100
AcDbTrace
 10
16
 20
43
 30
0
 11
13.5
 21
42.58371534222716
 31
0
 12
13.5
 22
43.41628465777284
 32
0
 13
13.5
 23
43.41628465777284
 33
0
  0
MTEXT
  5
165
100
AcDbEntity
  8
quote
  6
CONTINUOUS
 62
    0
370
   -2
100
AcDbMText
 10
8
 20
44.875
 30
0
 40
2.5
 41
2.500000000000155
 71
    5
 72
    1
  1
16
  7
standard
210
0
220
0
230
1
 50
0
 73
    2
 44
1
  0
LINE
  5
166
100
AcDbEntity
  8
quote
  6
ByBlock
 62
    0
370
   -2
100
AcDbLine
 10
3.826894855694929e-017
 20
20.625
 11
7.653789711389858e-017
 21
44.25
  0
LINE
  5
167
100
AcDbEntity
  8
quote
  6
ByBlock
 62
    0
370
   -2
100
AcDbLine
 10
16
 20
20.625
 11
16
 21
44.25
  0
ENDBLK
  5
8C
330
8A
100
AcDbEntity
  8
0
100
AcDbBlockEnd
  0
BLOCK
  5
8E
330
8D
100
AcDbEntity
  8
0
100
AcDbBlockBegin
  2
*D36
 70
    1
 10
0
 20
0
  3
*D36
  1

  0
LINE
  5
168
100
AcDbEntity
  8
quote
  6
ByBlock
 62
    0
370
   -2
100
AcDbLine
 10
4
 20
55
 11
16
 21
55
  0
SOLID
  5
169
100
AcDbEntity
  8
quote
  6
ByBlock
 62
    0
370
   -2
100
AcDbTrace
 10
4
 20
55
 30
0
 11
6.5
 21
55.41628465777284
 31
0
 12
6.5
 22
54.58371534222716
 32
0
 13
6.5
 23
54.58371534222716
 33
0
  0
SOLID
  5
16A
100
AcDbEntity
  8
quote
  6
ByBlock
 62
    0
370
   -2
100
AcDbTrace
 10
16
 20
55
 30
0
 11
13.5
 21
54.58371534222716
 31
0
 12
13.5
 22
55.41628465777284
 32
0
 13
13.5
 23
55.41628465777284
 33
0
  0
MTEXT
  5
16B
100
AcDbEntity
  8
quote
  6
CONTINUOUS
 62
    0
370
   -2
100
AcDbMText
 10
10
 20
56.875
 30
0
 40
2.5
 41
2.5
 71
    5
 72
    1
  1
12
  7
standard
210
0
220
0
230
1
 50
0
 73
    2
 44
1
  0
LINE
  5
16C
100
AcDbEntity
  8
quote
  6
ByBlock
 62
    0
370
   -2
100
AcDbLine
 10
4
 20
63.375
 11
4
 21
53.75
  0
LINE
  5
16D
100
AcDbEntity
  8
quote
  6
ByBlock
 62
    0
370
   -2
100
AcDbLine
 10
16
 20
63.375
 11
16
 21
53.75
  0
ENDBLK
  5
8F
330
8D
100
AcDbEntity
  8
0
100
AcDbBlockEnd
  0
BLOCK
  5
91
330
90
100
AcDbEntity
  8
0
100
AcDbBlockBegin
  2
*D53
 70
    1
 10
0
 20
0
  3
*D53
  1

  0
LINE
  5
16E
100
AcDbEntity
  8
quote
  6
ByBlock
 62
    0
370
   -2
100
AcDbLine
 10
36.4740931868366
 20
80.64363838829919
 11
21.5259068131634
 21
67.35636161170081
  0
SOLID
  5
16F
100
AcDbEntity
  8
quote
  6
ByBlock
 62
    0
370
   -2
100
AcDbTrace
 10
36.4740931868366
 20
80.64363838829919
 30
0
 11
34.88213436341141
 21
78.67159375877993
 31
0
 12
34.32900541684349
 22
79.29386382366886
 32
0
 13
34.32900541684349
 23
79.29386382366886
 33
0
  0
SOLID
  5
170
100
AcDbEntity
  8
quote
  6
ByBlock
 62
    0
370
   -2
100
AcDbTrace
 10
21.5259068131634
 20
67.35636161170081
 30
0
 11
23.11786563658859
 21
69.32840624122007
 31
0
 12
23.67099458315652
 22
68.70613617633114
 32
0
 13
23.67099458315652
 23
68.70613617633114
 33
0
  0
MTEXT
  5
171
100
AcDbEntity
  8
quote
  6
CONTINUOUS
 62
    0
370
   -2
100
AcDbMText
 10
27.7543178021939
 20
75.40139247253187
 30
0
 40
2.5
 41
3.055555555555556
 71
    5
 72
    1
  1
20
  7
standard
210
0
220
0
230
1
 50
41.63353933657017
 73
    2
 44
1
  0
ENDBLK
  5
92
330
90
100
AcDbEntity
  8
0
100
AcDbBlockEnd
  0
BLOCK
  5
94
330
93
100
AcDbEntity
  8
0
100
AcDbBlockBegin
  2
*D2
 70
    1
 10
0
 20
0
  3
*D2
  1

  0
LINE
  5
172
100
AcDbEntity
  8
quote
  6
ByBlock
 62
    0
370
   -2
100
AcDbLine
 10
16
 20
-6
 11
42
 21
-6
  0
SOLID
  5
173
100
AcDbEntity
  8
quote
  6
ByBlock
 62
    0
370
   -2
100
AcDbTrace
 10
16
 20
-6
 30
0
 11
18.5
 21
-5.58371534222716
 31
0
 12
18.5
 22
-6.416284657772841
 32
0
 13
18.5
 23
-6.416284657772841
 33
0
  0
SOLID
  5
174
100
AcDbEntity
  8
quote
  6
ByBlock
 62
    0
370
   -2
100
AcDbTrace
 10
42
 20
-6
 30
0
 11
39.5
 21
-6.416284657772841
 31
0
 12
39.5
 22
-5.583715342227159
 32
0
 13
39.5
 23
-5.583715342227159
 33
0
  0
MTEXT
  5
175
100
AcDbEntity
  8
quote
  6
CONTINUOUS
 62
    0
370
   -2
100
AcDbMText
 10
29
 20
-4.125
 30
0
 40
2.5
 41
3.055555555555711
 71
    5
 72
    1
  1
26
  7
standard
210
0
220
0
230
1
 50
0
 73
    2
 44
1
  0
LINE
  5
176
100
AcDbEntity
  8
quote
  6
ByBlock
 62
    0
370
   -2
100
AcDbLine
 10
16
 20
-0.625
 11
16
 21
-7.25
  0
LINE
  5
177
100
AcDbEntity
  8
quote
  6
ByBlock
 62
    0
370
   -2
100
AcDbLine
 10
42
 20
-0.625
 11
42
 21
-7.25
  0
ENDBLK
  5
95
330
93
100
AcDbEntity
  8
0
100
AcDbBlockEnd
  0
BLOCK
  5
97
330
96
100
AcDbEntity
  8
0
100
AcDbBlockBegin
  2
*D13
 70
    1
 10
0
 20
0
  3
*D13
  1

  0
LINE
  5
178
100
AcDbEntity
  8
quote
  6
ByBlock
 62
    0
370
   -2
100
AcDbLine
 10
37.0024396195646
 20
13.75304952445576
 11
46.9975603804354
 21
26.24695047554424
  0
SOLID
  5
179
100
AcDbEntity
  8
quote
  6
ByBlock
 62
    0
370
   -2
100
AcDbTrace
 10
37.0024396195646
 20
13.75304952445576
 30
0
 11
38.23911353334618
 21
15.96527251214692
 31
0
 12
38.88924094355514
 22
15.44517058397975
 32
0
 13
38.88924094355514
 23
15.44517058397975
 33
0
  0
SOLID
  5
17A
100
AcDbEntity
  8
quote
  6
ByBlock
 62
    0
370
   -2
100
AcDbTrace
 10
46.9975603804354
 20
26.24695047554424
 30
0
 11
45.76088646665381
 21
24.03472748785309
 31
0
 12
45.11075905644486
 22
24.55482941602025
 32
0
 13
45.11075905644486
 23
24.55482941602025
 33
0
  0
MTEXT
  5
17B
100
AcDbEntity
  8
quote
  6
CONTINUOUS
 62
    0
370
   -2
100
AcDbMText
 10
40.53587098229432
 20
21.17130321416455
 30
0
 40
2.5
 41
2.500000000000155
 71
    5
 72
    1
  1
16
  7
standard
210
0
220
0
230
1
 50
51.34019174590991
 73
    2
 44
1
  0
ENDBLK
  5
98
330
96
100
AcDbEntity
  8
0
100
AcDbBlockEnd
  0
BLOCK
  5
9A
330
99
100
AcDbEntity
  8
0
100
AcDbBlockBegin
  2
*D52
 70
    1
 10
0
 20
0
  3
*D52
  1

  0
LINE
  5
17C
100
AcDbEntity
  8
quote
  6
ByBlock
 62
    0
370
   -2
100
AcDbLine
 10
63
 20
74
 11
63
 21
88
  0
SOLID
  5
17D
100
AcDbEntity
  8
quote
  6
ByBlock
 62
    0
370
   -2
100
AcDbTrace
 10
63
 20
74
 30
0
 11
62.58371534222716
 21
76.5
 31
0
 12
63.41628465777284
 22
76.5
 32
0
 13
63.41628465777284
 23
76.5
 33
0
  0
SOLID
  5
17E
100
AcDbEntity
  8
quote
  6
ByBlock
 62
    0
370
   -2
100
AcDbTrace
 10
63
 20
88
 30
0
 11
63.41628465777284
 21
85.5
 31
0
 12
62.58371534222716
 22
85.5
 32
0
 13
62.58371534222716
 23
85.5
 33
0
  0
MTEXT
  5
17F
100
AcDbEntity
  8
quote
  6
CONTINUOUS
 62
    0
370
   -2
100
AcDbMText
 10
61.125
 20
81
 30
0
 40
2.5
 41
2.777777777777778
 71
    5
 72
    1
  1
14
  7
standard
210
0
220
0
230
1
 50
90
 73
    2
 44
1
  0
LINE
  5
180
100
AcDbEntity
  8
quote
  6
ByBlock
 62
    0
370
   -2
100
AcDbLine
 10
29.625
 20
74
 11
64.25
 21
74
  0
LINE
  5
181
100
AcDbEntity
  8
quote
  6
ByBlock
 62
    0
370
   -2
100
AcDbLine
 10
29.625
 20
88
 11
64.25
 21
88
  0
ENDBLK
  5
9B
330
99
100
AcDbEntity
  8
0
100
AcDbBlockEnd
  0
BLOCK
  5
9D
330
9C
100
AcDbEntity
  8
0
100
AcDbBlockBegin
  2
*D41
 70
    1
 10
0
 20
0
  3
*D41
  1

  0
LINE
  5
182
100
AcDbEntity
  8
quote
  6
ByBlock
 62
    0
370
   -2
100
AcDbLine
 10
-5
 20
92
 11
9
 21
92
  0
SOLID
  5
183
100
AcDbEntity
  8
quote
  6
ByBlock
 62
    0
370
   -2
100
AcDbTrace
 10
0
 20
92
 30
0
 11
-2.5
 21
91.58371534222717
 31
0
 12
-2.5
 22
92.41628465777283
 32
0
 13
-2.5
 23
92.41628465777283
 33
0
  0
SOLID
  5
184
100
AcDbEntity
  8
quote
  6
ByBlock
 62
    0
370
   -2
100
AcDbTrace
 10
4
 20
92
 30
0
 11
6.5
 21
92.41628465777283
 31
0
 12
6.5
 22
91.58371534222717
 32
0
 13
6.5
 23
91.58371534222717
 33
0
  0
MTEXT
  5
185
100
AcDbEntity
  8
quote
  6
CONTINUOUS
 62
    0
370
   -2
100
AcDbMText
 10
2
 20
93.875
 30
0
 40
2.5
 41
1.388888888888889
 71
    5
 72
    1
  1
4
  7
standard
210
0
220
0
230
1
 50
0
 73
    2
 44
1
  0
LINE
  5
186
100
AcDbEntity
  8
quote
  6
ByBlock
 62
    0
370
   -2
100
AcDbLine
 10
3.826894855694929e-017
 20
79.625
 11
7.653789711389858e-017
 21
93.25
  0
LINE
  5
187
100
AcDbEntity
  8
quote
  6
ByBlock
 62
    0
370
   -2
100
AcDbLine
 10
4
 20
88.625
 11
4
 21
93.25
  0
ENDBLK
  5
9E
330
9C
100
AcDbEntity
  8
0
100
AcDbBlockEnd
  0
BLOCK
  5
A0
330
9F
100
AcDbEntity
  8
0
100
AcDbBlockBegin
  2
*D25
 70
    1
 10
0
 20
0
  3
*D25
  1

  0
LINE
  5
188
100
AcDbEntity
  8
quote
  6
ByBlock
 62
    0
370
   -2
100
AcDbLine
 10
129
 20
-5
 11
138
 21
-5
  0
SOLID
  5
189
100
AcDbEntity
  8
quote
  6
ByBlock
 62
    0
370
   -2
100
AcDbTrace
 10
129
 20
-5
 30
0
 11
131.5
 21
-4.58371534222716
 31
0
 12
131.5
 22
-5.416284657772841
 32
0
 13
131.5
 23
-5.416284657772841
 33
0
  0
SOLID
  5
18A
100
AcDbEntity
  8
quote
  6
ByBlock
 62
    0
370
   -2
100
AcDbTrace
 10
138
 20
-5
 30
0
 11
135.5
 21
-5.416284657772841
 31
0
 12
135.5
 22
-4.583715342227159
 32
0
 13
135.5
 23
-4.583715342227159
 33
0
  0
MTEXT
  5
18B
100
AcDbEntity
  8
quote
  6
CONTINUOUS
 62
    0
370
   -2
100
AcDbMText
 10
133.5
 20
-3.125
 30
0
 40
2.5
 41
1.111111111111266
 71
    5
 72
    1
  1
9
  7
standard
210
0
220
0
230
1
 50
0
 73
    2
 44
1
  0
LINE
  5
18C
100
AcDbEntity
  8
quote
  6
ByBlock
 62
    0
370
   -2
100
AcDbLine
 10
129
 20
3.375
 11
129
 21
-6.25
  0
LINE
  5
18D
100
AcDbEntity
  8
quote
  6
ByBlock
 62
    0
370
   -2
100
AcDbLine
 10
138
 20
-0.625
 11
138
 21
-6.25
  0
ENDBLK
  5
A1
330
9F
100
AcDbEntity
  8
0
100
AcDbBlockEnd
  0
BLOCK
  5
A3
330
A2
100
AcDbEntity
  8
0
100
AcDbBlockBegin
  2
*D22
 70
    1
 10
0
 20
0
  3
*D22
  1

  0
LINE
  5
18E
100
AcDbEntity
  8
quote
  6
ByBlock
 62
    0
370
   -2
100
AcDbLine
 10
102
 20
8
 11
102
 21
32
  0
SOLID
  5
18F
100
AcDbEntity
  8
quote
  6
ByBlock
 62
    0
370
   -2
100
AcDbTrace
 10
102
 20
8
 30
0
 11
101.5837153422272
 21
10.5
 31
0
 12
102.4162846577728
 22
10.5
 32
0
 13
102.4162846577728
 23
10.5
 33
0
  0
SOLID
  5
190
100
AcDbEntity
  8
quote
  6
ByBlock
 62
    0
370
   -2
100
AcDbTrace
 10
102
 20
32
 30
0
 11
102.4162846577728
 21
29.5
 31
0
 12
101.5837153422272
 22
29.5
 32
0
 13
101.5837153422272
 23
29.5
 33
0
  0
MTEXT
  5
191
100
AcDbEntity
  8
quote
  6
CONTINUOUS
 62
    0
370
   -2
100
AcDbMText
 10
100.125
 20
20
 30
0
 40
2.5
 41
3.333333333333333
 71
    5
 72
    1
  1
24
  7
standard
210
0
220
0
230
1
 50
90
 73
    2
 44
1
  0
LINE
  5
192
100
AcDbEntity
  8
quote
  6
ByBlock
 62
    0
370
   -2
100
AcDbLine
 10
133.375
 20
8
 11
100.75
 21
8
  0
LINE
  5
193
100
AcDbEntity
  8
quote
  6
ByBlock
 62
    0
370
   -2
100
AcDbLine
 10
133.375
 20
32
 11
100.75
 21
32
  0
ENDBLK
  5
A4
330
A2
100
AcDbEntity
  8
0
100
AcDbBlockEnd
  0
BLOCK
  5
A6
330
A5
100
AcDbEntity
  8
0
100
AcDbBlockBegin
  2
*D23
 70
    1
 10
0
 20
0
  3
*D23
  1

  0
LINE
  5
194
100
AcDbEntity
  8
quote
  6
ByBlock
 62
    0
370
   -2
100
AcDbLine
 10
110
 20
-5
 11
119
 21
-5
  0
SOLID
  5
195
100
AcDbEntity
  8
quote
  6
ByBlock
 62
    0
370
   -2
100
AcDbTrace
 10
110
 20
-5
 30
0
 11
112.5
 21
-4.58371534222716
 31
0
 12
112.5
 22
-5.416284657772841
 32
0
 13
112.5
 23
-5.416284657772841
 33
0
  0
SOLID
  5
196
100
AcDbEntity
  8
quote
  6
ByBlock
 62
    0
370
   -2
100
AcDbTrace
 10
119
 20
-5
 30
0
 11
116.5
 21
-5.416284657772841
 31
0
 12
116.5
 22
-4.583715342227159
 32
0
 13
116.5
 23
-4.583715342227159
 33
0
  0
MTEXT
  5
197
100
AcDbEntity
  8
quote
  6
CONTINUOUS
 62
    0
370
   -2
100
AcDbMText
 10
114.5
 20
-3.125
 30
0
 40
2.5
 41
1.111111111111266
 71
    5
 72
    1
  1
9
  7
standard
210
0
220
0
230
1
 50
0
 73
    2
 44
1
  0
LINE
  5
198
100
AcDbEntity
  8
quote
  6
ByBlock
 62
    0
370
   -2
100
AcDbLine
 10
110
 20
-0.625
 11
110
 21
-6.25
  0
LINE
  5
199
100
AcDbEntity
  8
quote
  6
ByBlock
 62
    0
370
   -2
100
AcDbLine
 10
119
 20
3.375
 11
119
 21
-6.25
  0
ENDBLK
  5
A7
330
A5
100
AcDbEntity
  8
0
100
AcDbBlockEnd
  0
BLOCK
  5
A9
330
A8
100
AcDbEntity
  8
0
100
AcDbBlockBegin
  2
*D44
 70
    1
 10
0
 20
0
  3
*D44
  1

  0
LINE
  5
19A
100
AcDbEntity
  8
quote
  6
ByBlock
 62
    0
370
   -2
100
AcDbLine
 10
0
 20
97
 11
29
 21
97
  0
SOLID
  5
19B
100
AcDbEntity
  8
quote
  6
ByBlock
 62
    0
370
   -2
100
AcDbTrace
 10
0
 20
97
 30
0
 11
2.5
 21
97.41628465777283
 31
0
 12
2.5
 22
96.58371534222717
 32
0
 13
2.5
 23
96.58371534222717
 33
0
  0
SOLID
  5
19C
100
AcDbEntity
  8
quote
  6
ByBlock
 62
    0
370
   -2
100
AcDbTrace
 10
29
 20
97
 30
0
 11
26.5
 21
96.58371534222717
 31
0
 12
26.5
 22
97.41628465777283
 32
0
 13
26.5
 23
97.41628465777283
 33
0
  0
MTEXT
  5
19D
100
AcDbEntity
  8
quote
  6
CONTINUOUS
 62
    0
370
   -2
100
AcDbMText
 10
14.5
 20
98.875
 30
0
 40
2.5
 41
3.055555555555556
 71
    5
 72
    1
  1
29
  7
standard
210
0
220
0
230
1
 50
0
 73
    2
 44
1
  0
LINE
  5
19E
100
AcDbEntity
  8
quote
  6
ByBlock
 62
    0
370
   -2
100
AcDbLine
 10
3.826894855694929e-017
 20
74.625
 11
7.653789711389858e-017
 21
98.25
  0
LINE
  5
19F
100
AcDbEntity
  8
quote
  6
ByBlock
 62
    0
370
   -2
100
AcDbLine
 10
29
 20
74.625
 11
29
 21
98.25
  0
ENDBLK
  5
AA
330
A8
100
AcDbEntity
  8
0
100
AcDbBlockEnd
  0
BLOCK
  5
AC
330
AB
100
AcDbEntity
  8
0
100
AcDbBlockBegin
  2
*D35
 70
    1
 10
0
 20
0
  3
*D35
  1

  0
LINE
  5
1A0
100
AcDbEntity
  8
quote
  6
ByBlock
 62
    0
370
   -2
100
AcDbLine
 10
-5
 20
55
 11
9
 21
55
  0
SOLID
  5
1A1
100
AcDbEntity
  8
quote
  6
ByBlock
 62
    0
370
   -2
100
AcDbTrace
 10
4.440892098500626e-016
 20
55
 30
0
 11
-2.5
 21
54.58371534222716
 31
0
 12
-2.5
 22
55.41628465777284
 32
0
 13
-2.5
 23
55.41628465777284
 33
0
  0
SOLID
  5
1A2
100
AcDbEntity
  8
quote
  6
ByBlock
 62
    0
370
   -2
100
AcDbTrace
 10
4
 20
55
 30
0
 11
6.5
 21
55.41628465777284
 31
0
 12
6.5
 22
54.58371534222716
 32
0
 13
6.5
 23
54.58371534222716
 33
0
  0
MTEXT
  5
1A3
100
AcDbEntity
  8
quote
  6
CONTINUOUS
 62
    0
370
   -2
100
AcDbMText
 10
2
 20
56.875
 30
0
 40
2.5
 41
1.388888888888889
 71
    5
 72
    1
  1
4
  7
standard
210
0
220
0
230
1
 50
0
 73
    2
 44
1
  0
LINE
  5
1A4
100
AcDbEntity
  8
quote
  6
ByBlock
 62
    0
370
   -2
100
AcDbLine
 10
-1.148068456708479e-016
 20
68.375
 11
2.144755185083669e-016
 21
53.75
  0
LINE
  5
1A5
100
AcDbEntity
  8
quote
  6
ByBlock
 62
    0
370
   -2
100
AcDbLine
 10
4
 20
68.375
 11
4
 21
53.75
  0
ENDBLK
  5
AD
330
AB
100
AcDbEntity
  8
0
100
AcDbBlockEnd
  0
BLOCK
  5
AF
330
AE
100
AcDbEntity
  8
0
100
AcDbBlockBegin
  2
*D43
 70
    1
 10
0
 20
0
  3
*D43
  1

  0
LINE
  5
1A6
100
AcDbEntity
  8
quote
  6
ByBlock
 62
    0
370
   -2
100
AcDbLine
 10
49
 20
92
 11
63
 21
92
  0
SOLID
  5
1A7
100
AcDbEntity
  8
quote
  6
ByBlock
 62
    0
370
   -2
100
AcDbTrace
 10
54
 20
92
 30
0
 11
51.5
 21
91.58371534222717
 31
0
 12
51.5
 22
92.41628465777283
 32
0
 13
51.5
 23
92.41628465777283
 33
0
  0
SOLID
  5
1A8
100
AcDbEntity
  8
quote
  6
ByBlock
 62
    0
370
   -2
100
AcDbTrace
 10
58
 20
92
 30
0
 11
60.5
 21
92.41628465777283
 31
0
 12
60.5
 22
91.58371534222717
 32
0
 13
60.5
 23
91.58371534222717
 33
0
  0
MTEXT
  5
1A9
100
AcDbEntity
  8
quote
  6
CONTINUOUS
 62
    0
370
   -2
100
AcDbMText
 10
56
 20
93.875
 30
0
 40
2.5
 41
1.388888888888889
 71
    5
 72
    1
  1
4
  7
standard
210
0
220
0
230
1
 50
0
 73
    2
 44
1
  0
LINE
  5
1AA
100
AcDbEntity
  8
quote
  6
ByBlock
 62
    0
370
   -2
100
AcDbLine
 10
54
 20
88.625
 11
54
 21
93.25
  0
LINE
  5
1AB
100
AcDbEntity
  8
quote
  6
ByBlock
 62
    0
370
   -2
100
AcDbLine
 10
58
 20
79.625
 11
58
 21
93.25
  0
ENDBLK
  5
B0
330
AE
100
AcDbEntity
  8
0
100
AcDbBlockEnd
  0
BLOCK
  5
B2
330
B1
100
AcDbEntity
  8
0
100
AcDbBlockBegin
  2
*D5
 70
    1
 10
0
 20
0
  3
*D5
  1

  0
LINE
  5
1AC
100
AcDbEntity
  8
quote
  6
ByBlock
 62
    0
370
   -2
100
AcDbLine
 10
-5
 20
-5.999999999999999
 11
9
 21
-6.000000000000001
  0
SOLID
  5
1AD
100
AcDbEntity
  8
quote
  6
ByBlock
 62
    0
370
   -2
100
AcDbTrace
 10
4.440892098500626e-016
 20
-6
 30
0
 11
-2.5
 21
-6.416284657772841
 31
0
 12
-2.5
 22
-5.583715342227159
 32
0
 13
-2.5
 23
-5.583715342227159
 33
0
  0
SOLID
  5
1AE
100
AcDbEntity
  8
quote
  6
ByBlock
 62
    0
370
   -2
100
AcDbTrace
 10
4
 20
-6
 30
0
 11
6.5
 21
-5.58371534222716
 31
0
 12
6.5
 22
-6.416284657772841
 32
0
 13
6.5
 23
-6.416284657772841
 33
0
  0
MTEXT
  5
1AF
100
AcDbEntity
  8
quote
  6
CONTINUOUS
 62
    0
370
   -2
100
AcDbMText
 10
2
 20
-4.125
 30
0
 40
2.5
 41
1.388888888888889
 71
    5
 72
    1
  1
4
  7
standard
210
0
220
0
230
1
 50
360
 73
    2
 44
1
  0
LINE
  5
1B0
100
AcDbEntity
  8
quote
  6
ByBlock
 62
    0
370
   -2
100
AcDbLine
 10
-1.148068456708479e-016
 20
9.375
 11
2.144755185083669e-016
 21
-7.25
  0
LINE
  5
1B1
100
AcDbEntity
  8
quote
  6
ByBlock
 62
    0
370
   -2
100
AcDbLine
 10
4
 20
9.375
 11
4
 21
-7.25
  0
ENDBLK
  5
B3
330
B1
100
AcDbEntity
  8
0
100
AcDbBlockEnd
  0
BLOCK
  5
B5
330
B4
100
AcDbEntity
  8
0
100
AcDbBlockBegin
  2
*D24
 70
    1
 10
0
 20
0
  3
*D24
  1

  0
LINE
  5
1B2
100
AcDbEntity
  8
quote
  6
ByBlock
 62
    0
370
   -2
100
AcDbLine
 10
119
 20
-5
 11
129
 21
-5
  0
SOLID
  5
1B3
100
AcDbEntity
  8
quote
  6
ByBlock
 62
    0
370
   -2
100
AcDbTrace
 10
119
 20
-5
 30
0
 11
121.5
 21
-4.58371534222716
 31
0
 12
121.5
 22
-5.416284657772841
 32
0
 13
121.5
 23
-5.416284657772841
 33
0
  0
SOLID
  5
1B4
100
AcDbEntity
  8
quote
  6
ByBlock
 62
    0
370
   -2
100
AcDbTrace
 10
129
 20
-5
 30
0
 11
126.5
 21
-5.416284657772841
 31
0
 12
126.5
 22
-4.583715342227159
 32
0
 13
126.5
 23
-4.583715342227159
 33
0
  0
MTEXT
  5
1B5
100
AcDbEntity
  8
quote
  6
CONTINUOUS
 62
    0
370
   -2
100
AcDbMText
 10
124
 20
-3.125
 30
0
 40
2.5
 41
2.5
 71
    5
 72
    1
  1
10
  7
standard
210
0
220
0
230
1
 50
0
 73
    2
 44
1
  0
LINE
  5
1B6
100
AcDbEntity
  8
quote
  6
ByBlock
 62
    0
370
   -2
100
AcDbLine
 10
119
 20
3.375
 11
119
 21
-6.25
  0
LINE
  5
1B7
100
AcDbEntity
  8
quote
  6
ByBlock
 62
    0
370
   -2
100
AcDbLine
 10
129
 20
3.375
 11
129
 21
-6.25
  0
ENDBLK
  5
B6
330
B4
100
AcDbEntity
  8
0
100
AcDbBlockEnd
  0
BLOCK
  5
B8
330
B7
100
AcDbEntity
  8
0
100
AcDbBlockBegin
  2
*D14
 70
    1
 10
0
 20
0
  3
*D14
  1

  0
LINE
  5
1B8
100
AcDbEntity
  8
quote
  6
ByBlock
 62
    0
370
   -2
100
AcDbLine
 10
11.2
 20
13.6
 11
20.8
 21
26.4
  0
SOLID
  5
1B9
100
AcDbEntity
  8
quote
  6
ByBlock
 62
    0
370
   -2
100
AcDbTrace
 10
11.2
 20
13.6
 30
0
 11
12.36697227378173
 21
15.8497707946637
 31
0
 12
13.03302772621827
 22
15.3502292053363
 32
0
 13
13.03302772621827
 23
15.3502292053363
 33
0
  0
SOLID
  5
1BA
100
AcDbEntity
  8
quote
  6
ByBlock
 62
    0
370
   -2
100
AcDbTrace
 10
20.8
 20
26.4
 30
0
 11
19.63302772621827
 21
24.1502292053363
 31
0
 12
18.96697227378173
 22
24.6497707946637
 32
0
 13
18.96697227378173
 23
24.6497707946637
 33
0
  0
MTEXT
  5
1BB
100
AcDbEntity
  8
quote
  6
CONTINUOUS
 62
    0
370
   -2
100
AcDbMText
 10
14.5
 20
21.125
 30
0
 40
2.5
 41
2.500000000000155
 71
    5
 72
    1
  1
16
  7
standard
210
0
220
0
230
1
 50
53.13010235415597
 73
    2
 44
1
  0
ENDBLK
  5
B9
330
B7
100
AcDbEntity
  8
0
100
AcDbBlockEnd
  0
BLOCK
  5
BB
330
BA
100
AcDbEntity
  8
0
100
AcDbBlockBegin
  2
*D46
 70
    1
 10
0
 20
0
  3
*D46
  1

  0
LINE
  5
1BC
100
AcDbEntity
  8
quote
  6
ByBlock
 62
    0
370
   -2
100
AcDbLine
 10
-4.000000000000001
 20
55
 11
-3.999999999999999
 21
69
  0
SOLID
  5
1BD
100
AcDbEntity
  8
quote
  6
ByBlock
 62
    0
370
   -2
100
AcDbTrace
 10
-4
 20
60
 30
0
 11
-3.58371534222716
 21
57.5
 31
0
 12
-4.416284657772841
 22
57.5
 32
0
 13
-4.416284657772841
 23
57.5
 33
0
  0
SOLID
  5
1BE
100
AcDbEntity
  8
quote
  6
ByBlock
 62
    0
370
   -2
100
AcDbTrace
 10
-4
 20
64
 30
0
 11
-4.41628465777284
 21
66.5
 31
0
 12
-3.583715342227159
 22
66.5
 32
0
 13
-3.583715342227159
 23
66.5
 33
0
  0
MTEXT
  5
1BF
100
AcDbEntity
  8
quote
  6
CONTINUOUS
 62
    0
370
   -2
100
AcDbMText
 10
-5.875
 20
62
 30
0
 40
2.5
 41
1.388888888888889
 71
    5
 72
    1
  1
4
  7
standard
210
0
220
0
230
1
 50
90
 73
    2
 44
1
  0
LINE
  5
1C0
100
AcDbEntity
  8
quote
  6
ByBlock
 62
    0
370
   -2
100
AcDbLine
 10
15.375
 20
60
 11
-5.25
 21
60
  0
LINE
  5
1C1
100
AcDbEntity
  8
quote
  6
ByBlock
 62
    0
370
   -2
100
AcDbLine
 10
15.375
 20
64
 11
-5.25
 21
64
  0
ENDBLK
  5
BC
330
BA
100
AcDbEntity
  8
0
100
AcDbBlockEnd
  0
BLOCK
  5
BE
330
BD
100
AcDbEntity
  8
0
100
AcDbBlockBegin
  2
*D16
 70
    1
 10
0
 20
0
  3
*D16
  1

  0
LINE
  5
1C2
100
AcDbEntity
  8
quote
  6
ByBlock
 62
    0
370
   -2
100
AcDbLine
 10
107
 20
9
 11
107
 21
-5
  0
SOLID
  5
1C3
100
AcDbEntity
  8
quote
  6
ByBlock
 62
    0
370
   -2
100
AcDbTrace
 10
107
 20
4
 30
0
 11
106.5837153422272
 21
6.5
 31
0
 12
107.4162846577728
 22
6.5
 32
0
 13
107.4162846577728
 23
6.5
 33
0
  0
SOLID
  5
1C4
100
AcDbEntity
  8
quote
  6
ByBlock
 62
    0
370
   -2
100
AcDbTrace
 10
107
 20
0
 30
0
 11
107.4162846577728
 21
-2.5
 31
0
 12
106.5837153422272
 22
-2.5
 32
0
 13
106.5837153422272
 23
-2.5
 33
0
  0
MTEXT
  5
1C5
100
AcDbEntity
  8
quote
  6
CONTINUOUS
 62
    0
370
   -2
100
AcDbMText
 10
105.125
 20
2
 30
0
 40
2.5
 41
1.388888888888889
 71
    5
 72
    1
  1
4
  7
standard
210
0
220
0
230
1
 50
90
 73
    2
 44
1
  0
LINE
  5
1C6
100
AcDbEntity
  8
quote
  6
ByBlock
 62
    0
370
   -2
100
AcDbLine
 10
118.375
 20
4
 11
105.75
 21
4
  0
LINE
  5
1C7
100
AcDbEntity
  8
quote
  6
ByBlock
 62
    0
370
   -2
100
AcDbLine
 10
137.375
 20
7.653789711389858e-017
 11
105.75
 21
1.530757942277972e-016
  0
ENDBLK
  5
BF
330
BD
100
AcDbEntity
  8
0
100
AcDbBlockEnd
  0
BLOCK
  5
C1
330
C0
100
AcDbEntity
  8
0
100
AcDbBlockBegin
  2
*D9
 70
    1
 10
0
 20
0
  3
*D9
  1

  0
LINE
  5
1C8
100
AcDbEntity
  8
quote
  6
ByBlock
 62
    0
370
   -2
100
AcDbLine
 10
-11
 20
10
 11
-11
 21
22
  0
SOLID
  5
1C9
100
AcDbEntity
  8
quote
  6
ByBlock
 62
    0
370
   -2
100
AcDbTrace
 10
-11
 20
10
 30
0
 11
-11.41628465777284
 21
12.5
 31
0
 12
-10.58371534222716
 22
12.5
 32
0
 13
-10.58371534222716
 23
12.5
 33
0
  0
SOLID
  5
1CA
100
AcDbEntity
  8
quote
  6
ByBlock
 62
    0
370
   -2
100
AcDbTrace
 10
-11
 20
22
 30
0
 11
-10.58371534222716
 21
19.5
 31
0
 12
-11.41628465777284
 22
19.5
 32
0
 13
-11.41628465777284
 23
19.5
 33
0
  0
MTEXT
  5
1CB
100
AcDbEntity
  8
quote
  6
CONTINUOUS
 62
    0
370
   -2
100
AcDbMText
 10
-12.875
 20
16
 30
0
 40
2.5
 41
2.5
 71
    5
 72
    1
  1
12
  7
standard
210
0
220
0
230
1
 50
90
 73
    2
 44
1
  0
LINE
  5
1CC
100
AcDbEntity
  8
quote
  6
ByBlock
 62
    0
370
   -2
100
AcDbLine
 10
-0.625
 20
10
 11
-12.25
 21
10
  0
LINE
  5
1CD
100
AcDbEntity
  8
quote
  6
ByBlock
 62
    0
370
   -2
100
AcDbLine
 10
-0.625
 20
22
 11
-12.25
 21
22
  0
ENDBLK
  5
C2
330
C0
100
AcDbEntity
  8
0
100
AcDbBlockEnd
  0
BLOCK
  5
C4
330
C3
100
AcDbEntity
  8
0
100
AcDbBlockBegin
  2
*D3
 70
    1
 10
0
 20
0
  3
*D3
  1

  0
LINE
  5
1CE
100
AcDbEntity
  8
quote
  6
ByBlock
 62
    0
370
   -2
100
AcDbLine
 10
42
 20
-6
 11
54
 21
-6
  0
SOLID
  5
1CF
100
AcDbEntity
  8
quote
  6
ByBlock
 62
    0
370
   -2
100
AcDbTrace
 10
42
 20
-6
 30
0
 11
44.5
 21
-5.58371534222716
 31
0
 12
44.5
 22
-6.416284657772841
 32
0
 13
44.5
 23
-6.416284657772841
 33
0
  0
SOLID
  5
1D0
100
AcDbEntity
  8
quote
  6
ByBlock
 62
    0
370
   -2
100
AcDbTrace
 10
54
 20
-6
 30
0
 11
51.5
 21
-6.416284657772841
 31
0
 12
51.5
 22
-5.583715342227159
 32
0
 13
51.5
 23
-5.583715342227159
 33
0
  0
MTEXT
  5
1D1
100
AcDbEntity
  8
quote
  6
CONTINUOUS
 62
    0
370
   -2
100
AcDbMText
 10
48
 20
-4.125
 30
0
 40
2.5
 41
2.5
 71
    5
 72
    1
  1
12
  7
standard
210
0
220
0
230
1
 50
0
 73
    2
 44
1
  0
LINE
  5
1D2
100
AcDbEntity
  8
quote
  6
ByBlock
 62
    0
370
   -2
100
AcDbLine
 10
42
 20
-0.625
 11
42
 21
-7.25
  0
LINE
  5
1D3
100
AcDbEntity
  8
quote
  6
ByBlock
 62
    0
370
   -2
100
AcDbLine
 10
54
 20
-0.625
 11
54
 21
-7.25
  0
ENDBLK
  5
C5
330
C3
100
AcDbEntity
  8
0
100
AcDbBlockEnd
  0
BLOCK
  5
C7
330
C6
100
AcDbEntity
  8
0
100
AcDbBlockBegin
  2
*D11
 70
    1
 10
0
 20
0
  3
*D11
  1

  0
LINE
  5
1D4
100
AcDbEntity
  8
quote
  6
ByBlock
 62
    0
370
   -2
100
AcDbLine
 10
-16
 20
0
 11
-16
 21
32
  0
SOLID
  5
1D5
100
AcDbEntity
  8
quote
  6
ByBlock
 62
    0
370
   -2
100
AcDbTrace
 10
-16
 20
0
 30
0
 11
-16.41628465777284
 21
2.5
 31
0
 12
-15.58371534222716
 22
2.5
 32
0
 13
-15.58371534222716
 23
2.5
 33
0
  0
SOLID
  5
1D6
100
AcDbEntity
  8
quote
  6
ByBlock
 62
    0
370
   -2
100
AcDbTrace
 10
-16
 20
32
 30
0
 11
-15.58371534222716
 21
29.5
 31
0
 12
-16.41628465777284
 22
29.5
 32
0
 13
-16.41628465777284
 23
29.5
 33
0
  0
MTEXT
  5
1D7
100
AcDbEntity
  8
quote
  6
CONTINUOUS
 62
    0
370
   -2
100
AcDbMText
 10
-17.875
 20
16
 30
0
 40
2.5
 41
3.055555555555711
 71
    5
 72
    1
  1
32
  7
standard
210
0
220
0
230
1
 50
90
 73
    2
 44
1
  0
LINE
  5
1D8
100
AcDbEntity
  8
quote
  6
ByBlock
 62
    0
370
   -2
100
AcDbLine
 10
3.375
 20
7.653789711389858e-017
 11
-17.25
 21
1.530757942277972e-016
  0
LINE
  5
1D9
100
AcDbEntity
  8
quote
  6
ByBlock
 62
    0
370
   -2
100
AcDbLine
 10
3.375
 20
32
 11
-17.25
 21
32
  0
ENDBLK
  5
C8
330
C6
100
AcDbEntity
  8
0
100
AcDbBlockEnd
  0
BLOCK
  5
CA
330
C9
100
AcDbEntity
  8
0
100
AcDbBlockBegin
  2
*D18
 70
    1
 10
0
 20
0
  3
*D18
  1

  0
LINE
  5
1DA
100
AcDbEntity
  8
quote
  6
ByBlock
 62
    0
370
   -2
100
AcDbLine
 10
143
 20
10
 11
143
 21
22
  0
SOLID
  5
1DB
100
AcDbEntity
  8
quote
  6
ByBlock
 62
    0
370
   -2
100
AcDbTrace
 10
143
 20
10
 30
0
 11
142.5837153422272
 21
12.5
 31
0
 12
143.4162846577728
 22
12.5
 32
0
 13
143.4162846577728
 23
12.5
 33
0
  0
SOLID
  5
1DC
100
AcDbEntity
  8
quote
  6
ByBlock
 62
    0
370
   -2
100
AcDbTrace
 10
143
 20
22
 30
0
 11
143.4162846577728
 21
19.5
 31
0
 12
142.5837153422272
 22
19.5
 32
0
 13
142.5837153422272
 23
19.5
 33
0
  0
MTEXT
  5
1DD
100
AcDbEntity
  8
quote
  6
CONTINUOUS
 62
    0
370
   -2
100
AcDbMText
 10
141.125
 20
16
 30
0
 40
2.5
 41
2.5
 71
    5
 72
    1
  1
12
  7
standard
210
0
220
0
230
1
 50
90
 73
    2
 44
1
  0
LINE
  5
1DE
100
AcDbEntity
  8
quote
  6
ByBlock
 62
    0
370
   -2
100
AcDbLine
 10
138.625
 20
10
 11
144.25
 21
10
  0
LINE
  5
1DF
100
AcDbEntity
  8
quote
  6
ByBlock
 62
    0
370
   -2
100
AcDbLine
 10
138.625
 20
22
 11
144.25
 21
22
  0
ENDBLK
  5
CB
330
C9
100
AcDbEntity
  8
0
100
AcDbBlockEnd
  0
BLOCK
  5
CD
330
CC
100
AcDbEntity
  8
0
100
AcDbBlockBegin
  2
*D39
 70
    1
 10
0
 20
0
  3
*D39
  1

  0
LINE
  5
1E0
100
AcDbEntity
  8
quote
  6
ByBlock
 62
    0
370
   -2
100
AcDbLine
 10
49
 20
55
 11
63
 21
55
  0
SOLID
  5
1E1
100
AcDbEntity
  8
quote
  6
ByBlock
 62
    0
370
   -2
100
AcDbTrace
 10
54
 20
55
 30
0
 11
51.5
 21
54.58371534222716
 31
0
 12
51.5
 22
55.41628465777284
 32
0
 13
51.5
 23
55.41628465777284
 33
0
  0
SOLID
  5
1E2
100
AcDbEntity
  8
quote
  6
ByBlock
 62
    0
370
   -2
100
AcDbTrace
 10
58
 20
55
 30
0
 11
60.5
 21
55.41628465777284
 31
0
 12
60.5
 22
54.58371534222716
 32
0
 13
60.5
 23
54.58371534222716
 33
0
  0
MTEXT
  5
1E3
100
AcDbEntity
  8
quote
  6
CONTINUOUS
 62
    0
370
   -2
100
AcDbMText
 10
56
 20
56.875
 30
0
 40
2.5
 41
1.388888888888889
 71
    5
 72
    1
  1
4
  7
standard
210
0
220
0
230
1
 50
0
 73
    2
 44
1
  0
LINE
  5
1E4
100
AcDbEntity
  8
quote
  6
ByBlock
 62
    0
370
   -2
100
AcDbLine
 10
54
 20
68.375
 11
54
 21
53.75
  0
LINE
  5
1E5
100
AcDbEntity
  8
quote
  6
ByBlock
 62
    0
370
   -2
100
AcDbLine
 10
58
 20
68.375
 11
58
 21
53.75
  0
ENDBLK
  5
CE
330
CC
100
AcDbEntity
  8
0
100
AcDbBlockEnd
  0
BLOCK
  5
D0
330
CF
100
AcDbEntity
  8
0
100
AcDbBlockBegin
  2
*D45
 70
    1
 10
0
 20
0
  3
*D45
  1

  0
LINE
  5
1E6
100
AcDbEntity
  8
quote
  6
ByBlock
 62
    0
370
   -2
100
AcDbLine
 10
29
 20
97
 11
58
 21
97
  0
SOLID
  5
1E7
100
AcDbEntity
  8
quote
  6
ByBlock
 62
    0
370
   -2
100
AcDbTrace
 10
29
 20
97
 30
0
 11
31.5
 21
97.41628465777283
 31
0
 12
31.5
 22
96.58371534222717
 32
0
 13
31.5
 23
96.58371534222717
 33
0
  0
SOLID
  5
1E8
100
AcDbEntity
  8
quote
  6
ByBlock
 62
    0
370
   -2
100
AcDbTrace
 10
58
 20
97
 30
0
 11
55.5
 21
96.58371534222717
 31
0
 12
55.5
 22
97.41628465777283
 32
0
 13
55.5
 23
97.41628465777283
 33
0
  0
MTEXT
  5
1E9
100
AcDbEntity
  8
quote
  6
CONTINUOUS
 62
    0
370
   -2
100
AcDbMText
 10
43.5
 20
98.875
 30
0
 40
2.5
 41
3.055555555555556
 71
    5
 72
    1
  1
29
  7
standard
210
0
220
0
230
1
 50
0
 73
    2
 44
1
  0
LINE
  5
1EA
100
AcDbEntity
  8
quote
  6
ByBlock
 62
    0
370
   -2
100
AcDbLine
 10
29
 20
74.625
 11
29
 21
98.25
  0
LINE
  5
1EB
100
AcDbEntity
  8
quote
  6
ByBlock
 62
    0
370
   -2
100
AcDbLine
 10
58
 20
74.625
 11
58
 21
98.25
  0
ENDBLK
  5
D1
330
CF
100
AcDbEntity
  8
0
100
AcDbBlockEnd
  0
BLOCK
  5
D3
330
D2
100
AcDbEntity
  8
0
100
AcDbBlockBegin
  2
*D8
 70
    1
 10
0
 20
0
  3
*D8
  1

  0
LINE
  5
1EC
100
AcDbEntity
  8
quote
  6
ByBlock
 62
    0
370
   -2
100
AcDbLine
 10
-11
 20
0
 11
-11
 21
10
  0
SOLID
  5
1ED
100
AcDbEntity
  8
quote
  6
ByBlock
 62
    0
370
   -2
100
AcDbTrace
 10
-11
 20
0
 30
0
 11
-11.41628465777284
 21
2.5
 31
0
 12
-10.58371534222716
 22
2.5
 32
0
 13
-10.58371534222716
 23
2.5
 33
0
  0
SOLID
  5
1EE
100
AcDbEntity
  8
quote
  6
ByBlock
 62
    0
370
   -2
100
AcDbTrace
 10
-11
 20
10
 30
0
 11
-10.58371534222716
 21
7.5
 31
0
 12
-11.41628465777284
 22
7.5
 32
0
 13
-11.41628465777284
 23
7.5
 33
0
  0
MTEXT
  5
1EF
100
AcDbEntity
  8
quote
  6
CONTINUOUS
 62
    0
370
   -2
100
AcDbMText
 10
-12.875
 20
5
 30
0
 40
2.5
 41
2.5
 71
    5
 72
    1
  1
10
  7
standard
210
0
220
0
230
1
 50
90
 73
    2
 44
1
  0
LINE
  5
1F0
100
AcDbEntity
  8
quote
  6
ByBlock
 62
    0
370
   -2
100
AcDbLine
 10
3.375
 20
7.653789711389858e-017
 11
-12.25
 21
1.530757942277972e-016
  0
LINE
  5
1F1
100
AcDbEntity
  8
quote
  6
ByBlock
 62
    0
370
   -2
100
AcDbLine
 10
3.375
 20
10
 11
-12.25
 21
10
  0
ENDBLK
  5
D4
330
D2
100
AcDbEntity
  8
0
100
AcDbBlockEnd
  0
BLOCK
  5
D6
330
D5
100
AcDbEntity
  8
0
100
AcDbBlockBegin
  2
*D7
 70
    1
 10
0
 20
0
  3
*D7
  1

  0
LINE
  5
1F2
100
AcDbEntity
  8
quote
  6
ByBlock
 62
    0
370
   -2
100
AcDbLine
 10
-6
 20
9.000000000000004
 11
-6
 21
-4.999999999999997
  0
SOLID
  5
1F3
100
AcDbEntity
  8
quote
  6
ByBlock
 62
    0
370
   -2
100
AcDbTrace
 10
-6
 20
4.000000000000003
 30
0
 11
-6.41628465777284
 21
6.500000000000003
 31
0
 12
-5.583715342227159
 22
6.500000000000003
 32
0
 13
-5.583715342227159
 23
6.500000000000003
 33
0
  0
SOLID
  5
1F4
100
AcDbEntity
  8
quote
  6
ByBlock
 62
    0
370
   -2
100
AcDbTrace
 10
-6
 20
2.922107000813412e-015
 30
0
 11
-5.583715342227159
 21
-2.499999999999997
 31
0
 12
-6.416284657772841
 22
-2.499999999999997
 32
0
 13
-6.416284657772841
 23
-2.499999999999997
 33
0
  0
MTEXT
  5
1F5
100
AcDbEntity
  8
quote
  6
CONTINUOUS
 62
    0
370
   -2
100
AcDbMText
 10
-7.875
 20
2.000000000000004
 30
0
 40
2.5
 41
1.388888888888889
 71
    5
 72
    1
  1
4
  7
standard
210
0
220
0
230
1
 50
90
 73
    2
 44
1
  0
LINE
  5
1F6
100
AcDbEntity
  8
quote
  6
ByBlock
 62
    0
370
   -2
100
AcDbLine
 10
41.375
 20
4
 11
-7.25
 21
4.000000000000003
  0
LINE
  5
1F7
100
AcDbEntity
  8
quote
  6
ByBlock
 62
    0
370
   -2
100
AcDbLine
 10
40.375
 20
7.653789711389858e-017
 11
-7.25
 21
3.075182795041209e-015
  0
ENDBLK
  5
D7
330
D5
100
AcDbEntity
  8
0
100
AcDbBlockEnd
  0
BLOCK
  5
D9
330
D8
100
AcDbEntity
  8
0
100
AcDbBlockBegin
  2
*D15
 70
    1
 10
0
 20
0
  3
*D15
  1

  0
LINE
  5
1F8
100
AcDbEntity
  8
quote
  6
ByBlock
 62
    0
370
   -2
100
AcDbLine
 10
64
 20
20
 11
64
 21
32
  0
SOLID
  5
1F9
100
AcDbEntity
  8
quote
  6
ByBlock
 62
    0
370
   -2
100
AcDbTrace
 10
64
 20
20
 30
0
 11
63.58371534222716
 21
22.5
 31
0
 12
64.41628465777283
 22
22.5
 32
0
 13
64.41628465777283
 23
22.5
 33
0
  0
SOLID
  5
1FA
100
AcDbEntity
  8
quote
  6
ByBlock
 62
    0
370
   -2
100
AcDbTrace
 10
64
 20
32
 30
0
 11
64.41628465777283
 21
29.5
 31
0
 12
63.58371534222716
 22
29.5
 32
0
 13
63.58371534222716
 23
29.5
 33
0
  0
MTEXT
  5
1FB
100
AcDbEntity
  8
quote
  6
CONTINUOUS
 62
    0
370
   -2
100
AcDbMText
 10
62.125
 20
26
 30
0
 40
2.5
 41
2.5
 71
    5
 72
    1
  1
12
  7
standard
210
0
220
0
230
1
 50
90
 73
    2
 44
1
  0
LINE
  5
1FC
100
AcDbEntity
  8
quote
  6
ByBlock
 62
    0
370
   -2
100
AcDbLine
 10
16.625
 20
20
 11
65.25
 21
20
  0
LINE
  5
1FD
100
AcDbEntity
  8
quote
  6
ByBlock
 62
    0
370
   -2
100
AcDbLine
 10
42.625
 20
32
 11
65.25
 21
32
  0
ENDBLK
  5
DA
330
D8
100
AcDbEntity
  8
0
100
AcDbBlockEnd
  0
BLOCK
  5
DC
330
DB
100
AcDbEntity
  8
0
100
AcDbBlockBegin
  2
*D26
 70
    1
 10
0
 20
0
  3
*D26
  1

  0
LINE
  5
1FE
100
AcDbEntity
  8
quote
  6
ByBlock
 62
    0
370
   -2
100
AcDbLine
 10
129
 20
36
 11
143
 21
36
  0
SOLID
  5
1FF
100
AcDbEntity
  8
quote
  6
ByBlock
 62
    0
370
   -2
100
AcDbTrace
 10
134
 20
36
 30
0
 11
131.5
 21
35.58371534222716
 31
0
 12
131.5
 22
36.41628465777284
 32
0
 13
131.5
 23
36.41628465777284
 33
0
  0
SOLID
  5
200
100
AcDbEntity
  8
quote
  6
ByBlock
 62
    0
370
   -2
100
AcDbTrace
 10
138
 20
36
 30
0
 11
140.5
 21
36.41628465777284
 31
0
 12
140.5
 22
35.58371534222716
 32
0
 13
140.5
 23
35.58371534222716
 33
0
  0
MTEXT
  5
201
100
AcDbEntity
  8
quote
  6
CONTINUOUS
 62
    0
370
   -2
100
AcDbMText
 10
136
 20
37.875
 30
0
 40
2.5
 41
1.388888888888889
 71
    5
 72
    1
  1
4
  7
standard
210
0
220
0
230
1
 50
0
 73
    2
 44
1
  0
LINE
  5
202
100
AcDbEntity
  8
quote
  6
ByBlock
 62
    0
370
   -2
100
AcDbLine
 10
134
 20
8.625
 11
134
 21
37.25
  0
LINE
  5
203
100
AcDbEntity
  8
quote
  6
ByBlock
 62
    0
370
   -2
100
AcDbLine
 10
138
 20
10.625
 11
138
 21
37.25
  0
ENDBLK
  5
DD
330
DB
100
AcDbEntity
  8
0
100
AcDbBlockEnd
  0
BLOCK
  5
DF
330
DE
100
AcDbEntity
  8
0
100
AcDbBlockBegin
  2
*D34
 70
    1
 10
0
 20
0
  3
*D34
  1

  0
LINE
  5
204
100
AcDbEntity
  8
quote
  6
ByBlock
 62
    0
370
   -2
100
AcDbLine
 10
24
 20
38
 11
0
 21
38
  0
SOLID
  5
205
100
AcDbEntity
  8
quote
  6
ByBlock
 62
    0
370
   -2
100
AcDbTrace
 10
24
 20
38
 30
0
 11
21.5
 21
37.58371534222716
 31
0
 12
21.5
 22
38.41628465777284
 32
0
 13
21.5
 23
38.41628465777284
 33
0
  0
SOLID
  5
206
100
AcDbEntity
  8
quote
  6
ByBlock
 62
    0
370
   -2
100
AcDbTrace
 10
0
 20
38
 30
0
 11
2.5
 21
38.41628465777284
 31
0
 12
2.5
 22
37.58371534222716
 32
0
 13
2.5
 23
37.58371534222716
 33
0
  0
MTEXT
  5
207
100
AcDbEntity
  8
quote
  6
CONTINUOUS
 62
    0
370
   -2
100
AcDbMText
 10
12
 20
39.875
 30
0
 40
2.5
 41
3.333333333333333
 71
    5
 72
    1
  1
24
  7
standard
210
0
220
0
230
1
 50
360
 73
    2
 44
1
  0
LINE
  5
208
100
AcDbEntity
  8
quote
  6
ByBlock
 62
    0
370
   -2
100
AcDbLine
 10
24
 20
20.625
 11
24
 21
39.25
  0
LINE
  5
209
100
AcDbEntity
  8
quote
  6
ByBlock
 62
    0
370
   -2
100
AcDbLine
 10
3.826894855694929e-017
 20
19.625
 11
7.653789711389858e-017
 21
39.25
  0
ENDBLK
  5
E0
330
DE
100
AcDbEntity
  8
0
100
AcDbBlockEnd
  0
BLOCK
  5
E2
330
E1
100
AcDbEntity
  8
0
100
AcDbBlockBegin
  2
*D50
 70
    1
 10
0
 20
0
  3
*D50
  1

  0
LINE
  5
20A
100
AcDbEntity
  8
quote
  6
ByBlock
 62
    0
370
   -2
100
AcDbLine
 10
-9.000000000000002
 20
60
 11
-9
 21
88
  0
SOLID
  5
20B
100
AcDbEntity
  8
quote
  6
ByBlock
 62
    0
370
   -2
100
AcDbTrace
 10
-9.000000000000002
 20
60
 30
0
 11
-9.416284657772842
 21
62.5
 31
0
 12
-8.58371534222716
 22
62.5
 32
0
 13
-8.58371534222716
 23
62.5
 33
0
  0
SOLID
  5
20C
100
AcDbEntity
  8
quote
  6
ByBlock
 62
    0
370
   -2
100
AcDbTrace
 10
-9
 20
88
 30
0
 11
-8.58371534222716
 21
85.5
 31
0
 12
-9.41628465777284
 22
85.5
 32
0
 13
-9.41628465777284
 23
85.5
 33
0
  0
MTEXT
  5
20D
100
AcDbEntity
  8
quote
  6
CONTINUOUS
 62
    0
370
   -2
100
AcDbMText
 10
-10.875
 20
74
 30
0
 40
2.5
 41
3.055555555555556
 71
    5
 72
    1
  1
28
  7
standard
210
0
220
0
230
1
 50
90
 73
    2
 44
1
  0
LINE
  5
20E
100
AcDbEntity
  8
quote
  6
ByBlock
 62
    0
370
   -2
100
AcDbLine
 10
15.375
 20
60
 11
-10.25
 21
60
  0
LINE
  5
20F
100
AcDbEntity
  8
quote
  6
ByBlock
 62
    0
370
   -2
100
AcDbLine
 10
3.375
 20
88
 11
-10.25
 21
88
  0
ENDBLK
  5
E3
330
E1
100
AcDbEntity
  8
0
100
AcDbBlockEnd
  0
BLOCK
  5
E5
330
E4
100
AcDbEntity
  8
0
100
AcDbBlockBegin
  2
*D20
 70
    1
 10
0
 20
0
  3
*D20
  1

  0
LINE
  5
210
100
AcDbEntity
  8
quote
  6
ByBlock
 62
    0
370
   -2
100
AcDbLine
 10
97
 20
-7.105427357601002e-015
 11
97
 21
32
  0
SOLID
  5
211
100
AcDbEntity
  8
quote
  6
ByBlock
 62
    0
370
   -2
100
AcDbTrace
 10
97
 20
-7.105427357601002e-015
 30
0
 11
96.58371534222717
 21
2.499999999999993
 31
0
 12
97.41628465777283
 22
2.499999999999993
 32
0
 13
97.41628465777283
 23
2.499999999999993
 33
0
  0
SOLID
  5
212
100
AcDbEntity
  8
quote
  6
ByBlock
 62
    0
370
   -2
100
AcDbTrace
 10
97
 20
32
 30
0
 11
97.41628465777283
 21
29.5
 31
0
 12
96.58371534222717
 22
29.5
 32
0
 13
96.58371534222717
 23
29.5
 33
0
  0
MTEXT
  5
213
100
AcDbEntity
  8
quote
  6
CONTINUOUS
 62
    0
370
   -2
100
AcDbMText
 10
95.125
 20
16
 30
0
 40
2.5
 41
3.055555555555711
 71
    5
 72
    1
  1
32
  7
standard
210
0
220
0
230
1
 50
90
 73
    2
 44
1
  0
LINE
  5
214
100
AcDbEntity
  8
quote
  6
ByBlock
 62
    0
370
   -2
100
AcDbLine
 10
109.375
 20
-2.010178590423906e-016
 11
95.75
 21
-7.507463075685783e-015
  0
LINE
  5
215
100
AcDbEntity
  8
quote
  6
ByBlock
 62
    0
370
   -2
100
AcDbLine
 10
137.375
 20
32
 11
95.75
 21
32
  0
ENDBLK
  5
E6
330
E4
100
AcDbEntity
  8
0
100
AcDbBlockEnd
  0
BLOCK
  5
E8
330
E7
100
AcDbEntity
  8
0
100
AcDbBlockBegin
  2
*D32
 70
    1
 10
0
 20
0
  3
*D32
  1

  0
LINE
  5
216
100
AcDbEntity
  8
quote
  6
ByBlock
 62
    0
370
   -2
100
AcDbLine
 10
24
 20
38
 11
34
 21
38
  0
SOLID
  5
217
100
AcDbEntity
  8
quote
  6
ByBlock
 62
    0
370
   -2
100
AcDbTrace
 10
24
 20
38
 30
0
 11
26.5
 21
38.41628465777284
 31
0
 12
26.5
 22
37.58371534222716
 32
0
 13
26.5
 23
37.58371534222716
 33
0
  0
SOLID
  5
218
100
AcDbEntity
  8
quote
  6
ByBlock
 62
    0
370
   -2
100
AcDbTrace
 10
34
 20
38
 30
0
 11
31.5
 21
37.58371534222716
 31
0
 12
31.5
 22
38.41628465777284
 32
0
 13
31.5
 23
38.41628465777284
 33
0
  0
MTEXT
  5
219
100
AcDbEntity
  8
quote
  6
CONTINUOUS
 62
    0
370
   -2
100
AcDbMText
 10
29
 20
39.875
 30
0
 40
2.5
 41
2.5
 71
    5
 72
    1
  1
10
  7
standard
210
0
220
0
230
1
 50
0
 73
    2
 44
1
  0
LINE
  5
21A
100
AcDbEntity
  8
quote
  6
ByBlock
 62
    0
370
   -2
100
AcDbLine
 10
24
 20
20.625
 11
24
 21
39.25
  0
LINE
  5
21B
100
AcDbEntity
  8
quote
  6
ByBlock
 62
    0
370
   -2
100
AcDbLine
 10
34
 20
20.625
 11
34
 21
39.25
  0
ENDBLK
  5
E9
330
E7
100
AcDbEntity
  8
0
100
AcDbBlockEnd
  0
BLOCK
  5
EB
330
EA
100
AcDbEntity
  8
0
100
AcDbBlockBegin
  2
*D33
 70
    1
 10
0
 20
0
  3
*D33
  1

  0
LINE
  5
21C
100
AcDbEntity
  8
quote
  6
ByBlock
 62
    0
370
   -2
100
AcDbLine
 10
34
 20
38
 11
58
 21
38
  0
SOLID
  5
21D
100
AcDbEntity
  8
quote
  6
ByBlock
 62
    0
370
   -2
100
AcDbTrace
 10
34
 20
38
 30
0
 11
36.5
 21
38.41628465777284
 31
0
 12
36.5
 22
37.58371534222716
 32
0
 13
36.5
 23
37.58371534222716
 33
0
  0
SOLID
  5
21E
100
AcDbEntity
  8
quote
  6
ByBlock
 62
    0
370
   -2
100
AcDbTrace
 10
58
 20
38
 30
0
 11
55.5
 21
37.58371534222716
 31
0
 12
55.5
 22
38.41628465777284
 32
0
 13
55.5
 23
38.41628465777284
 33
0
  0
MTEXT
  5
21F
100
AcDbEntity
  8
quote
  6
CONTINUOUS
 62
    0
370
   -2
100
AcDbMText
 10
46
 20
39.875
 30
0
 40
2.5
 41
3.333333333333333
 71
    5
 72
    1
  1
24
  7
standard
210
0
220
0
230
1
 50
0
 73
    2
 44
1
  0
LINE
  5
220
100
AcDbEntity
  8
quote
  6
ByBlock
 62
    0
370
   -2
100
AcDbLine
 10
34
 20
20.625
 11
34
 21
39.25
  0
LINE
  5
221
100
AcDbEntity
  8
quote
  6
ByBlock
 62
    0
370
   -2
100
AcDbLine
 10
58
 20
20.625
 11
58
 21
39.25
  0
ENDBLK
  5
EC
330
EA
100
AcDbEntity
  8
0
100
AcDbBlockEnd
  0
BLOCK
  5
EE
330
ED
100
AcDbEntity
  8
0
100
AcDbBlockBegin
  2
*D49
 70
    1
 10
0
 20
0
  3
*D49
  1

  0
LINE
  5
222
100
AcDbEntity
  8
quote
  6
ByBlock
 62
    0
370
   -2
100
AcDbLine
 10
-4.000000000000001
 20
79
 11
-4
 21
88
  0
SOLID
  5
223
100
AcDbEntity
  8
quote
  6
ByBlock
 62
    0
370
   -2
100
AcDbTrace
 10
-4.000000000000001
 20
79
 30
0
 11
-4.416284657772841
 21
81.5
 31
0
 12
-3.58371534222716
 22
81.5
 32
0
 13
-3.58371534222716
 23
81.5
 33
0
  0
SOLID
  5
224
100
AcDbEntity
  8
quote
  6
ByBlock
 62
    0
370
   -2
100
AcDbTrace
 10
-4
 20
88
 30
0
 11
-3.58371534222716
 21
85.5
 31
0
 12
-4.416284657772841
 22
85.5
 32
0
 13
-4.416284657772841
 23
85.5
 33
0
  0
MTEXT
  5
225
100
AcDbEntity
  8
quote
  6
CONTINUOUS
 62
    0
370
   -2
100
AcDbMText
 10
-5.875
 20
83.5
 30
0
 40
2.5
 41
1.111111111111266
 71
    5
 72
    1
  1
9
  7
standard
210
0
220
0
230
1
 50
90
 73
    2
 44
1
  0
LINE
  5
226
100
AcDbEntity
  8
quote
  6
ByBlock
 62
    0
370
   -2
100
AcDbLine
 10
3.375
 20
79
 11
-5.250000000000001
 21
79
  0
LINE
  5
227
100
AcDbEntity
  8
quote
  6
ByBlock
 62
    0
370
   -2
100
AcDbLine
 10
3.375
 20
88
 11
-5.25
 21
88
  0
ENDBLK
  5
EF
330
ED
100
AcDbEntity
  8
0
100
AcDbBlockEnd
  0
ENDSEC
  0
SECTION
  2
ENTITIES
  0
LINE
  5
228
100
AcDbEntity
  8
Costruzione
  6
ByLayer
 62
  256
370
   -1
100
AcDbLine
 10
0
 20
0
 11
10
 21
0
  0
LINE
  5
229
100
AcDbEntity
  8
Costruzione
  6
ByLayer
 62
  256
370
   -1
100
AcDbLine
 10
0
 20
0
 11
6.123031769111886e-016
 21
10
  0
LINE
  5
22A
100
AcDbEntity
  8
Costruzione
  6
ByLayer
 62
  256
370
   -1
100
AcDbLine
 10
29
 20
0
 11
29
 21
10
  0
LINE
  5
22B
100
AcDbEntity
  8
Costruzione
  6
ByLayer
 62
  256
370
   -1
100
AcDbLine
 10
16
 20
0
 11
16
 21
10
  0
LINE
  5
22C
100
AcDbEntity
  8
Costruzione
  6
ByLayer
 62
  256
370
   -1
100
AcDbLine
 10
8
 20
0
 11
8
 21
10
  0
LINE
  5
22D
100
AcDbEntity
  8
Costruzione
  6
ByLayer
 62
  256
370
   -1
100
AcDbLine
 10
24
 20
0
 11
24
 21
10
  0
LINE
  5
22E
100
AcDbEntity
  8
Costruzione
  6
ByLayer
 62
  256
370
   -1
100
AcDbLine
 10
34
 20
0
 11
34
 21
10
  0
LINE
  5
22F
100
AcDbEntity
  8
Costruzione
  6
ByLayer
 62
  256
370
   -1
100
AcDbLine
 10
50
 20
0
 11
50
 21
10
  0
LINE
  5
230
100
AcDbEntity
  8
Costruzione
  6
ByLayer
 62
  256
370
   -1
100
AcDbLine
 10
42
 20
0
 11
42
 21
10
  0
LINE
  5
231
100
AcDbEntity
  8
Costruzione
  6
ByLayer
 62
  256
370
   -1
100
AcDbLine
 10
4
 20
0
 11
4.000000000000001
 21
10
  0
LINE
  5
232
100
AcDbEntity
  8
Costruzione
  6
ByLayer
 62
  256
370
   -1
100
AcDbLine
 10
54
 20
0
 11
54
 21
10
  0
LINE
  5
233
100
AcDbEntity
  8
Costruzione
  6
ByLayer
 62
  256
370
   -1
100
AcDbLine
 10
58
 20
0
 11
58
 21
10
  0
LINE
  5
234
100
AcDbEntity
  8
Costruzione
  6
ByLayer
 62
  256
370
   -1
100
AcDbLine
 10
0
 20
32
 11
10
 21
32
  0
CIRCLE
  5
235
100
AcDbEntity
  8
0
  6
ByLayer
 62
  256
370
   -1
100
AcDbCircle
 10
16
 20
20
 40
8
  0
CIRCLE
  5
236
100
AcDbEntity
  8
0
  6
ByLayer
 62
  256
370
   -1
100
AcDbCircle
 10
42
 20
20
 40
8
  0
LINE
  5
237
100
AcDbEntity
  8
Costruzione
  6
ByLayer
 62
  256
370
   -1
100
AcDbLine
 10
0
 20
20
 11
10
 21
20
  0
LINE
  5
238
100
AcDbEntity
  8
Costruzione
  6
ByLayer
 62
  256
370
   -1
100
AcDbLine
 10
0
 20
28
 11
10
 21
28
  0
LINE
  5
239
100
AcDbEntity
  8
Costruzione
  6
ByLayer
 62
  256
370
   -1
100
AcDbLine
 10
0
 20
12
 11
10
 21
12
  0
LINE
  5
23A
100
AcDbEntity
  8
Costruzione
  6
ByLayer
 62
  256
370
   -1
100
AcDbLine
 10
0
 20
4
 11
10
 21
4
  0
LINE
  5
23B
100
AcDbEntity
  8
Costruzione
  6
ByLayer
 62
  256
370
   -1
100
AcDbLine
 10
0
 20
10
 11
10
 21
10
  0
LINE
  5
23C
100
AcDbEntity
  8
Costruzione
  6
ByLayer
 62
  256
370
   -1
100
AcDbLine
 10
0
 20
22
 11
10
 21
22
  0
LINE
  5
23D
100
AcDbEntity
  8
0
  6
ByLayer
 62
  256
370
   -1
100
AcDbLine
 10
4
 20
32
 11
54
 21
32
  0
LINE
  5
23E
100
AcDbEntity
  8
0
  6
ByLayer
 62
  256
370
   -1
100
AcDbLine
 10
54
 20
32
 11
54
 21
22
  0
LINE
  5
23F
100
AcDbEntity
  8
0
  6
ByLayer
 62
  256
370
   -1
100
AcDbLine
 10
54
 20
22
 11
58
 21
22
  0
LINE
  5
240
100
AcDbEntity
  8
0
  6
ByLayer
 62
  256
370
   -1
100
AcDbLine
 10
58
 20
22
 11
58
 21
10
  0
LINE
  5
241
100
AcDbEntity
  8
0
  6
ByLayer
 62
  256
370
   -1
100
AcDbLine
 10
58
 20
10
 11
54
 21
10
  0
LINE
  5
242
100
AcDbEntity
  8
0
  6
ByLayer
 62
  256
370
   -1
100
AcDbLine
 10
54
 20
10
 11
54
 21
0
  0
LINE
  5
243
100
AcDbEntity
  8
0
  6
ByLayer
 62
  256
370
   -1
100
AcDbLine
 10
4
 20
32
 11
4
 21
22
  0
LINE
  5
244
100
AcDbEntity
  8
0
  6
ByLayer
 62
  256
370
   -1
100
AcDbLine
 10
4
 20
22
 11
0
 21
22
  0
LINE
  5
245
100
AcDbEntity
  8
0
  6
ByLayer
 62
  256
370
   -1
100
AcDbLine
 10
0
 20
22
 11
0
 21
10
  0
LINE
  5
246
100
AcDbEntity
  8
0
  6
ByLayer
 62
  256
370
   -1
100
AcDbLine
 10
0
 20
10
 11
4
 21
10
  0
LINE
  5
247
100
AcDbEntity
  8
0
  6
ByLayer
 62
  256
370
   -1
100
AcDbLine
 10
4
 20
10
 11
4
 21
0
  0
LINE
  5
248
100
AcDbEntity
  8
0
  6
ByLayer
 62
  256
370
   -1
100
AcDbLine
 10
4
 20
0
 11
16
 21
0
  0
LINE
  5
249
100
AcDbEntity
  8
0
  6
ByLayer
 62
  256
370
   -1
100
AcDbLine
 10
16
 20
0
 11
16
 21
4
  0
LINE
  5
24A
100
AcDbEntity
  8
0
  6
ByLayer
 62
  256
370
   -1
100
AcDbLine
 10
16
 20
4
 11
42
 21
4
  0
LINE
  5
24B
100
AcDbEntity
  8
0
  6
ByLayer
 62
  256
370
   -1
100
AcDbLine
 10
42
 20
4
 11
42
 21
0
  0
LINE
  5
24C
100
AcDbEntity
  8
0
  6
ByLayer
 62
  256
370
   -1
100
AcDbLine
 10
42
 20
0
 11
54
 21
0
  0
DIMENSION
  5
24D
100
AcDbEntity
  8
quote
  6
ByLayer
 62
  256
370
   -1
100
AcDbDimension
  2
*D1
 10
16
 20
-6
 30
0
 11
10
 21
-4.125
 31
0
 70
   32
 71
    5
  3
Standard
 53
0
210
0
220
0
230
1
100
AcDbAlignedDimension
 13
4
 23
0
 33
0
 14
16
 24
0
 34
0
100
AcDbRotatedDimension
  0
DIMENSION
  5
24E
100
AcDbEntity
  8
quote
  6
ByLayer
 62
  256
370
   -1
100
AcDbDimension
  2
*D2
 10
42
 20
-6
 30
0
 11
29
 21
-4.125
 31
0
 70
   32
 71
    5
  3
Standard
 53
0
210
0
220
0
230
1
100
AcDbAlignedDimension
 13
16
 23
0
 33
0
 14
42
 24
0
 34
0
100
AcDbRotatedDimension
  0
DIMENSION
  5
24F
100
AcDbEntity
  8
quote
  6
ByLayer
 62
  256
370
   -1
100
AcDbDimension
  2
*D3
 10
54
 20
-6
 30
0
 11
48
 21
-4.125
 31
0
 70
   32
 71
    5
  3
Standard
 53
0
210
0
220
0
230
1
100
AcDbAlignedDimension
 13
42
 23
0
 33
0
 14
54
 24
0
 34
0
100
AcDbRotatedDimension
  0
DIMENSION
  5
250
100
AcDbEntity
  8
quote
  6
ByLayer
 62
  256
370
   -1
100
AcDbDimension
  2
*D4
 10
58
 20
-6
 30
0
 11
56
 21
-4.125
 31
0
 70
   32
 71
    5
  3
Standard
 53
0
210
0
220
0
230
1
100
AcDbAlignedDimension
 13
54
 23
9
 33
0
 14
58
 24
10
 34
0
100
AcDbRotatedDimension
  0
DIMENSION
  5
251
100
AcDbEntity
  8
quote
  6
ByLayer
 62
  256
370
   -1
100
AcDbDimension
  2
*D5
 10
3.999999999999999
 20
-6
 30
0
 11
2
 21
-4.125
 31
0
 70
   32
 71
    5
  3
Standard
 53
0
210
0
220
0
230
1
100
AcDbAlignedDimension
 13
0
 23
10
 33
0
 14
4
 24
10
 34
0
100
AcDbRotatedDimension
  0
DIMENSION
  5
252
100
AcDbEntity
  8
quote
  6
ByLayer
 62
  256
370
   -1
100
AcDbDimension
  2
*D6
 10
58
 20
-11
 30
0
 11
29
 21
-9.125
 31
0
 70
   32
 71
    5
  3
Standard
 53
0
210
0
220
0
230
1
100
AcDbAlignedDimension
 13
0
 23
10
 33
0
 14
58
 24
10
 34
0
100
AcDbRotatedDimension
  0
DIMENSION
  5
253
100
AcDbEntity
  8
quote
  6
ByLayer
 62
  256
370
   -1
100
AcDbDimension
  2
*D7
 10
-6
 20
5.755649862965173e-015
 30
0
 11
-7.875
 21
2.000000000000004
 31
0
 70
   32
 71
    5
  3
Standard
 53
0
210
0
220
0
230
1
100
AcDbAlignedDimension
 13
42
 23
4
 33
0
 14
41
 24
0
 34
0
 50
90
100
AcDbRotatedDimension
  0
DIMENSION
  5
254
100
AcDbEntity
  8
quote
  6
ByLayer
 62
  256
370
   -1
100
AcDbDimension
  2
*D8
 10
-11
 20
10
 30
0
 11
-12.875
 21
5
 31
0
 70
   32
 71
    5
  3
Standard
 53
0
210
0
220
0
230
1
100
AcDbAlignedDimension
 13
4
 23
0
 33
0
 14
4
 24
10
 34
0
 50
90
100
AcDbRotatedDimension
  0
DIMENSION
  5
255
100
AcDbEntity
  8
quote
  6
ByLayer
 62
  256
370
   -1
100
AcDbDimension
  2
*D9
 10
-11
 20
22
 30
0
 11
-12.875
 21
16
 31
0
 70
   32
 71
    5
  3
Standard
 53
0
210
0
220
0
230
1
100
AcDbAlignedDimension
 13
0
 23
10
 33
0
 14
0
 24
22
 34
0
 50
90
100
AcDbRotatedDimension
  0
DIMENSION
  5
256
100
AcDbEntity
  8
quote
  6
ByLayer
 62
  256
370
   -1
100
AcDbDimension
  2
*D10
 10
-11
 20
32
 30
0
 11
-12.875
 21
27
 31
0
 70
   32
 71
    5
  3
Standard
 53
0
210
0
220
0
230
1
100
AcDbAlignedDimension
 13
0
 23
22
 33
0
 14
4
 24
32
 34
0
 50
90
100
AcDbRotatedDimension
  0
DIMENSION
  5
257
100
AcDbEntity
  8
quote
  6
ByLayer
 62
  256
370
   -1
100
AcDbDimension
  2
*D11
 10
-16
 20
32
 30
0
 11
-17.875
 21
16
 31
0
 70
   32
 71
    5
  3
Standard
 53
0
210
0
220
0
230
1
100
AcDbAlignedDimension
 13
4
 23
0
 33
0
 14
4
 24
32
 34
0
 50
90
100
AcDbRotatedDimension
  0
LINE
  5
258
100
AcDbEntity
  8
Costruzione laterali
  6
ByLayer
 62
  256
370
   -1
100
AcDbLine
 10
40
 20
0
 11
50
 21
0
  0
LINE
  5
259
100
AcDbEntity
  8
0
  6
ByLayer
 62
  256
370
   -1
100
AcDbLine
 10
110
 20
0
 11
119
 21
0
  0
LINE
  5
25A
100
AcDbEntity
  8
0
  6
ByLayer
 62
  256
370
   -1
100
AcDbLine
 10
119
 20
0
 11
119
 21
4
  0
LINE
  5
25B
100
AcDbEntity
  8
0
  6
ByLayer
 62
  256
370
   -1
100
AcDbLine
 10
119
 20
4
 11
129
 21
4
  0
LINE
  5
25C
100
AcDbEntity
  8
0
  6
ByLayer
 62
  256
370
   -1
100
AcDbLine
 10
129
 20
4
 11
129
 21
0
  0
LINE
  5
25D
100
AcDbEntity
  8
0
  6
ByLayer
 62
  256
370
   -1
100
AcDbLine
 10
129
 20
0
 11
138
 21
0
  0
LINE
  5
25E
100
AcDbEntity
  8
Costruzione laterali
  6
ByLayer
 62
  256
370
   -1
100
AcDbLine
 10
110
 20
31
 11
120
 21
31
  0
LINE
  5
25F
100
AcDbEntity
  8
Costruzione laterali
  6
ByLayer
 62
  256
370
   -1
100
AcDbLine
 10
110
 20
0
 11
110
 21
10
  0
LINE
  5
260
100
AcDbEntity
  8
Costruzione laterali
  6
ByLayer
 62
  256
370
   -1
100
AcDbLine
 10
110
 20
4
 11
120
 21
4
  0
LINE
  5
261
100
AcDbEntity
  8
Costruzione laterali
  6
ByLayer
 62
  256
370
   -1
100
AcDbLine
 10
138
 20
4
 11
138
 21
14
  0
LINE
  5
262
100
AcDbEntity
  8
Costruzione laterali
  6
ByLayer
 62
  256
370
   -1
100
AcDbLine
 10
119
 20
4
 11
119
 21
14
  0
LINE
  5
263
100
AcDbEntity
  8
Costruzione laterali
  6
ByLayer
 62
  256
370
   -1
100
AcDbLine
 10
129
 20
4
 11
129
 21
14
  0
LINE
  5
264
100
AcDbEntity
  8
Costruzione laterali
  6
ByLayer
 62
  256
370
   -1
100
AcDbLine
 10
134
 20
4
 11
134
 21
14
  0
LINE
  5
265
100
AcDbEntity
  8
Costruzione laterali
  6
ByLayer
 62
  256
370
   -1
100
AcDbLine
 10
110
 20
10
 11
120
 21
10
  0
LINE
  5
266
100
AcDbEntity
  8
Costruzione laterali
  6
ByLayer
 62
  256
370
   -1
100
AcDbLine
 10
110
 20
21
 11
120
 21
21
  0
LINE
  5
267
100
AcDbEntity
  8
0
  6
ByLayer
 62
  256
370
   -1
100
AcDbLine
 10
134
 20
10
 11
138
 21
10
  0
LINE
  5
268
100
AcDbEntity
  8
0
  6
ByLayer
 62
  256
370
   -1
100
AcDbLine
 10
138
 20
10
 11
138
 21
0
  0
ELLIPSE
  5
269
100
AcDbEntity
  8
0
  6
ByLayer
 62
  256
370
   -1
100
AcDbEllipse
 10
134
 20
8
 30
0
 11
-24
 21
0
 31
0
 40
1
 41
4.71238898038469
 42
1.110223024625157e-016
  0
LINE
  5
26A
100
AcDbEntity
  8
0
  6
ByLayer
 62
  256
370
   -1
100
AcDbLine
 10
134
 20
32
 11
138
 21
32
  0
LINE
  5
26B
100
AcDbEntity
  8
0
  6
ByLayer
 62
  256
370
   -1
100
AcDbLine
 10
138
 20
32
 11
138
 21
22
  0
LINE
  5
26C
100
AcDbEntity
  8
0
  6
ByLayer
 62
  256
370
   -1
100
AcDbLine
 10
138
 20
22
 11
134
 21
22
  0
LINE
  5
26D
100
AcDbEntity
  8
0
  6
ByLayer
 62
  256
370
   -1
100
AcDbLine
 10
134
 20
22
 11
134
 21
10
  0
DIMENSION
  5
26E
100
AcDbEntity
  8
quote
  6
ByLayer
 62
  256
370
   -1
100
AcDbDimension
  2
*D12
 10
64
 20
20
 30
0
 11
62.125
 21
10
 31
0
 70
   32
 71
    5
  3
Standard
 53
0
210
0
220
0
230
1
100
AcDbAlignedDimension
 13
42
 23
0
 33
0
 14
42
 24
20
 34
0
 50
90
100
AcDbRotatedDimension
  0
DIMENSION
  5
26F
100
AcDbEntity
  8
quote
  6
ByLayer
 62
  256
370
   -1
100
AcDbDimension
  2
*D13
 10
37.0024396195646
 20
13.75304952445576
 30
0
 11
40.53587098229432
 21
21.17130321416455
 31
0
 70
   35
 71
    5
  3
Standard
 53
0
210
0
220
0
230
1
100
AcDbDiametricDimension
 15
46.9975603804354
 25
26.24695047554424
 35
0
 40
0
  0
DIMENSION
  5
270
100
AcDbEntity
  8
quote
  6
ByLayer
 62
  256
370
   -1
100
AcDbDimension
  2
*D14
 10
11.2
 20
13.6
 30
0
 11
14.5
 21
21.125
 31
0
 70
   35
 71
    5
  3
Standard
 53
0
210
0
220
0
230
1
100
AcDbDiametricDimension
 15
20.8
 25
26.4
 35
0
 40
0
  0
DIMENSION
  5
271
100
AcDbEntity
  8
quote
  6
ByLayer
 62
  256
370
   -1
100
AcDbDimension
  2
*D15
 10
64
 20
32
 30
0
 11
62.125
 21
26
 31
0
 70
   32
 71
    5
  3
Standard
 53
0
210
0
220
0
230
1
100
AcDbAlignedDimension
 13
16
 23
20
 33
0
 14
42
 24
32
 34
0
 50
90
100
AcDbRotatedDimension
  0
DIMENSION
  5
272
100
AcDbEntity
  8
quote
  6
ByLayer
 62
  256
370
   -1
100
AcDbDimension
  2
*D16
 10
107
 20
3.79627969684937e-015
 30
0
 11
105.125
 21
2
 31
0
 70
   32
 71
    5
  3
Standard
 53
0
210
0
220
0
230
1
100
AcDbAlignedDimension
 13
119
 23
4
 33
0
 14
138
 24
0
 34
0
 50
90
100
AcDbRotatedDimension
  0
DIMENSION
  5
273
100
AcDbEntity
  8
quote
  6
ByLayer
 62
  256
370
   -1
100
AcDbDimension
  2
*D17
 10
143
 20
10
 30
0
 11
141.125
 21
5
 31
0
 70
   32
 71
    5
  3
Standard
 53
0
210
0
220
0
230
1
100
AcDbAlignedDimension
 13
138
 23
0
 33
0
 14
138
 24
10
 34
0
 50
90
100
AcDbRotatedDimension
  0
DIMENSION
  5
274
100
AcDbEntity
  8
quote
  6
ByLayer
 62
  256
370
   -1
100
AcDbDimension
  2
*D18
 10
143
 20
22
 30
0
 11
141.125
 21
16
 31
0
 70
   32
 71
    5
  3
Standard
 53
0
210
0
220
0
230
1
100
AcDbAlignedDimension
 13
138
 23
10
 33
0
 14
138
 24
22
 34
0
 50
90
100
AcDbRotatedDimension
  0
DIMENSION
  5
275
100
AcDbEntity
  8
quote
  6
ByLayer
 62
  256
370
   -1
100
AcDbDimension
  2
*D19
 10
143
 20
32
 30
0
 11
141.125
 21
27
 31
0
 70
   32
 71
    5
  3
Standard
 53
0
210
0
220
0
230
1
100
AcDbAlignedDimension
 13
138
 23
22
 33
0
 14
138
 24
32
 34
0
 50
90
100
AcDbRotatedDimension
  0
DIMENSION
  5
276
100
AcDbEntity
  8
quote
  6
ByLayer
 62
  256
370
   -1
100
AcDbDimension
  2
*D20
 10
97
 20
32.00000000000001
 30
0
 11
95.125
 21
16
 31
0
 70
   32
 71
    5
  3
Standard
 53
0
210
0
220
0
230
1
100
AcDbAlignedDimension
 13
110
 23
0
 33
0
 14
138
 24
32
 34
0
 50
90
100
AcDbRotatedDimension
  0
LINE
  5
277
100
AcDbEntity
  8
Costruzione laterali
  6
ByLayer
 62
  256
370
   -1
100
AcDbLine
 10
110
 20
8
 11
120
 21
8
  0
DIMENSION
  5
278
100
AcDbEntity
  8
quote
  6
ByLayer
 62
  256
370
   -1
100
AcDbDimension
  2
*D21
 10
102
 20
3.673819061467132e-015
 30
0
 11
100.125
 21
4.000000000000001
 31
0
 70
   32
 71
    5
  3
Standard
 53
0
210
0
220
0
230
1
100
AcDbAlignedDimension
 13
134
 23
8
 33
0
 14
132
 24
0
 34
0
 50
90
100
AcDbRotatedDimension
  0
DIMENSION
  5
279
100
AcDbEntity
  8
quote
  6
ByLayer
 62
  256
370
   -1
100
AcDbDimension
  2
*D22
 10
102
 20
32.00000000000001
 30
0
 11
100.125
 21
20
 31
0
 70
   32
 71
    5
  3
Standard
 53
0
210
0
220
0
230
1
100
AcDbAlignedDimension
 13
134
 23
8
 33
0
 14
134
 24
32
 34
0
 50
90
100
AcDbRotatedDimension
  0
LINE
  5
27A
100
AcDbEntity
  8
0
  6
ByLayer
 62
  256
370
   -1
100
AcDbLine
 10
110
 20
0
 11
110
 21
8
  0
DIMENSION
  5
27B
100
AcDbEntity
  8
quote
  6
ByLayer
 62
  256
370
   -1
100
AcDbDimension
  2
*D23
 10
119
 20
-5
 30
0
 11
114.5
 21
-3.125
 31
0
 70
   32
 71
    5
  3
Standard
 53
0
210
0
220
0
230
1
100
AcDbAlignedDimension
 13
110
 23
0
 33
0
 14
119
 24
4
 34
0
100
AcDbRotatedDimension
  0
DIMENSION
  5
27C
100
AcDbEntity
  8
quote
  6
ByLayer
 62
  256
370
   -1
100
AcDbDimension
  2
*D24
 10
129
 20
-5
 30
0
 11
124
 21
-3.125
 31
0
 70
   32
 71
    5
  3
Standard
 53
0
210
0
220
0
230
1
100
AcDbAlignedDimension
 13
119
 23
4
 33
0
 14
129
 24
4
 34
0
100
AcDbRotatedDimension
  0
DIMENSION
  5
27D
100
AcDbEntity
  8
quote
  6
ByLayer
 62
  256
370
   -1
100
AcDbDimension
  2
*D25
 10
138
 20
-5
 30
0
 11
133.5
 21
-3.125
 31
0
 70
   32
 71
    5
  3
Standard
 53
0
210
0
220
0
230
1
100
AcDbAlignedDimension
 13
129
 23
4
 33
0
 14
138
 24
0
 34
0
100
AcDbRotatedDimension
  0
DIMENSION
  5
27E
100
AcDbEntity
  8
quote
  6
ByLayer
 62
  256
370
   -1
100
AcDbDimension
  2
*D26
 10
138
 20
36
 30
0
 11
136
 21
37.875
 31
0
 70
   32
 71
    5
  3
Standard
 53
0
210
0
220
0
230
1
100
AcDbAlignedDimension
 13
134
 23
8
 33
0
 14
138
 24
10
 34
0
100
AcDbRotatedDimension
  0
DIMENSION
  5
27F
100
AcDbEntity
  8
quote
  6
ByLayer
 62
  256
370
   -1
100
AcDbDimension
  2
*D27
 10
110
 20
36
 30
0
 11
122
 21
37.875
 31
0
 70
   32
 71
    5
  3
Standard
 53
0
210
0
220
0
230
1
100
AcDbAlignedDimension
 13
134
 23
8
 33
0
 14
110
 24
8
 34
0
100
AcDbRotatedDimension
  0
DIMENSION
  5
280
100
AcDbEntity
  8
quote
  6
ByLayer
 62
  256
370
   -1
100
AcDbDimension
  2
*D28
 10
138
 20
-11
 30
0
 11
124
 21
-9.125
 31
0
 70
   32
 71
    5
  3
Standard
 53
0
210
0
220
0
230
1
100
AcDbAlignedDimension
 13
110
 23
0
 33
0
 14
138
 24
0
 34
0
100
AcDbRotatedDimension
  0
LINE
  5
281
100
AcDbEntity
  8
Costruzione base
  6
ByLayer
 62
  256
370
   -1
100
AcDbLine
 10
0
 20
60
 11
10
 21
60
  0
LINE
  5
282
100
AcDbEntity
  8
Costruzione base
  6
ByLayer
 62
  256
370
   -1
100
AcDbLine
 10
0
 20
60
 11
6.123031769111886e-016
 21
70
  0
LINE
  5
283
100
AcDbEntity
  8
Costruzione base
  6
ByLayer
 62
  256
370
   -1
100
AcDbLine
 10
4
 20
60
 11
4.000000000000001
 21
70
  0
LINE
  5
284
100
AcDbEntity
  8
Costruzione base
  6
ByLayer
 62
  256
370
   -1
100
AcDbLine
 10
0
 20
64
 11
10
 21
64
  0
LINE
  5
285
100
AcDbEntity
  8
Costruzione base
  6
ByLayer
 62
  256
370
   -1
100
AcDbLine
 10
0
 20
74
 11
10
 21
74
  0
LINE
  5
286
100
AcDbEntity
  8
Costruzione base
  6
ByLayer
 62
  256
370
   -1
100
AcDbLine
 10
0
 20
88
 11
10
 21
88
  0
LINE
  5
287
100
AcDbEntity
  8
Costruzione base
  6
ByLayer
 62
  256
370
   -1
100
AcDbLine
 10
0
 20
84
 11
10
 21
84
  0
LINE
  5
288
100
AcDbEntity
  8
Costruzione base
  6
ByLayer
 62
  256
370
   -1
100
AcDbLine
 10
0
 20
69
 11
10
 21
69
  0
LINE
  5
289
100
AcDbEntity
  8
Costruzione base
  6
ByLayer
 62
  256
370
   -1
100
AcDbLine
 10
0
 20
79
 11
10
 21
79
  0
LINE
  5
28A
100
AcDbEntity
  8
0
  6
ByLayer
 62
  256
370
   -1
100
AcDbLine
 10
0
 20
79
 11
0
 21
69
  0
LINE
  5
28B
100
AcDbEntity
  8
0
  6
ByLayer
 62
  256
370
   -1
100
AcDbLine
 10
0
 20
69
 11
4
 21
69
  0
LINE
  5
28C
100
AcDbEntity
  8
0
  6
ByLayer
 62
  256
370
   -1
100
AcDbLine
 10
4
 20
88
 11
4
 21
79
  0
LINE
  5
28D
100
AcDbEntity
  8
0
  6
ByLayer
 62
  256
370
   -1
100
AcDbLine
 10
4
 20
79
 11
0
 21
79
  0
CIRCLE
  5
28E
100
AcDbEntity
  8
0
  6
ByLayer
 62
  256
370
   -1
100
AcDbCircle
 10
29
 20
74
 40
10
  0
LINE
  5
28F
100
AcDbEntity
  8
0
  6
ByLayer
 62
  256
370
   -1
100
AcDbLine
 10
54
 20
69
 11
58
 21
69
  0
LINE
  5
290
100
AcDbEntity
  8
0
  6
ByLayer
 62
  256
370
   -1
100
AcDbLine
 10
58
 20
69
 11
58
 21
79
  0
LINE
  5
291
100
AcDbEntity
  8
0
  6
ByLayer
 62
  256
370
   -1
100
AcDbLine
 10
58
 20
79
 11
54
 21
79
  0
LINE
  5
292
100
AcDbEntity
  8
0
  6
ByLayer
 62
  256
370
   -1
100
AcDbLine
 10
54
 20
79
 11
54
 21
88
  0
LINE
  5
293
100
AcDbEntity
  8
Costruzione base
  6
ByLayer
 62
  256
370
   -1
100
AcDbLine
 10
58
 20
60
 11
58
 21
70
  0
LINE
  5
294
100
AcDbEntity
  8
Costruzione base
  6
ByLayer
 62
  256
370
   -1
100
AcDbLine
 10
54
 20
60
 11
54
 21
70
  0
LINE
  5
295
100
AcDbEntity
  8
Costruzione base
  6
ByLayer
 62
  256
370
   -1
100
AcDbLine
 10
46
 20
60
 11
46
 21
70
  0
LINE
  5
296
100
AcDbEntity
  8
Costruzione base
  6
ByLayer
 62
  256
370
   -1
100
AcDbLine
 10
29
 20
60
 11
29
 21
70
  0
LINE
  5
297
100
AcDbEntity
  8
0
  6
ByLayer
 62
  256
370
   -1
100
AcDbLine
 10
4
 20
88
 11
54
 21
88
  0
LINE
  5
298
100
AcDbEntity
  8
Costruzione base
  6
ByLayer
 62
  256
370
   -1
100
AcDbLine
 10
12
 20
60
 11
12
 21
70
  0
LINE
  5
299
100
AcDbEntity
  8
Costruzione base
  6
ByLayer
 62
  256
370
   -1
100
AcDbLine
 10
0
 20
76
 11
10
 21
76
  0
LINE
  5
29A
100
AcDbEntity
  8
Costruzione base
  6
ByLayer
 62
  256
370
   -1
100
AcDbLine
 10
0
 20
72
 11
10
 21
72
  0
LINE
  5
29B
100
AcDbEntity
  8
Costruzione base
  6
ByLayer
 62
  256
370
   -1
100
AcDbLine
 10
10
 20
60
 11
10
 21
70
  0
LINE
  5
29C
100
AcDbEntity
  8
Costruzione base
  6
ByLayer
 62
  256
370
   -1
100
AcDbLine
 10
6
 20
60
 11
6.000000000000001
 21
70
  0
LINE
  5
29D
100
AcDbEntity
  8
0
  6
ByLayer
 62
  256
370
   -1
100
AcDbLine
 10
4
 20
69
 11
4
 21
64
  0
LINE
  5
29E
100
AcDbEntity
  8
Costruzione base
  6
ByLayer
 62
  256
370
   -1
100
AcDbLine
 10
16
 20
60
 11
16
 21
70
  0
LINE
  5
29F
100
AcDbEntity
  8
Costruzione base
  6
ByLayer
 62
  256
370
   -1
100
AcDbLine
 10
42
 20
60
 11
42
 21
70
  0
LINE
  5
2A0
100
AcDbEntity
  8
0
  6
ByLayer
 62
  256
370
   -1
100
AcDbLine
 10
4
 20
64
 11
16
 21
64
  0
LINE
  5
2A1
100
AcDbEntity
  8
0
  6
ByLayer
 62
  256
370
   -1
100
AcDbLine
 10
16
 20
64
 11
16
 21
60
  0
LINE
  5
2A2
100
AcDbEntity
  8
0
  6
ByLayer
 62
  256
370
   -1
100
AcDbLine
 10
16
 20
60
 11
42
 21
60
  0
LINE
  5
2A3
100
AcDbEntity
  8
0
  6
ByLayer
 62
  256
370
   -1
100
AcDbLine
 10
42
 20
60
 11
42
 21
64
  0
LINE
  5
2A4
100
AcDbEntity
  8
0
  6
ByLayer
 62
  256
370
   -1
100
AcDbLine
 10
42
 20
64
 11
54
 21
64
  0
LINE
  5
2A5
100
AcDbEntity
  8
0
  6
ByLayer
 62
  256
370
   -1
100
AcDbLine
 10
54
 20
64
 11
54
 21
69
  0
DIMENSION
  5
2A6
100
AcDbEntity
  8
quote
  6
ByLayer
 62
  256
370
   -1
100
AcDbDimension
  2
*D29
 10
16
 20
43
 30
0
 11
8
 21
44.875
 31
0
 70
   32
 71
    5
  3
Standard
 53
0
210
0
220
0
230
1
100
AcDbAlignedDimension
 13
0
 23
20
 33
0
 14
16
 24
20
 34
0
100
AcDbRotatedDimension
  0
DIMENSION
  5
2A7
100
AcDbEntity
  8
quote
  6
ByLayer
 62
  256
370
   -1
100
AcDbDimension
  2
*D30
 10
43
 20
43
 30
0
 11
29
 21
44.875
 31
0
 70
   32
 71
    5
  3
Standard
 53
0
210
0
220
0
230
1
100
AcDbAlignedDimension
 13
16
 23
20
 33
0
 14
42
 24
20
 34
0
100
AcDbRotatedDimension
  0
DIMENSION
  5
2A8
100
AcDbEntity
  8
quote
  6
ByLayer
 62
  256
370
   -1
100
AcDbDimension
  2
*D31
 10
57
 20
43
 30
0
 11
50
 21
44.875
 31
0
 70
   32
 71
    5
  3
Standard
 53
0
210
0
220
0
230
1
100
AcDbAlignedDimension
 13
42
 23
20
 33
0
 14
58
 24
20
 34
0
100
AcDbRotatedDimension
  0
DIMENSION
  5
2A9
100
AcDbEntity
  8
quote
  6
ByLayer
 62
  256
370
   -1
100
AcDbDimension
  2
*D32
 10
34
 20
38
 30
0
 11
29
 21
39.875
 31
0
 70
   32
 71
    5
  3
Standard
 53
0
210
0
220
0
230
1
100
AcDbAlignedDimension
 13
24
 23
20
 33
0
 14
34
 24
20
 34
0
100
AcDbRotatedDimension
  0
DIMENSION
  5
2AA
100
AcDbEntity
  8
quote
  6
ByLayer
 62
  256
370
   -1
100
AcDbDimension
  2
*D33
 10
58
 20
38
 30
0
 11
46
 21
39.875
 31
0
 70
   32
 71
    5
  3
Standard
 53
0
210
0
220
0
230
1
100
AcDbAlignedDimension
 13
34
 23
20
 33
0
 14
58
 24
20
 34
0
100
AcDbRotatedDimension
  0
DIMENSION
  5
2AB
100
AcDbEntity
  8
quote
  6
ByLayer
 62
  256
370
   -1
100
AcDbDimension
  2
*D34
 10
1.163376036131258e-015
 20
38
 30
0
 11
12
 21
39.875
 31
0
 70
   32
 71
    5
  3
Standard
 53
0
210
0
220
0
230
1
100
AcDbAlignedDimension
 13
24
 23
20
 33
0
 14
0
 24
19
 34
0
100
AcDbRotatedDimension
  0
DIMENSION
  5
2AC
100
AcDbEntity
  8
quote
  6
ByLayer
 62
  256
370
   -1
100
AcDbDimension
  2
*D35
 10
3.999999999999999
 20
55
 30
0
 11
2
 21
56.875
 31
0
 70
   32
 71
    5
  3
Standard
 53
0
210
0
220
0
230
1
100
AcDbAlignedDimension
 13
0
 23
69
 33
0
 14
4
 24
69
 34
0
100
AcDbRotatedDimension
  0
DIMENSION
  5
2AD
100
AcDbEntity
  8
quote
  6
ByLayer
 62
  256
370
   -1
100
AcDbDimension
  2
*D36
 10
16
 20
55
 30
0
 11
10
 21
56.875
 31
0
 70
   32
 71
    5
  3
Standard
 53
0
210
0
220
0
230
1
100
AcDbAlignedDimension
 13
4
 23
64
 33
0
 14
16
 24
64
 34
0
100
AcDbRotatedDimension
  0
DIMENSION
  5
2AE
100
AcDbEntity
  8
quote
  6
ByLayer
 62
  256
370
   -1
100
AcDbDimension
  2
*D37
 10
42
 20
55
 30
0
 11
29
 21
56.875
 31
0
 70
   32
 71
    5
  3
Standard
 53
0
210
0
220
0
230
1
100
AcDbAlignedDimension
 13
16
 23
64
 33
0
 14
42
 24
64
 34
0
100
AcDbRotatedDimension
  0
DIMENSION
  5
2AF
100
AcDbEntity
  8
quote
  6
ByLayer
 62
  256
370
   -1
100
AcDbDimension
  2
*D38
 10
54
 20
55
 30
0
 11
48
 21
56.875
 31
0
 70
   32
 71
    5
  3
Standard
 53
0
210
0
220
0
230
1
100
AcDbAlignedDimension
 13
42
 23
64
 33
0
 14
54
 24
64
 34
0
100
AcDbRotatedDimension
  0
DIMENSION
  5
2B0
100
AcDbEntity
  8
quote
  6
ByLayer
 62
  256
370
   -1
100
AcDbDimension
  2
*D39
 10
58
 20
55
 30
0
 11
56
 21
56.875
 31
0
 70
   32
 71
    5
  3
Standard
 53
0
210
0
220
0
230
1
100
AcDbAlignedDimension
 13
54
 23
69
 33
0
 14
58
 24
69
 34
0
100
AcDbRotatedDimension
  0
DIMENSION
  5
2B1
100
AcDbEntity
  8
quote
  6
ByLayer
 62
  256
370
   -1
100
AcDbDimension
  2
*D40
 10
58
 20
50
 30
0
 11
29
 21
51.875
 31
0
 70
   32
 71
    5
  3
Standard
 53
0
210
0
220
0
230
1
100
AcDbAlignedDimension
 13
0
 23
69
 33
0
 14
58
 24
69
 34
0
100
AcDbRotatedDimension
  0
DIMENSION
  5
2B2
100
AcDbEntity
  8
quote
  6
ByLayer
 62
  256
370
   -1
100
AcDbDimension
  2
*D41
 10
4
 20
92
 30
0
 11
2
 21
93.875
 31
0
 70
   32
 71
    5
  3
Standard
 53
0
210
0
220
0
230
1
100
AcDbAlignedDimension
 13
0
 23
79
 33
0
 14
4
 24
88
 34
0
100
AcDbRotatedDimension
  0
DIMENSION
  5
2B3
100
AcDbEntity
  8
quote
  6
ByLayer
 62
  256
370
   -1
100
AcDbDimension
  2
*D42
 10
54
 20
92
 30
0
 11
29
 21
93.875
 31
0
 70
   32
 71
    5
  3
Standard
 53
0
210
0
220
0
230
1
100
AcDbAlignedDimension
 13
4
 23
88
 33
0
 14
54
 24
88
 34
0
100
AcDbRotatedDimension
  0
DIMENSION
  5
2B4
100
AcDbEntity
  8
quote
  6
ByLayer
 62
  256
370
   -1
100
AcDbDimension
  2
*D43
 10
58
 20
92
 30
0
 11
56
 21
93.875
 31
0
 70
   32
 71
    5
  3
Standard
 53
0
210
0
220
0
230
1
100
AcDbAlignedDimension
 13
54
 23
88
 33
0
 14
58
 24
79
 34
0
100
AcDbRotatedDimension
  0
DIMENSION
  5
2B5
100
AcDbEntity
  8
quote
  6
ByLayer
 62
  256
370
   -1
100
AcDbDimension
  2
*D44
 10
29
 20
97
 30
0
 11
14.5
 21
98.875
 31
0
 70
   32
 71
    5
  3
Standard
 53
0
210
0
220
0
230
1
100
AcDbAlignedDimension
 13
0
 23
74
 33
0
 14
29
 24
74
 34
0
100
AcDbRotatedDimension
  0
DIMENSION
  5
2B6
100
AcDbEntity
  8
quote
  6
ByLayer
 62
  256
370
   -1
100
AcDbDimension
  2
*D45
 10
58
 20
97
 30
0
 11
43.5
 21
98.875
 31
0
 70
   32
 71
    5
  3
Standard
 53
0
210
0
220
0
230
1
100
AcDbAlignedDimension
 13
29
 23
74
 33
0
 14
58
 24
74
 34
0
100
AcDbRotatedDimension
  0
DIMENSION
  5
2B7
100
AcDbEntity
  8
quote
  6
ByLayer
 62
  256
370
   -1
100
AcDbDimension
  2
*D46
 10
-4
 20
64
 30
0
 11
-5.875
 21
62
 31
0
 70
   32
 71
    5
  3
Standard
 53
0
210
0
220
0
230
1
100
AcDbAlignedDimension
 13
16
 23
60
 33
0
 14
16
 24
64
 34
0
 50
90
100
AcDbRotatedDimension
  0
DIMENSION
  5
2B8
100
AcDbEntity
  8
quote
  6
ByLayer
 62
  256
370
   -1
100
AcDbDimension
  2
*D47
 10
-4
 20
69
 30
0
 11
-5.875
 21
66.5
 31
0
 70
   32
 71
    5
  3
Standard
 53
0
210
0
220
0
230
1
100
AcDbAlignedDimension
 13
4
 23
64
 33
0
 14
4
 24
69
 34
0
 50
90
100
AcDbRotatedDimension
  0
DIMENSION
  5
2B9
100
AcDbEntity
  8
quote
  6
ByLayer
 62
  256
370
   -1
100
AcDbDimension
  2
*D48
 10
-4
 20
79
 30
0
 11
-5.875
 21
74
 31
0
 70
   32
 71
    5
  3
Standard
 53
0
210
0
220
0
230
1
100
AcDbAlignedDimension
 13
4
 23
69
 33
0
 14
4
 24
79
 34
0
 50
90
100
AcDbRotatedDimension
  0
DIMENSION
  5
2BA
100
AcDbEntity
  8
quote
  6
ByLayer
 62
  256
370
   -1
100
AcDbDimension
  2
*D49
 10
-4
 20
88
 30
0
 11
-5.875
 21
83.5
 31
0
 70
   32
 71
    5
  3
Standard
 53
0
210
0
220
0
230
1
100
AcDbAlignedDimension
 13
4
 23
79
 33
0
 14
4
 24
88
 34
0
 50
90
100
AcDbRotatedDimension
  0
DIMENSION
  5
2BB
100
AcDbEntity
  8
quote
  6
ByLayer
 62
  256
370
   -1
100
AcDbDimension
  2
*D50
 10
-9
 20
88
 30
0
 11
-10.875
 21
74
 31
0
 70
   32
 71
    5
  3
Standard
 53
0
210
0
220
0
230
1
100
AcDbAlignedDimension
 13
16
 23
60
 33
0
 14
4
 24
88
 34
0
 50
90
100
AcDbRotatedDimension
  0
DIMENSION
  5
2BC
100
AcDbEntity
  8
quote
  6
ByLayer
 62
  256
370
   -1
100
AcDbDimension
  2
*D51
 10
63
 20
59.99999999999999
 30
0
 11
61.125
 21
67
 31
0
 70
   32
 71
    5
  3
Standard
 53
0
210
0
220
0
230
1
100
AcDbAlignedDimension
 13
29
 23
74
 33
0
 14
29
 24
60
 34
0
 50
90
100
AcDbRotatedDimension
  0
DIMENSION
  5
2BD
100
AcDbEntity
  8
quote
  6
ByLayer
 62
  256
370
   -1
100
AcDbDimension
  2
*D52
 10
63
 20
88
 30
0
 11
61.125
 21
81
 31
0
 70
   32
 71
    5
  3
Standard
 53
0
210
0
220
0
230
1
100
AcDbAlignedDimension
 13
29
 23
74
 33
0
 14
29
 24
88
 34
0
 50
90
100
AcDbRotatedDimension
  0
DIMENSION
  5
2BE
100
AcDbEntity
  8
quote
  6
ByLayer
 62
  256
370
   -1
100
AcDbDimension
  2
*D53
 10
36.4740931868366
 20
80.64363838829919
 30
0
 11
27.7543178021939
 21
75.40139247253187
 31
0
 70
   35
 71
    5
  3
Standard
 53
0
210
0
220
0
230
1
100
AcDbDiametricDimension
 15
21.5259068131634
 25
67.35636161170081
 35
0
 40
0
  0
ENDSEC
  0
SECTION
  2
OBJECTS
  0
DICTIONARY
  5
C
330
0
100
AcDbDictionary
281
    1
  3
ACAD_GROUP
350
D
  0
DICTIONARY
  5
D
330
C
100
AcDbDictionary
281
    1
  0
ENDSEC
  0
EOF
